<?xml version="1.0" encoding="utf-8"?>
<!-- Generator: Adobe Illustrator 25.0.0, SVG Export Plug-In . SVG Version: 6.00 Build 0)  -->
<svg version="1.0" id="Capa_1" xmlns="http://www.w3.org/2000/svg" xmlns:xlink="http://www.w3.org/1999/xlink" x="0px" y="0px"
	 viewBox="0 0 436 165" style="enable-background:new 0 0 436 165;" xml:space="preserve">
<style type="text/css">
	.st0{fill:#D2127E;}
	.st1{fill:none;stroke:#FFFFFF;stroke-width:4;}
	.st2{fill:#83044C;}
	.st3{fill:#FFFFFF;}
	.st4{fill:#C4006E;}
	.st5{fill:#DDDDDD;}
	.st6{fill:none;stroke:#D2127E;stroke-width:4;}
	.st7{fill-rule:evenodd;clip-rule:evenodd;fill:#FFFFFF;}
	.st8{fill:none;stroke:#D2127E;}
	.st9{fill:#D8D8D8;}
	.st10{fill:#79134C;}
	.st11{fill:#D971A9;}
	.st12{fill:#D3097F;}
	.st13{fill:#FFF8F8;}
	.st14{fill:#34344E;}
	.st15{fill:none;stroke:#34344E;stroke-width:2;}
	.st16{fill:#333333;}
	.st17{fill:none;stroke:#707070;}
	.st18{fill:none;}
	.st19{fill:none;stroke:#000000;stroke-width:2;}
	.st20{fill:#D31480;}
	.st21{clip-path:url(#SVGID_2_);}
	.st22{fill:#1D1D1B;}
	.st23{fill:#E7987B;}
	.st24{fill:#EDECEC;}
	.st25{fill:#F5A979;}
	.st26{fill:#26595D;}
	.st27{fill:#444343;}
	.st28{fill:#DADADA;}
	.st29{fill:#DE8B72;}
	.st30{fill:#3F3F3E;}
	.st31{opacity:0.35;}
	.st32{clip-path:url(#SVGID_4_);}
	.st33{clip-path:url(#SVGID_6_);}
	.st34{fill:#5DA7AD;}
	.st35{fill:#2F6E74;}
	.st36{fill:#388389;}
	.st37{fill:#122C2E;}
	.st38{opacity:0.2;}
	.st39{clip-path:url(#SVGID_8_);}
	.st40{fill:#D1308A;}
	.st41{opacity:0.36;fill:#D2127E;enable-background:new    ;}
	.st42{opacity:0.6;fill:#D2127E;enable-background:new    ;}
	.st43{clip-path:url(#SVGID_10_);}
	.st44{fill:#79687B;}
	.st45{clip-path:url(#SVGID_12_);}
	.st46{fill:#B60F6E;}
	.st47{fill:#DFDFDF;}
	.st48{fill:none;stroke:#B32066;stroke-miterlimit:10;}
	.st49{fill:none;stroke:#ED841E;stroke-miterlimit:10;}
	.st50{clip-path:url(#SVGID_14_);}
	.st51{opacity:0.63;}
	.st52{opacity:0.53;fill:none;stroke:#FFFFFF;stroke-miterlimit:10;}
	.st53{opacity:0.53;fill:#FFFFFF;}
	.st54{opacity:0.5;}
	.st55{fill:url(#SVGID_17_);}
	.st56{fill:url(#SVGID_18_);}
	.st57{fill:url(#SVGID_19_);}
	.st58{fill:url(#SVGID_20_);}
	.st59{fill:url(#SVGID_21_);}
	.st60{fill:url(#SVGID_22_);}
	.st61{fill:url(#SVGID_23_);}
	.st62{fill:url(#SVGID_24_);}
	.st63{fill:url(#SVGID_25_);}
	.st64{fill:url(#SVGID_26_);}
	.st65{fill:url(#SVGID_27_);}
	.st66{fill:url(#SVGID_28_);}
	.st67{fill:url(#SVGID_29_);}
	.st68{fill:url(#SVGID_30_);}
	.st69{fill:url(#SVGID_31_);}
	.st70{fill:url(#SVGID_32_);}
	.st71{fill:url(#SVGID_33_);}
	.st72{fill:url(#SVGID_34_);}
	.st73{fill:url(#SVGID_35_);}
	.st74{fill:url(#SVGID_36_);}
	.st75{fill:url(#SVGID_37_);}
	.st76{fill:url(#SVGID_38_);}
	.st77{fill:url(#SVGID_39_);}
	.st78{fill:url(#SVGID_40_);}
	.st79{fill:#C6B6B0;}
	.st80{fill:#606060;}
	.st81{fill:#D5137F;}
	.st82{fill:#2C2C2C;}
	.st83{fill:none;stroke:#FFFFFF;}
	.st84{opacity:0.8;}
	.st85{opacity:0.75;}
	.st86{fill:#E97EBD;}
	.st87{fill:#5F3484;}
	.st88{fill:#A17FB8;}
	.st89{fill:#8C63A4;}
	.st90{fill:#754992;}
	.st91{fill:#532979;}
	.st92{fill:#341B4A;}
	.st93{fill:#2A0A1D;}
	.st94{fill:#63093B;}
	.st95{fill:#460A2B;}
	.st96{fill:#EAE9E8;}
	.st97{fill:#D3D3D3;}
	.st98{fill:#A8A8A7;}
	.st99{fill:#C31C78;}
	.st100{fill:#1B1B1B;}
	.st101{fill:#272727;}
	.st102{fill:#040405;}
	.st103{fill:#5B5B5B;}
	.st104{fill:#3A3A3A;}
	.st105{fill:#161615;}
	.st106{fill:#E28567;}
	.st107{fill:#513081;}
	.st108{fill:#30302F;}
	.st109{fill:#442261;}
	.st110{clip-path:url(#SVGID_42_);}
	.st111{fill:none;stroke:#1A1A1A;stroke-miterlimit:10;}
	.st112{fill:none;stroke:#9F9F9F;stroke-miterlimit:10;}
	.st113{fill:#E5E5E5;}
	.st114{fill:none;stroke:#B9B5B6;}
	.st115{fill:#FFFDFF;}
	.st116{clip-path:url(#SVGID_44_);}
	.st117{clip-path:url(#SVGID_46_);}
	.st118{clip-path:url(#SVGID_48_);}
	.st119{clip-path:url(#SVGID_50_);}
	.st120{clip-path:url(#SVGID_52_);}
	.st121{clip-path:url(#SVGID_54_);}
	.st122{clip-path:url(#SVGID_56_);}
	.st123{clip-path:url(#SVGID_58_);}
	.st124{clip-path:url(#SVGID_60_);}
	.st125{clip-path:url(#SVGID_62_);}
	.st126{clip-path:url(#SVGID_64_);}
	.st127{clip-path:url(#SVGID_66_);}
	.st128{clip-path:url(#SVGID_68_);}
	.st129{fill-rule:evenodd;clip-rule:evenodd;fill:#D2D2D2;}
	.st130{clip-path:url(#SVGID_70_);}
	.st131{clip-path:url(#SVGID_72_);}
	.st132{clip-path:url(#SVGID_74_);}
	.st133{clip-path:url(#SVGID_76_);}
	.st134{clip-path:url(#SVGID_78_);}
	.st135{clip-path:url(#SVGID_80_);}
	.st136{clip-path:url(#SVGID_82_);}
	.st137{clip-path:url(#SVGID_84_);}
	.st138{clip-path:url(#SVGID_86_);}
	.st139{clip-path:url(#SVGID_88_);}
	.st140{clip-path:url(#SVGID_90_);}
	.st141{clip-path:url(#SVGID_92_);}
	.st142{clip-path:url(#SVGID_94_);}
	.st143{clip-path:url(#SVGID_96_);}
	.st144{clip-path:url(#SVGID_98_);}
	.st145{clip-path:url(#SVGID_100_);}
	.st146{clip-path:url(#SVGID_102_);}
	.st147{clip-path:url(#SVGID_104_);}
	.st148{clip-path:url(#SVGID_106_);}
	.st149{fill:#48487C;}
	.st150{fill:#A19CC1;}
	.st151{fill:none;stroke:#48487C;stroke-width:5;}
	.st152{fill:#E6007E;}
	.st153{fill:#A5005D;}
	.st154{fill:#620038;}
	.st155{fill:#232324;}
	.st156{fill:#4A494A;}
	.st157{fill:#CCCACA;}
	.st158{fill:#E660A7;}
	.st159{fill:#222224;}
	.st160{fill:#6E6E6E;}
	.st161{fill:#D10E7F;}
	.st162{fill:#ACD3D7;}
	.st163{fill:#3F99A0;}
	.st164{fill:#C6E1E3;}
	.st165{fill:#BC0A72;}
	.st166{fill:#CAC8C7;}
	.st167{fill:#E391BD;}
	.st168{fill:#DAC7E2;}
	.st169{fill:#B6B5B5;}
	.st170{opacity:0.6;}
</style>
<rect id="Rectángulo_16277" x="21.1" y="72.1" class="st3" width="396.8" height="72.3"/>
<path id="Trazado_8400" class="st14" d="M21.2,25H418v47.1H21.2V25z"/>
<line id="Línea_2207" class="st111" x1="21.2" y1="72" x2="418" y2="72"/>
<line id="Línea_2208" class="st111" x1="65.7" y1="25" x2="65.7" y2="144.4"/>
<path id="Trazado_8401" class="st83" d="M196.9,25v47"/>
<path id="Trazado_8402" class="st83" d="M65.9,25v47"/>
<line id="Línea_2210" class="st112" x1="21.2" y1="102.6" x2="418" y2="102.6"/>
<g id="Grupo_7236" transform="translate(17.006 91.145)">
	<path id="Trazado_8301" d="M29.1,35.7h-7.7v-1.3l3.8-4.2c0.4-0.5,0.8-1,1.2-1.5c0.2-0.4,0.3-0.8,0.4-1.2c0-0.5-0.1-1-0.5-1.3
		c-0.3-0.3-0.8-0.5-1.2-0.5c-0.5,0-1.1,0.2-1.4,0.6c-0.4,0.4-0.5,1-0.5,1.6h-1.9c0-0.7,0.2-1.3,0.5-1.9c0.3-0.6,0.8-1,1.4-1.3
		c0.6-0.3,1.3-0.5,2-0.5c1-0.1,1.9,0.2,2.6,0.8c0.7,0.6,1,1.4,1,2.3c0,0.6-0.2,1.2-0.5,1.8c-0.4,0.8-1,1.5-1.6,2.1l-2.8,3h5.3
		L29.1,35.7z"/>
</g>
<g id="Grupo_7237" transform="translate(19.043 58.186)">
	<path id="Trazado_8302" d="M25.9,35.5H24v-9.2l-2.8,1v-1.6l4.5-1.6h0.2L25.9,35.5z"/>
</g>
<g id="Grupo_7238" transform="translate(54.417 57.594)">
	<path id="Trazado_8303" d="M21.1,39.2V24.8h4.2c1.2,0,2.3,0.3,3.4,0.8c1,0.6,1.8,1.4,2.3,2.4c0.6,1.1,0.8,2.3,0.8,3.6v0.7
		c0,1.2-0.3,2.5-0.8,3.6c-0.5,1-1.3,1.8-2.3,2.4c-1.1,0.6-2.2,0.9-3.4,0.8H21.1z M23.6,26.8v10.4h1.6c1.1,0.1,2.2-0.4,3-1.2
		c0.8-1,1.1-2.3,1.1-3.5v-0.8c0.1-1.3-0.3-2.5-1-3.6c-0.7-0.8-1.8-1.3-2.9-1.2L23.6,26.8z"/>
	<path id="Trazado_8304" d="M34.1,25.7c0-0.3,0.1-0.7,0.4-0.9c0.3-0.3,0.6-0.4,1-0.4c0.4,0,0.7,0.1,1,0.4c0.2,0.2,0.4,0.6,0.4,0.9
		c0,0.3-0.1,0.7-0.4,0.9c-0.3,0.3-0.6,0.4-1,0.4c-0.4,0-0.7-0.1-1-0.4C34.2,26.4,34.1,26.1,34.1,25.7z M36.6,39.2h-2.4V28.5h2.4
		V39.2z"/>
	<path id="Trazado_8305" d="M48.6,33.9c0.1,1.4-0.3,2.8-1.1,4c-0.7,1-1.8,1.5-3,1.5c-1.1,0-2.1-0.4-2.8-1.2v5.1h-2.4V28.5h2.2
		l0.1,1.1c0.7-0.9,1.8-1.3,2.9-1.3c1.2,0,2.3,0.5,3.1,1.5c0.8,1.2,1.2,2.6,1.1,4L48.6,33.9z M46.2,33.7c0-0.9-0.2-1.8-0.6-2.5
		c-0.4-0.6-1.1-1-1.8-0.9c-0.9-0.1-1.7,0.4-2.1,1.2v4.7c0.4,0.8,1.2,1.3,2.1,1.2c0.7,0,1.4-0.3,1.8-0.9
		C46.1,35.7,46.3,34.7,46.2,33.7z"/>
	<path id="Trazado_8306" d="M57.1,38.1c-0.8,0.9-1.9,1.3-3,1.2c-1,0.1-1.9-0.3-2.6-1c-0.6-0.8-1-1.9-0.9-2.9v-6.9H53v6.9
		c0,1.4,0.6,2,1.7,2c1,0.1,1.9-0.4,2.4-1.3v-7.7h2.4v10.7h-2.3L57.1,38.1z"/>
	<path id="Trazado_8307" d="M64.9,25.9v2.6h1.9v1.8h-1.9v6c0,0.3,0.1,0.6,0.2,0.9c0.2,0.2,0.6,0.3,0.9,0.3c0.3,0,0.6,0,0.8-0.1v1.9
		c-0.5,0.1-1,0.2-1.6,0.2c-1.8,0-2.8-1-2.8-3v-6h-1.8v-1.8h1.8v-2.6L64.9,25.9z"/>
	<path id="Trazado_8308" d="M75,39.2c-0.1-0.3-0.2-0.7-0.3-1c-0.7,0.8-1.7,1.2-2.8,1.2c-1,0-1.9-0.3-2.6-0.9c-0.7-0.6-1-1.4-1-2.3
		c-0.1-1,0.4-2,1.3-2.6c1.1-0.7,2.4-1,3.6-0.9h1.5v-0.7c0-0.5-0.1-1-0.5-1.3c-0.4-0.4-0.9-0.5-1.4-0.5c-0.5,0-1,0.1-1.3,0.4
		c-0.3,0.2-0.5,0.6-0.5,1h-2.4c0-0.6,0.2-1.2,0.6-1.6c0.4-0.5,1-0.9,1.6-1.2c0.7-0.3,1.5-0.4,2.2-0.4c1.1-0.1,2.1,0.3,3,0.9
		c0.8,0.7,1.2,1.6,1.1,2.6v4.8c0,0.8,0.1,1.6,0.4,2.3v0.2L75,39.2z M72.3,37.4c0.5,0,0.9-0.1,1.3-0.3c0.4-0.2,0.7-0.5,0.9-0.9v-2
		h-1.3c-0.7,0-1.4,0.1-2,0.5c-0.4,0.3-0.7,0.8-0.7,1.3c0,0.4,0.1,0.8,0.5,1.1C71.4,37.3,71.9,37.5,72.3,37.4z"/>
	<path id="Trazado_8309" d="M83.9,37.5c0.5,0,1.1-0.2,1.5-0.5c0.4-0.3,0.6-0.8,0.6-1.3h2.3c0,0.7-0.2,1.3-0.6,1.9
		c-0.4,0.6-0.9,1.1-1.6,1.4c-0.7,0.3-1.4,0.5-2.2,0.5c-1.3,0.1-2.6-0.5-3.6-1.5c-0.9-1.1-1.4-2.6-1.3-4v-0.2
		c-0.1-1.4,0.4-2.8,1.3-3.9c0.9-1,2.2-1.5,3.6-1.5c1.1,0,2.2,0.4,3.1,1.1c0.8,0.8,1.3,1.8,1.3,2.9H86c0-0.6-0.2-1.1-0.6-1.5
		c-0.4-0.4-0.9-0.6-1.5-0.6c-0.7,0-1.4,0.3-1.8,0.8c-0.5,0.8-0.7,1.7-0.6,2.6V34c-0.1,0.9,0.2,1.8,0.6,2.6
		C82.5,37.2,83.2,37.5,83.9,37.5z"/>
	<path id="Trazado_8310" d="M90.1,25.7c0-0.3,0.1-0.7,0.4-0.9c0.3-0.3,0.6-0.4,1-0.4c0.4,0,0.7,0.1,1,0.4c0.2,0.2,0.4,0.6,0.4,0.9
		c0,0.3-0.1,0.7-0.4,0.9c-0.3,0.3-0.6,0.4-1,0.4c-0.4,0-0.7-0.1-1-0.4C90.2,26.4,90.1,26.1,90.1,25.7z M92.6,39.2h-2.4V28.5h2.4
		V39.2z"/>
	<path id="Trazado_8311" d="M94.8,33.7c0-1,0.2-1.9,0.6-2.8c0.4-0.8,1-1.5,1.7-1.9c0.8-0.5,1.7-0.7,2.6-0.7c1.3-0.1,2.6,0.5,3.5,1.4
		c0.9,1,1.4,2.3,1.5,3.7l0,0.6c0,1-0.2,1.9-0.6,2.8c-0.4,0.8-1,1.5-1.7,1.9c-0.8,0.5-1.7,0.7-2.6,0.7c-1.4,0.1-2.7-0.5-3.6-1.5
		c-0.9-1.1-1.4-2.5-1.4-4L94.8,33.7z M97.2,33.9c-0.1,0.9,0.2,1.8,0.7,2.6c0.4,0.6,1.1,1,1.9,0.9c0.8,0,1.5-0.3,1.9-0.9
		c0.5-0.8,0.7-1.8,0.7-2.8c0-0.9-0.2-1.8-0.7-2.6c-0.4-0.6-1.1-1-1.9-0.9c-0.7,0-1.4,0.3-1.9,0.9C97.4,32,97.1,33,97.2,33.9
		L97.2,33.9z"/>
	<path id="Trazado_8312" d="M109,28.5l0.1,1.2c0.8-0.9,1.9-1.5,3.1-1.4c2.2,0,3.4,1.3,3.4,3.8v7.1h-2.4v-6.9c0-0.5-0.1-1.1-0.4-1.5
		c-0.4-0.4-0.9-0.5-1.4-0.5c-0.9,0-1.8,0.5-2.2,1.3v7.6h-2.4V28.5H109z"/>
	<path id="Trazado_8313" d="M122.7,39.4c-1.4,0.1-2.7-0.5-3.7-1.4c-1-1-1.5-2.4-1.4-3.8v-0.3c0-1,0.2-2,0.6-2.9c0.4-0.8,1-1.5,1.7-2
		c0.7-0.5,1.6-0.7,2.5-0.7c1.3-0.1,2.5,0.4,3.4,1.4c0.9,1.1,1.3,2.5,1.2,3.9v1h-7c0,0.8,0.3,1.5,0.9,2.1c0.5,0.5,1.2,0.8,1.9,0.8
		c1.1,0,2.1-0.5,2.7-1.3l1.3,1.2c-0.4,0.6-1,1.2-1.7,1.5C124.3,39.2,123.5,39.4,122.7,39.4z M122.4,30.2c-0.6,0-1.2,0.2-1.6,0.7
		c-0.4,0.6-0.7,1.2-0.8,1.9h4.6v-0.2c0-0.7-0.2-1.3-0.6-1.8C123.5,30.4,123,30.2,122.4,30.2L122.4,30.2z"/>
	<path id="Trazado_8314" d="M134.8,36.3c0-0.4-0.2-0.8-0.5-1c-0.5-0.3-1.1-0.5-1.8-0.6c-0.7-0.1-1.4-0.4-2-0.7
		c-1.1-0.4-1.8-1.4-1.8-2.5c0-0.9,0.4-1.8,1.2-2.3c0.8-0.6,1.9-1,3-0.9c1.1-0.1,2.2,0.3,3.1,0.9c0.8,0.6,1.2,1.5,1.2,2.5h-2.4
		c0-0.4-0.2-0.9-0.5-1.1c-0.4-0.3-0.9-0.5-1.4-0.5c-0.5,0-0.9,0.1-1.3,0.4c-0.3,0.2-0.5,0.6-0.5,1c0,0.3,0.2,0.7,0.5,0.9
		c0.6,0.3,1.2,0.5,1.9,0.6c0.8,0.1,1.5,0.4,2.2,0.7c0.5,0.2,0.9,0.6,1.2,1c0.3,0.4,0.4,0.9,0.4,1.5c0,0.9-0.4,1.8-1.2,2.3
		c-0.9,0.6-2,0.9-3.1,0.9c-0.8,0-1.6-0.1-2.3-0.5c-0.6-0.3-1.2-0.7-1.6-1.3c-0.4-0.5-0.6-1.1-0.6-1.8h2.3c0,0.5,0.2,1,0.6,1.3
		c0.5,0.3,1,0.5,1.6,0.5c0.5,0,1-0.1,1.4-0.4C134.6,37,134.8,36.7,134.8,36.3z"/>
	<path id="Trazado_8315" d="M152.8,33.1H147v6.1h-2.5V24.8h9.1v2H147v4.3h5.8L152.8,33.1z"/>
	<path id="Trazado_8316" d="M160.1,39.4c-1.4,0.1-2.7-0.5-3.7-1.4c-1-1-1.5-2.4-1.4-3.8v-0.3c0-1,0.2-2,0.6-2.9c0.4-0.8,1-1.5,1.7-2
		c0.7-0.5,1.6-0.7,2.5-0.7c1.3-0.1,2.5,0.4,3.4,1.4c0.9,1.1,1.3,2.5,1.2,3.9v1h-7c0,0.8,0.3,1.5,0.9,2.1c0.5,0.5,1.2,0.8,1.9,0.8
		c1.1,0,2.1-0.5,2.7-1.3l1.3,1.2c-0.4,0.6-1,1.2-1.7,1.5C161.7,39.2,160.9,39.4,160.1,39.4z M159.8,30.2c-0.6,0-1.2,0.2-1.6,0.7
		c-0.4,0.6-0.7,1.2-0.8,1.9h4.6v-0.2c0-0.7-0.2-1.3-0.6-1.8C160.9,30.4,160.4,30.2,159.8,30.2z"/>
	<path id="Trazado_8317" d="M165.8,33.8c-0.1-1.4,0.3-2.8,1.1-4c0.7-1,1.9-1.5,3.1-1.5c1,0,2.1,0.4,2.7,1.2V24h2.4v15.2h-2.2
		l-0.1-1.1c-0.7,0.9-1.8,1.3-2.9,1.3c-1.2,0-2.3-0.5-3-1.5C166.1,36.7,165.7,35.2,165.8,33.8z M168.2,34c-0.1,0.9,0.2,1.8,0.6,2.5
		c0.4,0.6,1.1,0.9,1.8,0.9c0.9,0,1.8-0.5,2.2-1.3v-4.6c-0.4-0.8-1.2-1.3-2.1-1.3c-0.7,0-1.4,0.3-1.8,0.9C168.3,32,168.1,33,168.2,34
		L168.2,34z"/>
	<path id="Trazado_8318" d="M182.3,39.4c-1.4,0.1-2.7-0.5-3.7-1.4c-1-1-1.5-2.4-1.4-3.8v-0.3c0-1,0.2-2,0.6-2.9c0.4-0.8,1-1.5,1.7-2
		c0.7-0.5,1.6-0.7,2.5-0.7c1.3-0.1,2.5,0.4,3.4,1.4c0.9,1.1,1.3,2.5,1.2,3.9v1h-7c0,0.8,0.3,1.5,0.9,2.1c0.5,0.5,1.2,0.8,1.9,0.8
		c1.1,0,2.1-0.5,2.7-1.3l1.3,1.2c-0.4,0.6-1,1.2-1.7,1.5C184,39.2,183.1,39.4,182.3,39.4z M182,30.2c-0.6,0-1.2,0.2-1.6,0.7
		c-0.4,0.6-0.7,1.2-0.8,1.9h4.6v-0.2c0-0.7-0.2-1.3-0.6-1.8C183.2,30.4,182.6,30.2,182,30.2z"/>
	<path id="Trazado_8319" d="M194,30.7c-0.3-0.1-0.6-0.1-1-0.1c-0.9-0.1-1.8,0.4-2.2,1.3v7.3h-2.4V28.5h2.3l0.1,1.2
		c0.5-0.9,1.4-1.4,2.4-1.4c0.3,0,0.6,0,0.8,0.1L194,30.7z"/>
	<path id="Trazado_8320" d="M201.6,39.2c-0.1-0.3-0.2-0.7-0.3-1c-0.7,0.8-1.7,1.2-2.8,1.2c-1,0-1.9-0.3-2.6-0.9
		c-0.7-0.6-1-1.4-1-2.3c-0.1-1,0.4-2,1.3-2.6c1.1-0.7,2.4-1,3.6-0.9h1.5v-0.7c0-0.5-0.1-1-0.5-1.3c-0.4-0.4-0.9-0.5-1.4-0.5
		c-0.5,0-1,0.1-1.3,0.4c-0.3,0.2-0.5,0.6-0.5,1h-2.4c0-0.6,0.2-1.2,0.6-1.6c0.4-0.5,1-0.9,1.6-1.2c0.7-0.3,1.5-0.4,2.2-0.4
		c1.1-0.1,2.1,0.3,3,0.9c0.8,0.7,1.2,1.6,1.1,2.6v4.8c0,0.8,0.1,1.6,0.4,2.3v0.2L201.6,39.2z M199,37.4c0.5,0,0.9-0.1,1.3-0.3
		c0.4-0.2,0.7-0.5,0.9-0.9v-2H200c-0.7,0-1.4,0.1-2,0.5c-0.4,0.3-0.7,0.8-0.7,1.3c0,0.4,0.1,0.8,0.5,1.1
		C198.1,37.3,198.6,37.5,199,37.4z"/>
	<path id="Trazado_8321" d="M208.7,39.2h-2.4V24h2.4V39.2z"/>
	<path id="Trazado_8322" d="M216,39.4c-1.4,0.1-2.7-0.5-3.7-1.4c-1-1-1.5-2.4-1.4-3.8v-0.3c0-1,0.2-2,0.6-2.9c0.4-0.8,1-1.5,1.7-2
		c0.7-0.5,1.6-0.7,2.5-0.7c1.3-0.1,2.5,0.4,3.4,1.4c0.9,1.1,1.3,2.5,1.2,3.9v1h-7c0,0.8,0.3,1.5,0.9,2.1c0.5,0.5,1.2,0.8,1.9,0.8
		c1.1,0,2.1-0.5,2.7-1.3l1.3,1.2c-0.4,0.6-1,1.2-1.7,1.5C217.7,39.2,216.9,39.4,216,39.4z M215.8,30.2c-0.6,0-1.2,0.2-1.6,0.7
		c-0.4,0.6-0.7,1.2-0.8,1.9h4.6v-0.2c0-0.7-0.2-1.3-0.6-1.8C216.9,30.4,216.3,30.2,215.8,30.2L215.8,30.2z"/>
	<path id="Trazado_8323" d="M228.2,36.3c0-0.4-0.2-0.8-0.5-1c-0.5-0.3-1.1-0.5-1.8-0.6c-0.7-0.1-1.4-0.4-2-0.7
		c-1.1-0.4-1.8-1.4-1.8-2.5c0-0.9,0.4-1.8,1.2-2.3c0.8-0.6,1.9-1,3-0.9c1.1-0.1,2.2,0.3,3.1,0.9c0.8,0.6,1.2,1.5,1.2,2.5H228
		c0-0.4-0.2-0.9-0.5-1.1c-0.4-0.3-0.9-0.5-1.4-0.5c-0.5,0-0.9,0.1-1.3,0.4c-0.3,0.2-0.5,0.6-0.5,1c0,0.3,0.2,0.7,0.5,0.9
		c0.6,0.3,1.2,0.5,1.9,0.6c0.8,0.1,1.5,0.4,2.2,0.7c0.5,0.2,0.9,0.6,1.2,1c0.3,0.4,0.4,0.9,0.4,1.5c0,0.9-0.4,1.8-1.2,2.3
		c-0.9,0.6-2,0.9-3.1,0.9c-0.8,0-1.6-0.1-2.3-0.5c-0.6-0.3-1.2-0.7-1.6-1.3c-0.4-0.5-0.6-1.1-0.6-1.8h2.3c0,0.5,0.2,1,0.6,1.3
		c0.5,0.3,1,0.5,1.6,0.5c0.5,0,1-0.1,1.4-0.4C228,37,228.2,36.7,228.2,36.3z"/>
</g>
<g id="Grupo_7239" transform="translate(53.967 87.395)">
	<path id="Trazado_8324" d="M30.5,34.1c0.1,1.6-0.3,3.3-1.2,4.7c-0.8,1.1-2.2,1.7-3.5,1.6c-1.3,0.1-2.7-0.5-3.5-1.5
		c-0.9-1.3-1.3-2.9-1.2-4.5v-2.5c-0.1-1.6,0.3-3.3,1.2-4.6c0.9-1.1,2.2-1.6,3.5-1.5c1.3-0.1,2.7,0.5,3.5,1.5
		c0.9,1.3,1.3,2.9,1.2,4.5L30.5,34.1z M28.1,31.4c0.1-1-0.1-2-0.6-3c-0.4-0.6-1-1-1.8-0.9c-0.7,0-1.4,0.3-1.7,0.9
		c-0.4,0.9-0.6,1.8-0.6,2.8v3.3c-0.1,1,0.1,2.1,0.6,3c0.3,0.6,1,1,1.8,1c0.7,0,1.4-0.3,1.7-0.9c0.4-0.9,0.6-1.9,0.6-2.9L28.1,31.4z"
		/>
	<path id="Trazado_8325" d="M42.2,27.1l-5.7,13H34l5.7-12.4h-7.4v-1.9h10L42.2,27.1z"/>
	<path id="Trazado_8326" d="M45,41.3h-1.9l5.7-15.6h1.9L45,41.3z"/>
	<path id="Trazado_8327" d="M61.5,34.1c0.1,1.6-0.3,3.3-1.2,4.7c-0.8,1.1-2.2,1.7-3.5,1.6c-1.3,0.1-2.7-0.5-3.5-1.5
		c-0.9-1.3-1.3-2.9-1.2-4.5v-2.5c-0.1-1.6,0.3-3.3,1.2-4.6c0.9-1.1,2.2-1.6,3.5-1.5c1.3-0.1,2.7,0.5,3.5,1.5
		c0.9,1.3,1.3,2.9,1.2,4.5V34.1z M59.1,31.4c0.1-1-0.1-2-0.6-3c-0.4-0.6-1-1-1.8-0.9c-0.7,0-1.4,0.3-1.7,0.9
		c-0.4,0.9-0.6,1.8-0.6,2.8v3.3c-0.1,1,0.1,2.1,0.6,3c0.3,0.6,1,1,1.8,1c0.7,0,1.4-0.3,1.7-0.9c0.4-0.9,0.6-1.9,0.6-2.9L59.1,31.4z"
		/>
	<path id="Trazado_8328" d="M71.1,25.7v2h-0.3c-1.2,0-2.3,0.4-3.2,1.1c-0.8,0.8-1.4,1.9-1.4,3c0.8-0.8,1.8-1.2,2.9-1.2
		c1.2,0,2.3,0.4,3,1.3c0.8,1,1.2,2.2,1.1,3.5c0.1,1.3-0.4,2.6-1.3,3.5c-0.9,0.9-2.1,1.4-3.4,1.4c-1.3,0-2.6-0.5-3.5-1.6
		c-0.9-1.2-1.4-2.7-1.3-4.2v-0.8c-0.1-2.1,0.5-4.2,1.8-5.9c1.3-1.5,3.3-2.3,5.3-2.1L71.1,25.7z M68.5,32.5c-0.5,0-1,0.2-1.4,0.4
		c-0.4,0.3-0.8,0.7-1,1.2v0.7c0,0.9,0.2,1.8,0.7,2.5c0.4,0.6,1,0.9,1.7,0.9c0.7,0,1.3-0.3,1.7-0.8c0.4-0.6,0.7-1.4,0.6-2.1
		c0-0.8-0.2-1.5-0.6-2.1C69.8,32.8,69.2,32.5,68.5,32.5L68.5,32.5z"/>
	<path id="Trazado_8329" d="M75.9,41.3H74l5.7-15.6h1.9L75.9,41.3z"/>
	<path id="Trazado_8330" d="M92.7,40.1h-9.7v-1.6l4.8-5.2c0.6-0.6,1-1.2,1.5-1.9c0.3-0.5,0.4-1,0.4-1.6c0-0.6-0.2-1.2-0.6-1.7
		c-0.4-0.4-1-0.7-1.6-0.6c-0.7,0-1.3,0.2-1.8,0.7c-0.5,0.5-0.7,1.2-0.6,1.9h-2.4c0-0.8,0.2-1.6,0.6-2.4c0.4-0.7,1-1.3,1.7-1.6
		c0.8-0.4,1.7-0.6,2.6-0.6c1.2-0.1,2.4,0.3,3.3,1c0.8,0.7,1.3,1.8,1.2,2.9c0,0.8-0.2,1.6-0.6,2.3c-0.5,1-1.2,1.9-2,2.7l-3.5,3.8h6.7
		L92.7,40.1z"/>
	<path id="Trazado_8331" d="M103.9,34.1c0.1,1.6-0.3,3.3-1.2,4.7c-0.8,1.1-2.2,1.7-3.5,1.6c-1.3,0.1-2.7-0.5-3.5-1.5
		c-0.9-1.3-1.3-2.9-1.2-4.5v-2.5c-0.1-1.6,0.3-3.3,1.2-4.6c0.9-1.1,2.2-1.6,3.5-1.5c1.3-0.1,2.7,0.5,3.5,1.5
		c0.9,1.3,1.3,2.9,1.2,4.5V34.1z M101.5,31.4c0.1-1-0.1-2-0.6-3c-0.4-0.6-1-1-1.8-0.9c-0.7,0-1.4,0.3-1.7,0.9
		c-0.4,0.9-0.6,1.8-0.6,2.8v3.3c-0.1,1,0.1,2.1,0.6,3c0.3,0.6,1,1,1.8,1c0.7,0,1.4-0.3,1.7-0.9c0.4-0.9,0.6-1.9,0.6-2.9V31.4z"/>
	<path id="Trazado_8332" d="M115.7,40.1H106v-1.6l4.8-5.2c0.6-0.6,1.1-1.2,1.5-1.9c0.3-0.5,0.4-1,0.4-1.6c0-0.6-0.2-1.2-0.6-1.7
		c-0.4-0.4-1-0.7-1.6-0.6c-0.7,0-1.3,0.2-1.8,0.7c-0.5,0.5-0.7,1.2-0.6,1.9h-2.4c0-0.8,0.2-1.6,0.6-2.4c0.4-0.7,1-1.3,1.7-1.6
		c0.8-0.4,1.7-0.6,2.6-0.6c1.2-0.1,2.4,0.3,3.3,1c0.8,0.7,1.3,1.8,1.2,2.9c0,0.8-0.2,1.6-0.6,2.3c-0.5,1-1.2,1.9-2,2.7l-3.5,3.8h6.7
		L115.7,40.1z"/>
	<path id="Trazado_8333" d="M124,40.1h-2.4V28.6l-3.5,1.2v-2l5.6-2.1h0.3L124,40.1z"/>
	<path id="Trazado_8334" d="M158.8,40.1h-9.7v-1.6l4.8-5.2c0.6-0.6,1.1-1.2,1.5-1.9c0.3-0.5,0.4-1,0.4-1.6c0-0.6-0.2-1.2-0.6-1.7
		c-0.4-0.4-1-0.7-1.6-0.6c-0.7,0-1.3,0.2-1.8,0.7c-0.5,0.5-0.7,1.2-0.6,1.9h-2.4c0-0.8,0.2-1.6,0.6-2.4c0.4-0.7,1-1.3,1.7-1.6
		c0.8-0.4,1.7-0.6,2.6-0.6c1.2-0.1,2.4,0.3,3.3,1c0.8,0.7,1.3,1.8,1.2,2.9c0,0.8-0.2,1.6-0.6,2.3c-0.5,1-1.2,1.9-2,2.7l-3.5,3.8h6.7
		L158.8,40.1z"/>
	<path id="Trazado_8335" d="M167.1,40.1h-2.4V28.6l-3.5,1.2v-2l5.6-2.1h0.3L167.1,40.1z"/>
	<path id="Trazado_8336" d="M173.7,29.2c0.4,0,0.8,0.1,1,0.4c0.2,0.3,0.4,0.6,0.4,1c0,0.3-0.1,0.7-0.4,0.9c-0.3,0.3-0.7,0.4-1,0.4
		c-0.4,0-0.7-0.1-1-0.4c-0.3-0.2-0.4-0.6-0.4-0.9c0-0.4,0.1-0.7,0.4-1C172.9,29.3,173.3,29.2,173.7,29.2z M173.7,37.6
		c0.4,0,0.8,0.1,1,0.4c0.2,0.3,0.4,0.6,0.4,1c0,0.3-0.1,0.7-0.4,0.9c-0.3,0.3-0.7,0.4-1,0.4c-0.4,0-0.7-0.1-1-0.4
		c-0.3-0.2-0.4-0.6-0.4-0.9c0-0.4,0.1-0.7,0.4-1C172.9,37.7,173.3,37.6,173.7,37.6z"/>
	<path id="Trazado_8337" d="M186.8,34.1c0.1,1.6-0.3,3.3-1.2,4.7c-0.8,1.1-2.2,1.7-3.5,1.6c-1.3,0.1-2.7-0.5-3.5-1.5
		c-0.9-1.3-1.3-2.9-1.2-4.5v-2.5c-0.1-1.6,0.3-3.3,1.2-4.6c0.9-1.1,2.2-1.6,3.5-1.5c1.3-0.1,2.7,0.5,3.5,1.5
		c0.9,1.3,1.3,2.9,1.2,4.5L186.8,34.1z M184.4,31.4c0.1-1-0.1-2-0.6-3c-0.4-0.6-1-1-1.8-0.9c-0.7,0-1.4,0.3-1.7,0.9
		c-0.4,0.9-0.6,1.8-0.6,2.8v3.3c-0.1,1,0.1,2.1,0.6,3c0.3,0.6,1,1,1.8,1c0.7,0,1.4-0.3,1.7-0.9c0.4-0.9,0.6-1.9,0.6-2.9L184.4,31.4z
		"/>
	<path id="Trazado_8338" d="M198.3,34.1c0.1,1.6-0.3,3.3-1.2,4.7c-0.8,1.1-2.2,1.7-3.5,1.6c-1.3,0.1-2.7-0.5-3.5-1.5
		c-0.9-1.3-1.3-2.9-1.2-4.5v-2.5c-0.1-1.6,0.3-3.3,1.2-4.6c0.9-1.1,2.2-1.6,3.5-1.5c1.3-0.1,2.7,0.5,3.5,1.5
		c0.9,1.3,1.3,2.9,1.2,4.5L198.3,34.1z M195.9,31.4c0.1-1-0.1-2-0.6-3c-0.4-0.6-1-1-1.8-0.9c-0.7,0-1.4,0.3-1.7,0.9
		c-0.4,0.9-0.6,1.8-0.6,2.8v3.3c-0.1,1,0.1,2.1,0.6,3c0.3,0.6,1,1,1.8,1c0.7,0,1.4-0.3,1.7-0.9c0.4-0.9,0.6-1.9,0.6-2.9L195.9,31.4z
		"/>
	<path id="Trazado_8339" d="M205.6,34.3c0-1.5,0.2-2.9,0.6-4.3c0.4-1.3,1-2.6,1.8-3.7c0.6-0.9,1.5-1.7,2.5-2.3l0.5,1.4
		c-1,0.8-1.8,2-2.3,3.2c-0.6,1.6-0.9,3.3-0.9,5l0,0.8c0,1.8,0.3,3.6,0.8,5.3c0.4,1.4,1.3,2.6,2.4,3.6l-0.5,1.3
		c-1-0.5-1.9-1.3-2.5-2.3c-0.8-1.1-1.4-2.3-1.8-3.7C205.8,37.3,205.6,35.8,205.6,34.3z"/>
	<path id="Trazado_8340" d="M223.4,25.7v9.6c0.1,1.4-0.5,2.7-1.5,3.6c-1.1,0.9-2.5,1.4-3.9,1.3c-1.4,0.1-2.8-0.4-3.9-1.3
		c-1-0.9-1.5-2.3-1.4-3.7v-9.6h2.5v9.6c-0.1,0.8,0.2,1.6,0.7,2.2c0.6,0.5,1.4,0.8,2.1,0.8c1.9,0,2.9-1,2.9-3v-9.5L223.4,25.7z"/>
	<path id="Trazado_8341" d="M236.4,27.8h-4.5v12.3h-2.5V27.8H225v-2h11.4V27.8z"/>
	<path id="Trazado_8342" d="M249.3,35.4c-0.1,1.4-0.7,2.7-1.7,3.6c-1.1,0.9-2.5,1.4-3.9,1.3c-1.1,0-2.1-0.3-3-0.8
		c-0.9-0.6-1.6-1.4-2-2.3c-0.5-1.1-0.7-2.3-0.7-3.5v-1.3c0-1.2,0.2-2.5,0.7-3.6c0.4-1,1.2-1.8,2.1-2.4c0.9-0.6,2-0.9,3.1-0.8
		c1.4-0.1,2.8,0.4,3.8,1.3c1,1,1.6,2.3,1.7,3.6h-2.5c0-0.8-0.3-1.6-0.9-2.2c-0.6-0.5-1.4-0.7-2.1-0.7c-1,0-1.9,0.4-2.5,1.2
		c-0.7,1-1,2.3-0.9,3.5v1.3c-0.1,1.2,0.2,2.5,0.8,3.6c0.5,0.8,1.5,1.3,2.4,1.2c0.8,0.1,1.6-0.2,2.2-0.7c0.6-0.6,0.9-1.4,0.9-2.2
		H249.3z"/>
	<path id="Trazado_8343" d="M255.9,35h-5.2V33h5.2V35z"/>
	<path id="Trazado_8344" d="M258.4,33l0.8-7.2h7.7v2.1h-5.7l-0.4,3.4c0.7-0.4,1.5-0.6,2.2-0.6c1.2-0.1,2.4,0.4,3.2,1.3
		c0.8,1,1.2,2.3,1.1,3.5c0.1,1.3-0.4,2.5-1.3,3.5c-0.9,0.9-2.2,1.4-3.5,1.3c-1.2,0-2.4-0.4-3.3-1.1c-0.9-0.7-1.4-1.8-1.4-3h2.3
		c0,0.6,0.3,1.2,0.8,1.6c0.4,0.4,1,0.6,1.6,0.6c0.7,0,1.3-0.3,1.7-0.8c0.4-0.6,0.7-1.4,0.6-2.2c0-0.8-0.2-1.5-0.7-2.1
		c-0.5-0.5-1.2-0.8-1.9-0.8c-0.4,0-0.7,0-1.1,0.2c-0.4,0.2-0.7,0.4-1,0.7L258.4,33z"/>
	<path id="Trazado_8345" d="M274,34.4c0,1.4-0.2,2.9-0.6,4.2c-0.4,1.3-1,2.6-1.8,3.7c-0.7,1-1.5,1.8-2.6,2.3l-0.5-1.3
		c1.1-0.9,1.9-2.1,2.3-3.5c0.6-1.7,0.9-3.5,0.9-5.4v-0.2c0-1.7-0.2-3.4-0.8-5c-0.4-1.4-1.2-2.6-2.1-3.6l-0.3-0.3L269,24
		c1,0.5,1.8,1.3,2.4,2.2c0.8,1.1,1.4,2.2,1.8,3.5c0.4,1.3,0.7,2.6,0.7,4L274,34.4z"/>
</g>
<g id="Grupo_7240" transform="translate(105.052 25.281)">
	<path id="Trazado_8346" class="st3" d="M30.5,35h-5.6l-1.2,3.3h-2.6L26.6,24h2.2l5.4,14.4h-2.6L30.5,35z M25.6,33h4.2l-2.1-6
		L25.6,33z"/>
</g>
<g id="Grupo_7241" transform="translate(279.207 25.281)">
	<path id="Trazado_8347" class="st3" d="M21.1,38.4V24h4.9c1.3-0.1,2.6,0.3,3.7,1c0.9,0.7,1.3,1.8,1.3,2.9c0,0.6-0.2,1.3-0.5,1.8
		c-0.4,0.6-0.9,1-1.6,1.2c0.7,0.2,1.4,0.6,1.8,1.2c0.4,0.6,0.7,1.3,0.6,2.1c0.1,1.2-0.4,2.3-1.3,3.1c-1.1,0.8-2.4,1.2-3.7,1.1
		L21.1,38.4z M23.6,30.1h2.4c0.6,0,1.3-0.1,1.8-0.5c0.4-0.4,0.7-0.9,0.7-1.5c0.1-0.6-0.2-1.2-0.6-1.5c-0.6-0.4-1.2-0.5-1.9-0.5h-2.4
		L23.6,30.1z M23.6,31.9v4.5h2.8c0.7,0,1.3-0.2,1.8-0.6c0.5-0.4,0.7-1,0.7-1.6c0.1-1.1-0.7-2.1-1.8-2.3c-0.2,0-0.3,0-0.5,0
		L23.6,31.9z"/>
</g>
<path id="Trazado_8348" class="st3" d="M39.7,67.3l20.4-18.9v18.9H39.7z"/>
<line id="Línea_2211" class="st112" x1="21.1" y1="134.7" x2="418" y2="134.7"/>
<line id="Línea_2212" class="st111" x1="411.6" y1="25" x2="411.6" y2="144.4"/>
<path id="Trazado_8403" class="st83" d="M411.9,24v47"/>
</svg>
