<?xml version="1.0" encoding="utf-8"?>
<!-- Generator: Adobe Illustrator 25.0.0, SVG Export Plug-In . SVG Version: 6.00 Build 0)  -->
<svg version="1.0" id="Capa_1" xmlns="http://www.w3.org/2000/svg" xmlns:xlink="http://www.w3.org/1999/xlink" x="0px" y="0px"
	 viewBox="0 0 1424 454" style="enable-background:new 0 0 1424 454;" xml:space="preserve">
<style type="text/css">
	.st0{fill:#D2127E;}
	.st1{fill:none;stroke:#FFFFFF;stroke-width:4;}
	.st2{fill:#83044C;}
	.st3{fill:#FFFFFF;}
	.st4{fill:#C4006E;}
	.st5{fill:#DDDDDD;}
	.st6{fill:none;stroke:#D2127E;stroke-width:4;}
	.st7{fill-rule:evenodd;clip-rule:evenodd;fill:#FFFFFF;}
	.st8{fill:none;stroke:#D2127E;}
	.st9{fill:#D8D8D8;}
	.st10{fill:#79134C;}
	.st11{fill:#D971A9;}
	.st12{fill:#D3097F;}
	.st13{fill:#FFF8F8;}
	.st14{fill:#34344E;}
	.st15{fill:none;stroke:#34344E;stroke-width:2;}
	.st16{fill:#333333;}
	.st17{fill:none;stroke:#707070;}
	.st18{fill:none;}
	.st19{fill:none;stroke:#000000;stroke-width:2;}
	.st20{fill:#D31480;}
	.st21{clip-path:url(#SVGID_2_);}
	.st22{fill:#1D1D1B;}
	.st23{fill:#E7987B;}
	.st24{fill:#EDECEC;}
	.st25{fill:#F5A979;}
	.st26{fill:#26595D;}
	.st27{fill:#444343;}
	.st28{fill:#DADADA;}
	.st29{fill:#DE8B72;}
	.st30{fill:#3F3F3E;}
	.st31{opacity:0.35;}
	.st32{clip-path:url(#SVGID_4_);}
	.st33{clip-path:url(#SVGID_6_);}
	.st34{fill:#5DA7AD;}
	.st35{fill:#2F6E74;}
	.st36{fill:#388389;}
	.st37{fill:#122C2E;}
	.st38{opacity:0.2;}
	.st39{clip-path:url(#SVGID_8_);}
	.st40{fill:#D1308A;}
	.st41{opacity:0.36;fill:#D2127E;enable-background:new    ;}
	.st42{opacity:0.6;fill:#D2127E;enable-background:new    ;}
	.st43{clip-path:url(#SVGID_10_);}
	.st44{fill:#79687B;}
	.st45{clip-path:url(#SVGID_12_);}
	.st46{fill:#B60F6E;}
	.st47{fill:#DFDFDF;}
	.st48{fill:none;stroke:#B32066;stroke-miterlimit:10;}
	.st49{fill:none;stroke:#ED841E;stroke-miterlimit:10;}
	.st50{clip-path:url(#SVGID_14_);}
	.st51{opacity:0.63;}
	.st52{opacity:0.53;fill:none;stroke:#FFFFFF;stroke-miterlimit:10;}
	.st53{opacity:0.53;fill:#FFFFFF;}
	.st54{opacity:0.5;}
	.st55{fill:url(#SVGID_17_);}
	.st56{fill:url(#SVGID_18_);}
	.st57{fill:url(#SVGID_19_);}
	.st58{fill:url(#SVGID_20_);}
	.st59{fill:url(#SVGID_21_);}
	.st60{fill:url(#SVGID_22_);}
	.st61{fill:url(#SVGID_23_);}
	.st62{fill:url(#SVGID_24_);}
	.st63{fill:url(#SVGID_25_);}
	.st64{fill:url(#SVGID_26_);}
	.st65{fill:url(#SVGID_27_);}
	.st66{fill:url(#SVGID_28_);}
	.st67{fill:url(#SVGID_29_);}
	.st68{fill:url(#SVGID_30_);}
	.st69{fill:url(#SVGID_31_);}
	.st70{fill:url(#SVGID_32_);}
	.st71{fill:url(#SVGID_33_);}
	.st72{fill:url(#SVGID_34_);}
	.st73{fill:url(#SVGID_35_);}
	.st74{fill:url(#SVGID_36_);}
	.st75{fill:url(#SVGID_37_);}
	.st76{fill:url(#SVGID_38_);}
	.st77{fill:url(#SVGID_39_);}
	.st78{fill:url(#SVGID_40_);}
	.st79{fill:#C6B6B0;}
	.st80{fill:#606060;}
	.st81{fill:#D5137F;}
	.st82{fill:#2C2C2C;}
	.st83{fill:none;stroke:#FFFFFF;}
	.st84{opacity:0.8;}
	.st85{opacity:0.75;}
	.st86{fill:#E97EBD;}
	.st87{fill:#5F3484;}
	.st88{fill:#A17FB8;}
	.st89{fill:#8C63A4;}
	.st90{fill:#754992;}
	.st91{fill:#532979;}
	.st92{fill:#341B4A;}
	.st93{fill:#2A0A1D;}
	.st94{fill:#63093B;}
	.st95{fill:#460A2B;}
	.st96{fill:#EAE9E8;}
	.st97{fill:#D3D3D3;}
	.st98{fill:#A8A8A7;}
	.st99{fill:#C31C78;}
	.st100{fill:#1B1B1B;}
	.st101{fill:#272727;}
	.st102{fill:#040405;}
	.st103{fill:#5B5B5B;}
	.st104{fill:#3A3A3A;}
	.st105{fill:#161615;}
	.st106{fill:#E28567;}
	.st107{fill:#513081;}
	.st108{fill:#30302F;}
	.st109{fill:#442261;}
	.st110{clip-path:url(#SVGID_42_);}
	.st111{fill:none;stroke:#1A1A1A;stroke-miterlimit:10;}
	.st112{fill:none;stroke:#9F9F9F;stroke-miterlimit:10;}
	.st113{fill:#E5E5E5;}
	.st114{fill:none;stroke:#B9B5B6;}
	.st115{fill:#FFFDFF;}
	.st116{clip-path:url(#SVGID_44_);}
	.st117{clip-path:url(#SVGID_46_);}
	.st118{clip-path:url(#SVGID_48_);}
	.st119{clip-path:url(#SVGID_50_);}
	.st120{clip-path:url(#SVGID_52_);}
	.st121{clip-path:url(#SVGID_54_);}
	.st122{clip-path:url(#SVGID_56_);}
	.st123{clip-path:url(#SVGID_58_);}
	.st124{clip-path:url(#SVGID_60_);}
	.st125{clip-path:url(#SVGID_62_);}
	.st126{clip-path:url(#SVGID_64_);}
	.st127{clip-path:url(#SVGID_66_);}
	.st128{clip-path:url(#SVGID_68_);}
	.st129{fill-rule:evenodd;clip-rule:evenodd;fill:#D2D2D2;}
	.st130{clip-path:url(#SVGID_70_);}
	.st131{clip-path:url(#SVGID_72_);}
	.st132{clip-path:url(#SVGID_74_);}
	.st133{clip-path:url(#SVGID_76_);}
	.st134{clip-path:url(#SVGID_78_);}
	.st135{clip-path:url(#SVGID_80_);}
	.st136{clip-path:url(#SVGID_82_);}
	.st137{clip-path:url(#SVGID_84_);}
	.st138{clip-path:url(#SVGID_86_);}
	.st139{clip-path:url(#SVGID_88_);}
	.st140{clip-path:url(#SVGID_90_);}
	.st141{clip-path:url(#SVGID_92_);}
	.st142{clip-path:url(#SVGID_94_);}
	.st143{clip-path:url(#SVGID_96_);}
	.st144{clip-path:url(#SVGID_98_);}
	.st145{clip-path:url(#SVGID_100_);}
	.st146{clip-path:url(#SVGID_102_);}
	.st147{clip-path:url(#SVGID_104_);}
	.st148{clip-path:url(#SVGID_106_);}
	.st149{fill:#48487C;}
	.st150{fill:#A19CC1;}
	.st151{fill:none;stroke:#48487C;stroke-width:5;}
	.st152{fill:#E6007E;}
	.st153{fill:#A5005D;}
	.st154{fill:#620038;}
	.st155{fill:#232324;}
	.st156{fill:#4A494A;}
	.st157{fill:#CCCACA;}
	.st158{fill:#E660A7;}
	.st159{fill:#222224;}
	.st160{fill:#6E6E6E;}
	.st161{fill:#D10E7F;}
	.st162{fill:#ACD3D7;}
	.st163{fill:#3F99A0;}
	.st164{fill:#C6E1E3;}
	.st165{fill:#BC0A72;}
	.st166{fill:#CAC8C7;}
	.st167{fill:#E391BD;}
	.st168{fill:#DAC7E2;}
	.st169{fill:#B6B5B5;}
	.st170{opacity:0.6;}
	.st171{fill:#FFFDFF;stroke:#EDE9EA;}
	.st172{fill:#E5E5E5;stroke:#B9B5B6;}
</style>
<path id="Trazado_8387" class="st151" d="M171,403h871.2v-60.1h283.4v-79.9"/>
<g id="Grupo_6450" transform="translate(1151.74)">
	<rect id="Rectángulo_15345" x="29.1" y="25.3" class="st152" width="90.5" height="229.1"/>
	<g id="Grupo_6443" transform="translate(2.719 4.789)">
		<path id="Trazado_5311" class="st3" d="M114.1,225h-85V25.3h85V225z M30.2,223.8h82.7V26.5H30.2V223.8z"/>
	</g>
	<g id="Grupo_6444" transform="translate(11.838 12.761)">
		<path id="Rectángulo_15346" class="st153" d="M37,26h53c4.4,0,7.9,3.6,7.9,7.9v0c0,4.4-3.6,7.9-7.9,7.9H37
			c-4.4,0-7.9-3.6-7.9-7.9v0C29.1,29.6,32.6,26,37,26z"/>
		<rect id="Rectángulo_15347" x="29.1" y="25.3" class="st154" width="68.9" height="5.5"/>
	</g>
	<g id="Grupo_6445" transform="translate(11.838 32.63)">
		<path id="Rectángulo_15348" class="st153" d="M37,26h53c4.4,0,7.9,3.6,7.9,7.9v0c0,4.4-3.6,7.9-7.9,7.9H37
			c-4.4,0-7.9-3.6-7.9-7.9v0C29.1,29.6,32.6,26,37,26z"/>
		<rect id="Rectángulo_15349" x="29.1" y="25.3" class="st154" width="68.9" height="5.5"/>
	</g>
	<g id="Grupo_6446" transform="translate(11.838 52.292)">
		<path id="Rectángulo_15350" class="st153" d="M37,26h53c4.4,0,7.9,3.6,7.9,7.9v0c0,4.4-3.6,7.9-7.9,7.9H37
			c-4.4,0-7.9-3.6-7.9-7.9v0C29.1,29.6,32.6,26,37,26z"/>
		<rect id="Rectángulo_15351" x="29.1" y="25.3" class="st154" width="68.9" height="5.5"/>
	</g>
	<g id="Grupo_6447" transform="translate(11.838 72.782)">
		<path id="Rectángulo_15352" class="st153" d="M37,26h53c4.4,0,7.9,3.6,7.9,7.9v0c0,4.4-3.6,7.9-7.9,7.9H37
			c-4.4,0-7.9-3.6-7.9-7.9v0C29.1,29.6,32.6,26,37,26z"/>
		<rect id="Rectángulo_15353" x="29.1" y="25.3" class="st154" width="68.9" height="5.5"/>
	</g>
	<g id="Grupo_6448" transform="translate(11.838 92.651)">
		<path id="Rectángulo_15354" class="st153" d="M37,26h53c4.4,0,7.9,3.6,7.9,7.9v0c0,4.4-3.6,7.9-7.9,7.9H37
			c-4.4,0-7.9-3.6-7.9-7.9v0C29.1,29.6,32.6,26,37,26z"/>
		<rect id="Rectángulo_15355" x="29.1" y="25.3" class="st154" width="68.9" height="5.5"/>
	</g>
	<g id="Grupo_6449" transform="translate(11.838 112.52)">
		<path id="Rectángulo_15356" class="st153" d="M37,26h53c4.4,0,7.9,3.6,7.9,7.9v0c0,4.4-3.6,7.9-7.9,7.9H37
			c-4.4,0-7.9-3.6-7.9-7.9v0C29.1,29.6,32.6,26,37,26z"/>
		<rect id="Rectángulo_15357" x="29.1" y="25.3" class="st154" width="68.9" height="5.5"/>
	</g>
	<circle id="Elipse_604" class="st154" cx="71.8" cy="176.2" r="11.7"/>
	<circle id="Elipse_605" class="st152" cx="71.8" cy="176.2" r="5.5"/>
	<circle id="Elipse_606" class="st154" cx="71.8" cy="202.1" r="7.7"/>
	<circle id="Elipse_607" class="st152" cx="71.8" cy="202.1" r="3.6"/>
</g>
<g id="Grupo_6458" transform="translate(1281.303)">
	<rect id="Rectángulo_15358" x="29.1" y="25.3" class="st152" width="90.5" height="229.1"/>
	<g id="Grupo_6451" transform="translate(2.719 4.789)">
		<path id="Trazado_5312" class="st3" d="M114.1,225h-85V25.3h85V225z M30.2,223.8h82.7V26.5H30.2V223.8z"/>
	</g>
	<g id="Grupo_6452" transform="translate(11.838 12.761)">
		<path id="Rectángulo_15359" class="st153" d="M37,26h53c4.4,0,7.9,3.6,7.9,7.9v0c0,4.4-3.6,7.9-7.9,7.9H37
			c-4.4,0-7.9-3.6-7.9-7.9v0C29.1,29.6,32.6,26,37,26z"/>
		<rect id="Rectángulo_15360" x="29.1" y="25.3" class="st154" width="68.9" height="5.5"/>
	</g>
	<g id="Grupo_6453" transform="translate(11.838 32.63)">
		<path id="Rectángulo_15361" class="st153" d="M37,26h53c4.4,0,7.9,3.6,7.9,7.9v0c0,4.4-3.6,7.9-7.9,7.9H37
			c-4.4,0-7.9-3.6-7.9-7.9v0C29.1,29.6,32.6,26,37,26z"/>
		<rect id="Rectángulo_15362" x="29.1" y="25.3" class="st154" width="68.9" height="5.5"/>
	</g>
	<g id="Grupo_6454" transform="translate(11.838 52.292)">
		<path id="Rectángulo_15363" class="st153" d="M37,26h53c4.4,0,7.9,3.6,7.9,7.9v0c0,4.4-3.6,7.9-7.9,7.9H37
			c-4.4,0-7.9-3.6-7.9-7.9v0C29.1,29.6,32.6,26,37,26z"/>
		<rect id="Rectángulo_15364" x="29.1" y="25.3" class="st154" width="68.9" height="5.5"/>
	</g>
	<g id="Grupo_6455" transform="translate(11.838 72.782)">
		<path id="Rectángulo_15365" class="st153" d="M37,26h53c4.4,0,7.9,3.6,7.9,7.9v0c0,4.4-3.6,7.9-7.9,7.9H37
			c-4.4,0-7.9-3.6-7.9-7.9v0C29.1,29.6,32.6,26,37,26z"/>
		<rect id="Rectángulo_15366" x="29.1" y="25.3" class="st154" width="68.9" height="5.5"/>
	</g>
	<g id="Grupo_6456" transform="translate(11.838 92.651)">
		<path id="Rectángulo_15367" class="st153" d="M37,26h53c4.4,0,7.9,3.6,7.9,7.9v0c0,4.4-3.6,7.9-7.9,7.9H37
			c-4.4,0-7.9-3.6-7.9-7.9v0C29.1,29.6,32.6,26,37,26z"/>
		<rect id="Rectángulo_15368" x="29.1" y="25.3" class="st154" width="68.9" height="5.5"/>
	</g>
	<g id="Grupo_6457" transform="translate(11.838 112.52)">
		<path id="Rectángulo_15369" class="st153" d="M37,26h53c4.4,0,7.9,3.6,7.9,7.9v0c0,4.4-3.6,7.9-7.9,7.9H37
			c-4.4,0-7.9-3.6-7.9-7.9v0C29.1,29.6,32.6,26,37,26z"/>
		<rect id="Rectángulo_15370" x="29.1" y="25.3" class="st154" width="68.9" height="5.5"/>
	</g>
	<circle id="Elipse_608" class="st154" cx="71.8" cy="176.2" r="11.7"/>
	<circle id="Elipse_609" class="st152" cx="71.8" cy="176.2" r="5.5"/>
	<circle id="Elipse_610" class="st154" cx="71.8" cy="202.1" r="7.7"/>
	<circle id="Elipse_611" class="st152" cx="71.8" cy="202.1" r="3.6"/>
</g>
<g id="Grupo_6502" transform="translate(0 185.828)">
	<g id="Grupo_6471" transform="translate(66.822 208.929)">
		<path id="Rectángulo_15378" class="st155" d="M34.7,25.3h125c3.1,0,5.6,2.5,5.6,5.6l0,0c0,3.1-2.5,5.6-5.6,5.6h-125
			c-3.1,0-5.6-2.5-5.6-5.6l0,0C29.1,27.8,31.6,25.3,34.7,25.3z"/>
	</g>
	<g id="Grupo_6472" transform="translate(118.949 167.777)">
		<rect id="Rectángulo_15379" x="29.1" y="25.3" class="st155" width="31.7" height="45.7"/>
	</g>
	<g id="Grupo_6473">
		<path id="Rectángulo_15380" class="st155" d="M37.1,25.3h253.9c4.4,0,8,3.6,8,8v154.8c0,4.4-3.6,8-8,8H37.1c-4.4,0-8-3.6-8-8
			V33.3C29.1,28.9,32.6,25.3,37.1,25.3z"/>
	</g>
	<g id="Grupo_6474" transform="translate(4.06 4.87)">
		<rect id="Rectángulo_15381" x="29.1" y="25.3" class="st152" width="261.7" height="154.1"/>
	</g>
	<g id="Grupo_6475" transform="translate(2.855 2.646)">
		<path id="Trazado_5324" class="st156" d="M293.2,182.5h-2.4V28.4c0-0.3-0.2-0.5-0.5-0.5H32c-0.3,0-0.5,0.3-0.5,0.5v153.4h-2.4
			V28.4c0-1.7,1.3-3,2.9-3.1h258.3c1.7,0,3,1.4,2.9,3.1L293.2,182.5z"/>
	</g>
	<g id="Grupo_6476" transform="translate(0 159.788)">
		<path id="Rectángulo_15382" class="st16" d="M29.1,25.3h269.9l0,0l0,0c0,6.1-4.9,11.1-11.1,11.1H40.1
			C34,36.4,29.1,31.4,29.1,25.3C29.1,25.3,29.1,25.3,29.1,25.3L29.1,25.3L29.1,25.3z"/>
	</g>
	<g id="Grupo_6484" transform="translate(20.03 29.843)">
		<g id="Grupo_6477">
			<rect id="Rectángulo_15383" x="29.1" y="25.3" class="st157" width="17.7" height="17.7"/>
		</g>
		<g id="Grupo_6478" transform="translate(26.545)">
			<rect id="Rectángulo_15384" x="29.1" y="25.3" class="st157" width="50.4" height="17.7"/>
		</g>
		<g id="Grupo_6479" transform="translate(85.781)">
			<rect id="Rectángulo_15385" x="29.1" y="25.3" class="st157" width="50.4" height="17.7"/>
		</g>
		<g id="Grupo_6483" transform="translate(155.094)">
			<g id="Grupo_6480">
				<rect id="Rectángulo_15386" x="29.1" y="25.3" class="st157" width="17.7" height="17.7"/>
			</g>
			<g id="Grupo_6481" transform="translate(26.791)">
				<rect id="Rectángulo_15387" x="29.1" y="25.3" class="st157" width="17.7" height="17.7"/>
			</g>
			<g id="Grupo_6482" transform="translate(53.828)">
				<rect id="Rectángulo_15388" x="29.1" y="25.3" class="st157" width="17.7" height="17.7"/>
			</g>
		</g>
	</g>
	<g id="Grupo_6492" transform="translate(20.03 110.28)">
		<g id="Grupo_6485">
			<rect id="Rectángulo_15389" x="29.1" y="25.3" class="st157" width="17.7" height="17.7"/>
		</g>
		<g id="Grupo_6486" transform="translate(26.545)">
			<rect id="Rectángulo_15390" x="29.1" y="25.3" class="st157" width="50.4" height="17.7"/>
		</g>
		<g id="Grupo_6487" transform="translate(85.781)">
			<rect id="Rectángulo_15391" x="29.1" y="25.3" class="st157" width="50.4" height="17.7"/>
		</g>
		<g id="Grupo_6491" transform="translate(155.094)">
			<g id="Grupo_6488">
				<rect id="Rectángulo_15392" x="29.1" y="25.3" class="st157" width="17.7" height="17.7"/>
			</g>
			<g id="Grupo_6489" transform="translate(26.791)">
				<rect id="Rectángulo_15393" x="29.1" y="25.3" class="st157" width="17.7" height="17.7"/>
			</g>
			<g id="Grupo_6490" transform="translate(53.828)">
				<rect id="Rectángulo_15394" x="29.1" y="25.3" class="st157" width="17.7" height="17.7"/>
			</g>
		</g>
	</g>
	<rect id="Rectángulo_15395" x="34.2" y="85.3" class="st158" width="259.3" height="37.8"/>
	<g id="Grupo_6501" transform="translate(20.03 63.201)">
		<g id="Grupo_6493" transform="translate(0 6.718)">
			<rect id="Rectángulo_15396" x="29.1" y="25.3" class="st159" width="17.7" height="17.7"/>
		</g>
		<g id="Grupo_6494" transform="translate(26.545 6.718)">
			<rect id="Rectángulo_15397" x="29.1" y="25.3" class="st159" width="50.4" height="17.7"/>
		</g>
		<g id="Grupo_6495" transform="translate(85.781 6.718)">
			<rect id="Rectángulo_15398" x="29.1" y="25.3" class="st159" width="50.4" height="17.7"/>
		</g>
		<g id="Grupo_6499" transform="translate(155.094 6.718)">
			<g id="Grupo_6496">
				<rect id="Rectángulo_15399" x="29.1" y="25.3" class="st159" width="17.7" height="17.7"/>
			</g>
			<g id="Grupo_6497" transform="translate(26.791)">
				<rect id="Rectángulo_15400" x="29.1" y="25.3" class="st159" width="17.7" height="17.7"/>
			</g>
			<g id="Grupo_6498" transform="translate(53.828)">
				<rect id="Rectángulo_15401" x="29.1" y="25.3" class="st159" width="17.7" height="17.7"/>
			</g>
		</g>
		<g id="Grupo_6500" transform="translate(147.885)">
			<path id="Trazado_5325" class="st3" d="M115,56.7H29.1V25.3H115V56.7z M30.7,55.1h82.7V27H30.7V55.1z"/>
		</g>
	</g>
</g>
</svg>
