<?xml version="1.0" encoding="utf-8"?>
<!-- Generator: Adobe Illustrator 25.0.1, SVG Export Plug-In . SVG Version: 6.00 Build 0)  -->
<svg version="1.1" id="Layer_1" xmlns="http://www.w3.org/2000/svg" xmlns:xlink="http://www.w3.org/1999/xlink" x="0px" y="0px"
	 viewBox="0 0 433.22 134.31" style="enable-background:new 0 0 433.22 134.31;" xml:space="preserve">
<style type="text/css">
	.st0{fill:#6B173B;}
	.st1{fill:#615D5C;}
</style>
<path class="st0" d="M129.38,68.22c-10.5,17.48-30.9,29.98-54.96,32.17c-0.07,0.01-0.13,0.02-0.2,0.02
	c-0.29,0.03-0.58,0.04-0.87,0.07c-0.27,0.02-0.55,0.03-0.82,0.05c-0.47,0.02-0.94,0.04-1.41,0.04c-17.07,0-30.92-13.76-31.08-30.79
	c0-0.1-0.01-0.19-0.01-0.29c0-17.17,13.92-31.08,31.08-31.08c2.31,0,4.56,0.26,6.72,0.74C82.81,31.52,86.49,23,88.6,13.87
	c-5.52-1.73-11.39-2.68-17.48-2.68c-32.19,0-58.29,26.1-58.29,58.29c0,1.87,0.09,3.72,0.27,5.55c0.17,1.77,0.42,3.52,0.74,5.24
	c5.06,27.04,28.77,47.51,57.28,47.51c32.19,0,58.29-26.1,58.29-58.29C129.41,69.06,129.39,68.64,129.38,68.22z"/>
<path class="st0" d="M96.4,4.51c0,30.35-21.89,55.33-50.03,58.63l32.32,30.85c27.62-3.81,48.94-28.53,48.94-58.48
	c0-1.1-0.03-2.19-0.09-3.27L96.39,4.13C96.39,4.25,96.4,4.38,96.4,4.51z"/>
<g>
	<path class="st1" d="M168.48,64.54h13.66V77.5c0,9.92-7.4,13.05-18.01,13.05c-10.88,0-19.23-3.13-19.23-12.96V37.82
		c0-9.83,8.35-12.96,19.23-12.96c10.61,0,18.01,3.13,18.01,13.05v11.66h-13.66V36.61c0-2.61-1.48-3.92-4.35-3.92
		s-4.35,1.31-4.35,3.92v42.2c0,2.61,1.48,3.92,4.35,3.92s4.35-1.31,4.35-3.92V64.54z"/>
	<path class="st1" d="M193.1,88.64V26.69h32.63v8.44h-17.84V50.7h17.31v8.18h-17.31v21.23h17.92v8.53H193.1z"/>
	<path class="st1" d="M236.77,88.64V26.69h32.63v8.44h-17.84V50.7h17.31v8.18h-17.31v21.23h17.92v8.53H236.77z"/>
	<path class="st1" d="M280.19,88.64V37.82c0-9.83,8.35-12.96,19.23-12.96c10.62,0,18.62,3.13,18.62,13.05V53.4
		c0,8.35-6.09,14.44-17.23,14.44c-1.74,0-3.65-0.17-5.74-0.52v21.32H280.19z M303.77,36.61c0-2.61-1.48-3.92-4.35-3.92
		c-2.87,0-4.35,1.31-4.35,3.92v23.14h3.13c2.96,0,5.57-1.83,5.57-5.48V36.61z"/>
	<path class="st1" d="M351.35,88.64V64.1h-8.7v24.54h-14.88V36.95c0-7.48,8.35-12.09,19.23-12.09c10.61,0,19.05,4.61,19.05,12.09
		v51.68H351.35z M351.35,36.61c0-2.61-1.48-3.92-4.35-3.92s-4.35,1.31-4.35,3.92v19.4h8.7V36.61z"/>
	<path class="st1" d="M400.86,64.54h13.66V77.5c0,9.92-7.4,13.05-18.01,13.05c-10.88,0-19.23-3.13-19.23-12.96V37.82
		c0-9.83,8.35-12.96,19.23-12.96c10.61,0,18.01,3.13,18.01,13.05v11.66h-13.66V36.61c0-2.61-1.48-3.92-4.35-3.92
		c-2.87,0-4.35,1.31-4.35,3.92v42.2c0,2.61,1.48,3.92,4.35,3.92c2.87,0,4.35-1.31,4.35-3.92V64.54z"/>
</g>
<rect x="143.29" y="94.4" class="st0" width="271.53" height="3.15"/>
<g>
	<path class="st1" d="M151.02,100.66v1.28c-0.36-0.18-0.66-0.27-0.9-0.27c-0.85,0-1.43,0.53-1.73,1.6c-0.17,0.6-0.25,1.46-0.25,2.58
		c0,2.7,0.68,4.05,2.04,4.05c0.3,0,0.58-0.07,0.84-0.21v1.24c-0.32,0.2-0.69,0.29-1.12,0.29c-2.16,0-3.25-1.76-3.25-5.27
		c0-3.74,1.05-5.61,3.15-5.61C150.26,100.35,150.67,100.45,151.02,100.66z"/>
	<path class="st1" d="M153.89,111.19c-1.49,0-2.23-1.21-2.23-3.64c0-2.45,0.74-3.68,2.23-3.68s2.23,1.23,2.23,3.68
		C156.12,109.98,155.38,111.19,153.89,111.19z M153.89,109.99c0.43,0,0.71-0.34,0.83-1.03c0.04-0.22,0.06-0.68,0.06-1.41
		c0-0.75-0.02-1.23-0.06-1.45c-0.12-0.68-0.4-1.03-0.83-1.03c-0.42,0-0.69,0.34-0.81,1.03c-0.05,0.27-0.07,0.75-0.07,1.45
		c0,0.67,0.02,1.13,0.07,1.41C153.2,109.64,153.47,109.99,153.89,109.99z"/>
	<path class="st1" d="M158.45,103.99v0.81c0.32-0.62,0.8-0.93,1.45-0.93c0.63,0,1.05,0.25,1.26,0.76c0.13,0.32,0.2,0.84,0.2,1.57
		v4.88h-1.32v-4.9c0-0.75-0.26-1.12-0.79-1.12c-0.37,0-0.62,0.19-0.73,0.58c-0.05,0.17-0.07,0.51-0.07,1.03v4.43h-1.32v-7.09H158.45
		z"/>
	<path class="st1" d="M165.27,104.18v1.25c-0.28-0.25-0.61-0.38-0.98-0.38c-0.24,0-0.45,0.07-0.63,0.2
		c-0.18,0.14-0.27,0.32-0.27,0.56c0.01,0.31,0.21,0.62,0.59,0.93c0.64,0.51,0.99,0.79,1.05,0.86c0.38,0.42,0.58,0.92,0.58,1.49
		c0,0.63-0.18,1.14-0.55,1.52s-0.86,0.58-1.49,0.58c-0.39,0-0.78-0.11-1.15-0.34v-1.29c0.37,0.3,0.74,0.45,1.1,0.45
		c0.59,0,0.88-0.3,0.88-0.9c0-0.3-0.21-0.65-0.63-1.04c-0.34-0.27-0.67-0.54-1.01-0.81c-0.38-0.4-0.58-0.88-0.58-1.45
		s0.18-1.03,0.53-1.39c0.35-0.37,0.81-0.55,1.37-0.55C164.52,103.87,164.92,103.98,165.27,104.18z"/>
	<path class="st1" d="M170.52,107.79h-2.92c0,1.48,0.28,2.22,0.83,2.22c0.55,0,0.83-0.44,0.83-1.32h1.22c0,0.72-0.16,1.3-0.48,1.74
		c-0.37,0.51-0.89,0.76-1.59,0.76c-0.88,0-1.49-0.41-1.83-1.24c-0.22-0.55-0.34-1.34-0.34-2.37c0-2.47,0.71-3.71,2.12-3.71
		c1.43,0,2.15,1.24,2.15,3.71V107.79z M167.6,106.85h1.57c0-1.2-0.27-1.8-0.8-1.8c-0.36,0-0.59,0.23-0.7,0.69
		C167.62,105.94,167.6,106.31,167.6,106.85z"/>
	<path class="st1" d="M172.19,102.72c-0.24,0-0.45-0.09-0.62-0.26s-0.26-0.38-0.26-0.62s0.09-0.45,0.26-0.62
		c0.17-0.17,0.38-0.25,0.62-0.25c0.23,0,0.44,0.09,0.61,0.27c0.17,0.18,0.26,0.38,0.26,0.62c0,0.24-0.08,0.45-0.25,0.62
		C172.64,102.64,172.44,102.72,172.19,102.72z M172.84,103.99v10h-1.32v-10H172.84z"/>
	<path class="st1" d="M176.08,111.19c-1.49,0-2.23-1.21-2.23-3.64c0-2.45,0.74-3.68,2.23-3.68s2.23,1.23,2.23,3.68
		C178.32,109.98,177.57,111.19,176.08,111.19z M176.08,109.99c0.43,0,0.71-0.34,0.83-1.03c0.04-0.22,0.06-0.68,0.06-1.41
		c0-0.75-0.02-1.23-0.06-1.45c-0.12-0.68-0.4-1.03-0.83-1.03c-0.42,0-0.69,0.34-0.81,1.03c-0.05,0.27-0.07,0.75-0.07,1.45
		c0,0.67,0.02,1.13,0.07,1.41C175.39,109.64,175.66,109.99,176.08,109.99z"/>
	<path class="st1" d="M182.45,100.49h3.78v1.21h-2.37v3.34h2.12v1.21h-2.12v3.62h2.37v1.21h-3.78V100.49z"/>
	<path class="st1" d="M189.77,104.18v1.25c-0.28-0.25-0.61-0.38-0.98-0.38c-0.24,0-0.45,0.07-0.63,0.2
		c-0.18,0.14-0.27,0.32-0.27,0.56c0.01,0.31,0.21,0.62,0.59,0.93c0.64,0.51,0.99,0.79,1.05,0.86c0.38,0.42,0.58,0.92,0.58,1.49
		c0,0.63-0.18,1.14-0.55,1.52s-0.86,0.58-1.49,0.58c-0.39,0-0.78-0.11-1.15-0.34v-1.29c0.37,0.3,0.74,0.45,1.1,0.45
		c0.59,0,0.88-0.3,0.88-0.9c0-0.3-0.21-0.65-0.63-1.04c-0.34-0.27-0.67-0.54-1.01-0.81c-0.38-0.4-0.58-0.88-0.58-1.45
		s0.18-1.03,0.53-1.39c0.35-0.37,0.81-0.55,1.37-0.55C189.02,103.87,189.42,103.98,189.77,104.18z"/>
	<path class="st1" d="M191.24,101.98h1.32v2.01h0.7v1.04h-0.7v6.05h-1.32v-6.05h-0.72v-1.04h0.72V101.98z"/>
	<path class="st1" d="M196.88,111.08v-0.91c-0.15,0.36-0.31,0.6-0.48,0.74c-0.21,0.19-0.49,0.28-0.84,0.28
		c-1.12,0-1.69-1.25-1.69-3.75c0-2.38,0.58-3.57,1.73-3.57c0.58,0,1,0.3,1.28,0.9v-0.79h1.32v7.09H196.88z M196.09,110.01
		c0.55,0,0.83-0.83,0.83-2.49c0-1.65-0.28-2.47-0.83-2.47c-0.42,0-0.69,0.34-0.8,1.03c-0.05,0.27-0.07,0.75-0.07,1.45
		c0,0.7,0.02,1.19,0.07,1.46C195.4,109.67,195.67,110.01,196.09,110.01z"/>
	<path class="st1" d="M199.68,101.98h1.32v2.01h0.7v1.04h-0.7v6.05h-1.32v-6.05h-0.72v-1.04h0.72V101.98z"/>
	<path class="st1" d="M205.32,111.08v-0.91c-0.15,0.36-0.31,0.6-0.48,0.74c-0.21,0.19-0.49,0.28-0.84,0.28
		c-1.12,0-1.69-1.25-1.69-3.75c0-2.38,0.58-3.57,1.73-3.57c0.58,0,1,0.3,1.28,0.9v-0.79h1.32v7.09H205.32z M204.53,110.01
		c0.55,0,0.83-0.83,0.83-2.49c0-1.65-0.28-2.47-0.83-2.47c-0.42,0-0.69,0.34-0.8,1.03c-0.05,0.27-0.07,0.75-0.07,1.45
		c0,0.7,0.02,1.19,0.07,1.46C203.84,109.67,204.11,110.01,204.53,110.01z"/>
	<path class="st1" d="M209.15,99.42v11.66h-1.32V99.42H209.15z"/>
	<path class="st1" d="M213.49,100.49h3.78v1.21h-2.37v3.34h2.12v1.21h-2.12v3.62h2.37v1.21h-3.78V100.49z"/>
	<path class="st1" d="M219.44,99.42v11.66h-1.32V99.42H219.44z"/>
	<path class="st1" d="M224.72,107.79h-2.92c0,1.48,0.28,2.22,0.83,2.22c0.55,0,0.83-0.44,0.83-1.32h1.22c0,0.72-0.16,1.3-0.48,1.74
		c-0.37,0.51-0.89,0.76-1.59,0.76c-0.88,0-1.49-0.41-1.83-1.24c-0.22-0.55-0.34-1.34-0.34-2.37c0-2.47,0.71-3.71,2.12-3.71
		c1.43,0,2.15,1.24,2.15,3.71V107.79z M221.8,106.85h1.57c0-1.2-0.27-1.8-0.8-1.8c-0.36,0-0.59,0.23-0.7,0.69
		C221.82,105.94,221.8,106.31,221.8,106.85z"/>
	<path class="st1" d="M228.68,104.11v1.33h-0.03c-0.15-0.23-0.36-0.34-0.62-0.34c-0.78,0-1.17,0.79-1.17,2.36
		c0,1.66,0.38,2.49,1.14,2.49c0.21,0,0.43-0.09,0.67-0.27v1.22c-0.32,0.19-0.67,0.28-1.07,0.28c-1.4,0-2.09-1.2-2.09-3.6
		c0-2.48,0.7-3.72,2.11-3.72C228,103.87,228.35,103.95,228.68,104.11z"/>
	<path class="st1" d="M229.92,101.98h1.32v2.01h0.7v1.04h-0.7v6.05h-1.32v-6.05h-0.72v-1.04h0.72V101.98z"/>
	<path class="st1" d="M234.76,111.19c-1.49,0-2.23-1.21-2.23-3.64c0-2.45,0.74-3.68,2.23-3.68s2.23,1.23,2.23,3.68
		C237,109.98,236.25,111.19,234.76,111.19z M234.76,109.99c0.43,0,0.71-0.34,0.83-1.03c0.04-0.22,0.06-0.68,0.06-1.41
		c0-0.75-0.02-1.23-0.06-1.45c-0.12-0.68-0.4-1.03-0.83-1.03c-0.42,0-0.69,0.34-0.81,1.03c-0.05,0.27-0.07,0.75-0.07,1.45
		c0,0.67,0.02,1.13,0.07,1.41C234.07,109.64,234.34,109.99,234.76,109.99z"/>
	<path class="st1" d="M239.33,103.99v0.87c0.33-0.66,0.84-0.98,1.53-0.98v1.31h-0.23c-0.87-0.06-1.3,0.42-1.3,1.44v4.46h-1.32v-7.09
		H239.33z"/>
	<path class="st1" d="M244.6,111.08v-0.91c-0.15,0.36-0.31,0.6-0.48,0.74c-0.21,0.19-0.49,0.28-0.84,0.28
		c-1.12,0-1.69-1.25-1.69-3.75c0-2.38,0.58-3.57,1.73-3.57c0.58,0,1,0.3,1.28,0.9v-0.79h1.32v7.09H244.6z M243.81,110.01
		c0.55,0,0.83-0.83,0.83-2.49c0-1.65-0.28-2.47-0.83-2.47c-0.42,0-0.69,0.34-0.8,1.03c-0.05,0.27-0.07,0.75-0.07,1.45
		c0,0.7,0.02,1.19,0.07,1.46C243.12,109.67,243.39,110.01,243.81,110.01z"/>
	<path class="st1" d="M248.43,99.42v11.66h-1.32V99.42H248.43z"/>
	<path class="st1" d="M251.99,103.99h1.48l1.04,4.94h0.03l1.19-4.94h1.33l-2.89,10h-1.39l1.1-3.48L251.99,103.99z"/>
	<path class="st1" d="M263.46,111.08v-0.91c-0.3,0.68-0.74,1.03-1.32,1.03c-1.12,0-1.69-1.25-1.69-3.75c0-2.38,0.58-3.57,1.73-3.57
		c0.55,0,0.97,0.3,1.28,0.9v-5.35h1.32v11.66H263.46z M262.68,110.01c0.55,0,0.83-0.83,0.83-2.49c0-1.65-0.28-2.47-0.83-2.47
		c-0.42,0-0.69,0.34-0.8,1.03c-0.05,0.27-0.07,0.75-0.07,1.45c0,0.7,0.02,1.19,0.07,1.46C261.99,109.67,262.25,110.01,262.68,110.01
		z"/>
	<path class="st1" d="M270.05,107.79h-2.92c0,1.48,0.28,2.22,0.83,2.22c0.55,0,0.83-0.44,0.83-1.32h1.22c0,0.72-0.16,1.3-0.48,1.74
		c-0.37,0.51-0.89,0.76-1.59,0.76c-0.88,0-1.49-0.41-1.83-1.24c-0.22-0.55-0.34-1.34-0.34-2.37c0-2.47,0.71-3.71,2.12-3.71
		c1.43,0,2.15,1.24,2.15,3.71V107.79z M267.13,106.85h1.57c0-1.2-0.27-1.8-0.8-1.8c-0.36,0-0.59,0.23-0.7,0.69
		C267.15,105.94,267.13,106.31,267.13,106.85z"/>
	<path class="st1" d="M275.59,111.08h-1.4v-10.59h1.69c0.83,0,1.44,0.13,1.83,0.39c0.62,0.42,0.93,1.24,0.93,2.44
		c0,1.1-0.23,1.89-0.7,2.38s-1.25,0.72-2.33,0.68V111.08z M275.78,101.7h-0.2v3.5c0.58,0.04,0.99-0.11,1.24-0.43
		c0.21-0.27,0.31-0.71,0.31-1.32C277.13,102.28,276.68,101.7,275.78,101.7z"/>
	<path class="st1" d="M282.2,111.08v-0.91c-0.15,0.36-0.31,0.6-0.48,0.74c-0.21,0.19-0.49,0.28-0.84,0.28
		c-1.13,0-1.69-1.25-1.69-3.75c0-2.38,0.58-3.57,1.73-3.57c0.58,0,1,0.3,1.28,0.9v-0.79h1.32v7.09H282.2z M281.42,110.01
		c0.55,0,0.83-0.83,0.83-2.49c0-1.65-0.28-2.47-0.83-2.47c-0.42,0-0.69,0.34-0.8,1.03c-0.05,0.27-0.07,0.75-0.07,1.45
		c0,0.7,0.02,1.19,0.07,1.46C280.73,109.67,280.99,110.01,281.42,110.01z"/>
	<path class="st1" d="M286.05,103.99v0.87c0.33-0.66,0.84-0.98,1.53-0.98v1.31h-0.23c-0.87-0.06-1.3,0.42-1.3,1.44v4.46h-1.32v-7.09
		H286.05z"/>
	<path class="st1" d="M288.79,101.98h1.32v2.01h0.7v1.04h-0.7v6.05h-1.32v-6.05h-0.72v-1.04h0.72V101.98z"/>
	<path class="st1" d="M292.28,102.72c-0.24,0-0.45-0.09-0.62-0.26c-0.17-0.17-0.26-0.38-0.26-0.62s0.09-0.45,0.26-0.62
		c0.17-0.17,0.38-0.25,0.62-0.25c0.23,0,0.44,0.09,0.61,0.26c0.17,0.17,0.26,0.38,0.26,0.61c0,0.24-0.08,0.45-0.25,0.62
		S292.52,102.72,292.28,102.72z M292.92,103.99v7.09h-1.32v-7.09H292.92z"/>
	<path class="st1" d="M297.09,104.11v1.33h-0.03c-0.15-0.23-0.36-0.34-0.62-0.34c-0.78,0-1.17,0.79-1.17,2.36
		c0,1.66,0.38,2.49,1.14,2.49c0.21,0,0.43-0.09,0.67-0.27v1.22c-0.32,0.19-0.67,0.28-1.07,0.28c-1.4,0-2.09-1.2-2.09-3.6
		c0-2.48,0.7-3.72,2.11-3.72C296.41,103.87,296.77,103.95,297.09,104.11z"/>
	<path class="st1" d="M298.71,102.72c-0.24,0-0.45-0.09-0.62-0.26c-0.17-0.17-0.26-0.38-0.26-0.62s0.09-0.45,0.26-0.62
		c0.17-0.17,0.38-0.25,0.62-0.25c0.23,0,0.44,0.09,0.61,0.26c0.17,0.17,0.26,0.38,0.26,0.61c0,0.24-0.08,0.45-0.25,0.62
		S298.95,102.72,298.71,102.72z M299.36,103.99v7.09h-1.32v-7.09H299.36z"/>
	<path class="st1" d="M301.88,103.99v0.91c0.29-0.68,0.73-1.03,1.32-1.03c1.12,0,1.69,1.25,1.69,3.74c0,2.39-0.58,3.58-1.73,3.58
		c-0.57,0-0.99-0.3-1.28-0.91v3.71h-1.32v-10H301.88z M302.67,110.01c0.37,0,0.61-0.27,0.75-0.8c0.08-0.34,0.13-0.89,0.13-1.67
		c0-0.69-0.02-1.18-0.07-1.46c-0.11-0.68-0.38-1.03-0.8-1.03c-0.55,0-0.83,0.83-0.83,2.49
		C301.84,109.19,302.12,110.01,302.67,110.01z"/>
	<path class="st1" d="M308.73,111.08v-0.91c-0.15,0.36-0.31,0.6-0.48,0.74c-0.21,0.19-0.49,0.28-0.84,0.28
		c-1.13,0-1.69-1.25-1.69-3.75c0-2.38,0.58-3.57,1.73-3.57c0.58,0,1,0.3,1.28,0.9v-0.79h1.32v7.09H308.73z M307.94,110.01
		c0.55,0,0.83-0.83,0.83-2.49c0-1.65-0.28-2.47-0.83-2.47c-0.42,0-0.69,0.34-0.8,1.03c-0.05,0.27-0.07,0.75-0.07,1.45
		c0,0.7,0.02,1.19,0.07,1.46C307.25,109.67,307.52,110.01,307.94,110.01z"/>
	<path class="st1" d="M314.2,104.11v1.33h-0.03c-0.15-0.23-0.36-0.34-0.62-0.34c-0.78,0-1.17,0.79-1.17,2.36
		c0,1.66,0.38,2.49,1.14,2.49c0.21,0,0.43-0.09,0.67-0.27v1.22c-0.32,0.19-0.67,0.28-1.07,0.28c-1.4,0-2.09-1.2-2.09-3.6
		c0-2.48,0.7-3.72,2.11-3.72C313.52,103.87,313.88,103.95,314.2,104.11z"/>
	<path class="st1" d="M315.82,102.72c-0.24,0-0.45-0.09-0.62-0.26c-0.17-0.17-0.26-0.38-0.26-0.62s0.09-0.45,0.26-0.62
		c0.17-0.17,0.38-0.25,0.62-0.25c0.23,0,0.44,0.09,0.61,0.26c0.17,0.17,0.26,0.38,0.26,0.61c0,0.24-0.08,0.45-0.25,0.62
		S316.06,102.72,315.82,102.72z M316.47,103.99v7.09h-1.32v-7.09H316.47z"/>
	<path class="st1" d="M319.71,111.19c-1.49,0-2.23-1.21-2.23-3.64c0-2.45,0.75-3.68,2.23-3.68c1.49,0,2.23,1.23,2.23,3.68
		C321.95,109.98,321.2,111.19,319.71,111.19z M320.76,101.21l-1.39,1.9l-0.7-0.41l1.15-2.09L320.76,101.21z M319.71,109.99
		c0.43,0,0.71-0.34,0.83-1.03c0.04-0.22,0.06-0.68,0.06-1.41c0-0.75-0.02-1.23-0.06-1.45c-0.12-0.68-0.4-1.03-0.83-1.03
		c-0.42,0-0.69,0.34-0.81,1.03c-0.05,0.27-0.07,0.75-0.07,1.45c0,0.67,0.02,1.13,0.07,1.41
		C319.02,109.64,319.29,109.99,319.71,109.99z"/>
	<path class="st1" d="M324.28,103.99v0.81c0.32-0.62,0.8-0.93,1.45-0.93c0.63,0,1.05,0.25,1.26,0.76c0.13,0.32,0.2,0.84,0.2,1.57
		v4.88h-1.32v-4.9c0-0.75-0.26-1.12-0.79-1.12c-0.38,0-0.62,0.19-0.73,0.58c-0.05,0.17-0.07,0.51-0.07,1.03v4.43h-1.32v-7.09H324.28
		z"/>
	<path class="st1" d="M335.63,100.66v1.28c-0.36-0.18-0.66-0.27-0.9-0.27c-0.85,0-1.43,0.53-1.73,1.6c-0.17,0.6-0.25,1.46-0.25,2.58
		c0,2.7,0.68,4.05,2.04,4.05c0.3,0,0.58-0.07,0.84-0.21v1.24c-0.32,0.2-0.69,0.29-1.12,0.29c-2.16,0-3.25-1.76-3.25-5.27
		c0-3.74,1.05-5.61,3.15-5.61C334.86,100.35,335.27,100.45,335.63,100.66z"/>
	<path class="st1" d="M337.13,102.72c-0.24,0-0.45-0.09-0.62-0.26c-0.17-0.17-0.26-0.38-0.26-0.62s0.09-0.45,0.26-0.62
		c0.17-0.17,0.38-0.25,0.62-0.25c0.23,0,0.44,0.09,0.61,0.26c0.17,0.17,0.26,0.38,0.26,0.61c0,0.24-0.08,0.45-0.25,0.62
		S337.37,102.72,337.13,102.72z M337.78,103.99v7.09h-1.32v-7.09H337.78z"/>
	<path class="st1" d="M339,103.99h1.32v4.44c0,0.52,0.02,0.85,0.07,1.01c0.1,0.37,0.35,0.55,0.75,0.55c0.38,0,0.63-0.17,0.73-0.51
		c0.04-0.13,0.06-0.46,0.06-0.98v-4.51h1.32v4.79c0,0.79-0.14,1.37-0.42,1.76c-0.33,0.44-0.87,0.66-1.63,0.66
		c-0.89,0-1.49-0.25-1.81-0.74c-0.25-0.39-0.38-1.04-0.38-1.95V103.99z"/>
	<path class="st1" d="M347.27,111.08v-0.91c-0.3,0.68-0.74,1.03-1.32,1.03c-1.13,0-1.69-1.25-1.69-3.75c0-2.38,0.58-3.57,1.73-3.57
		c0.55,0,0.97,0.3,1.28,0.9v-5.35h1.32v11.66H347.27z M346.49,110.01c0.55,0,0.83-0.83,0.83-2.49c0-1.65-0.28-2.47-0.83-2.47
		c-0.42,0-0.69,0.34-0.8,1.03c-0.05,0.27-0.07,0.75-0.07,1.45c0,0.7,0.02,1.19,0.07,1.46C345.8,109.67,346.07,110.01,346.49,110.01z
		"/>
	<path class="st1" d="M352.61,111.08v-0.91c-0.15,0.36-0.31,0.6-0.48,0.74c-0.21,0.19-0.49,0.28-0.84,0.28
		c-1.13,0-1.69-1.25-1.69-3.75c0-2.38,0.58-3.57,1.73-3.57c0.58,0,1,0.3,1.28,0.9v-0.79h1.32v7.09H352.61z M351.82,110.01
		c0.55,0,0.83-0.83,0.83-2.49c0-1.65-0.28-2.47-0.83-2.47c-0.42,0-0.69,0.34-0.8,1.03c-0.05,0.27-0.07,0.75-0.07,1.45
		c0,0.7,0.02,1.19,0.07,1.46C351.14,109.67,351.4,110.01,351.82,110.01z"/>
	<path class="st1" d="M357.95,111.08v-0.91c-0.3,0.68-0.74,1.03-1.32,1.03c-1.13,0-1.69-1.25-1.69-3.75c0-2.38,0.58-3.57,1.73-3.57
		c0.55,0,0.97,0.3,1.28,0.9v-5.35h1.32v11.66H357.95z M357.16,110.01c0.55,0,0.83-0.83,0.83-2.49c0-1.65-0.28-2.47-0.83-2.47
		c-0.42,0-0.69,0.34-0.8,1.03c-0.05,0.27-0.07,0.75-0.07,1.45c0,0.7,0.02,1.19,0.07,1.46C356.47,109.67,356.74,110.01,357.16,110.01
		z"/>
	<path class="st1" d="M363.29,111.08v-0.91c-0.15,0.36-0.31,0.6-0.48,0.74c-0.21,0.19-0.49,0.28-0.84,0.28
		c-1.13,0-1.69-1.25-1.69-3.75c0-2.38,0.58-3.57,1.73-3.57c0.58,0,1,0.3,1.28,0.9v-0.79h1.32v7.09H363.29z M362.5,110.01
		c0.55,0,0.83-0.83,0.83-2.49c0-1.65-0.28-2.47-0.83-2.47c-0.42,0-0.69,0.34-0.8,1.03c-0.05,0.27-0.07,0.75-0.07,1.45
		c0,0.7,0.02,1.19,0.07,1.46C361.81,109.67,362.08,110.01,362.5,110.01z"/>
	<path class="st1" d="M367.14,103.99v0.81c0.32-0.62,0.8-0.93,1.45-0.93c0.63,0,1.05,0.25,1.26,0.76c0.13,0.32,0.2,0.84,0.2,1.57
		v4.88h-1.32v-4.9c0-0.75-0.26-1.12-0.79-1.12c-0.38,0-0.62,0.19-0.73,0.58c-0.05,0.17-0.07,0.51-0.07,1.03v4.43h-1.32v-7.09H367.14
		z"/>
	<path class="st1" d="M374.08,111.08v-0.91c-0.15,0.36-0.31,0.6-0.48,0.74c-0.21,0.19-0.49,0.28-0.84,0.28
		c-1.13,0-1.69-1.25-1.69-3.75c0-2.38,0.58-3.57,1.73-3.57c0.58,0,1,0.3,1.28,0.9v-0.79h1.32v7.09H374.08z M373.29,110.01
		c0.55,0,0.83-0.83,0.83-2.49c0-1.65-0.28-2.47-0.83-2.47c-0.42,0-0.69,0.34-0.8,1.03c-0.05,0.27-0.07,0.75-0.07,1.45
		c0,0.7,0.02,1.19,0.07,1.46C372.6,109.67,372.87,110.01,373.29,110.01z"/>
	<path class="st1" d="M382.29,111.08v-0.91c-0.3,0.68-0.74,1.03-1.32,1.03c-1.13,0-1.69-1.25-1.69-3.75c0-2.38,0.58-3.57,1.73-3.57
		c0.55,0,0.97,0.3,1.28,0.9v-5.35h1.32v11.66H382.29z M381.51,110.01c0.55,0,0.83-0.83,0.83-2.49c0-1.65-0.28-2.47-0.83-2.47
		c-0.42,0-0.69,0.34-0.8,1.03c-0.05,0.27-0.07,0.75-0.07,1.45c0,0.7,0.02,1.19,0.07,1.46C380.82,109.67,381.09,110.01,381.51,110.01
		z"/>
	<path class="st1" d="M388.88,107.79h-2.92c0,1.48,0.28,2.22,0.83,2.22s0.83-0.44,0.83-1.32h1.22c0,0.72-0.16,1.3-0.48,1.74
		c-0.37,0.51-0.89,0.76-1.59,0.76c-0.88,0-1.49-0.41-1.83-1.24c-0.22-0.55-0.34-1.34-0.34-2.37c0-2.47,0.71-3.71,2.12-3.71
		c1.43,0,2.15,1.24,2.15,3.71V107.79z M385.96,106.85h1.57c0-1.2-0.27-1.8-0.8-1.8c-0.36,0-0.59,0.23-0.7,0.69
		C385.98,105.94,385.96,106.31,385.96,106.85z"/>
	<path class="st1" d="M396.3,100.7l-0.01,1.42c-0.41-0.3-0.81-0.45-1.19-0.45c-0.38,0-0.68,0.13-0.91,0.39s-0.34,0.59-0.34,0.97
		c0,0.48,0.13,0.86,0.39,1.15l1.07,1.17c0.55,0.6,0.92,1.06,1.1,1.39c0.27,0.5,0.41,1.07,0.41,1.71c0,0.77-0.22,1.41-0.66,1.94
		c-0.46,0.55-1.07,0.83-1.83,0.83c-0.61,0-1.12-0.17-1.54-0.51v-1.42c0.5,0.37,0.96,0.55,1.39,0.55c0.4,0,0.72-0.15,0.94-0.45
		c0.2-0.26,0.29-0.6,0.29-1.03c0-0.58-0.26-1.15-0.77-1.7c-0.21-0.22-0.68-0.7-1.42-1.46c-0.52-0.65-0.77-1.36-0.77-2.15
		c0-0.79,0.2-1.42,0.59-1.91c0.42-0.53,1.02-0.8,1.78-0.8C395.4,100.35,395.9,100.47,396.3,100.7z"/>
	<path class="st1" d="M398.58,111.19c-0.23,0-0.43-0.08-0.6-0.25c-0.16-0.17-0.25-0.37-0.25-0.6c0-0.23,0.08-0.43,0.25-0.59
		s0.36-0.24,0.6-0.24c0.23,0,0.43,0.08,0.6,0.24s0.25,0.36,0.25,0.59c0,0.23-0.08,0.44-0.25,0.6
		C399.01,111.11,398.81,111.19,398.58,111.19z"/>
	<path class="st1" d="M400.87,100.49h1.4v9.38h2.36v1.21h-3.76V100.49z"/>
	<path class="st1" d="M406.11,111.19c-0.23,0-0.43-0.08-0.6-0.25c-0.16-0.17-0.25-0.37-0.25-0.6c0-0.23,0.08-0.43,0.25-0.59
		s0.36-0.24,0.6-0.24c0.23,0,0.43,0.08,0.6,0.24s0.25,0.36,0.25,0.59c0,0.23-0.08,0.44-0.25,0.6
		C406.54,111.11,406.34,111.19,406.11,111.19z"/>
	<path class="st1" d="M409.8,111.08h-1.4v-10.59h1.69c0.83,0,1.44,0.13,1.83,0.39c0.62,0.42,0.93,1.24,0.93,2.44
		c0,1.1-0.23,1.89-0.7,2.38s-1.25,0.72-2.33,0.68V111.08z M410,101.7h-0.2v3.5c0.58,0.04,0.99-0.11,1.24-0.43
		c0.21-0.27,0.31-0.71,0.31-1.32C411.35,102.28,410.9,101.7,410,101.7z"/>
	<path class="st1" d="M414.44,111.19c-0.23,0-0.43-0.08-0.6-0.25c-0.16-0.17-0.25-0.37-0.25-0.6c0-0.23,0.08-0.43,0.25-0.59
		s0.36-0.24,0.6-0.24c0.23,0,0.43,0.08,0.6,0.24s0.25,0.36,0.25,0.59c0,0.23-0.08,0.44-0.25,0.6
		C414.87,111.11,414.67,111.19,414.44,111.19z"/>
</g>
</svg>
