<?xml version="1.0" encoding="utf-8"?>
<!-- Generator: Adobe Illustrator 25.0.1, SVG Export Plug-In . SVG Version: 6.00 Build 0)  -->
<svg version="1.1" id="Layer_1" xmlns="http://www.w3.org/2000/svg" xmlns:xlink="http://www.w3.org/1999/xlink" x="0px" y="0px"
	 viewBox="0 0 1581.9 438.6" style="enable-background:new 0 0 1581.9 438.6;" xml:space="preserve">
<style type="text/css">
	.st0{fill:#E2E2E2;}
	.st1{fill:#D8D8D8;}
	.st2{fill:#1D1D1D;}
</style>
<g id="Grupo_12068" transform="translate(-6441.947 -2048.988)">
	<g id="Grupo_12064" transform="translate(6958.281 2048.988)">
		<path id="Trazado_10636" class="st0" d="M55.3,200.3v118.1H0V0h121.8c35.6,0,63.8,9.3,84.7,27.8s31.4,43,31.4,73.5
			c0,31.2-10.2,55.5-30.7,72.9s-49.2,26-86,26L55.3,200.3z M55.3,155.7h66.5c19.7,0,34.7-4.6,45-13.9s15.5-22.6,15.5-40.1
			c0-17.2-5.2-30.9-15.7-41.2s-24.9-15.6-43.3-15.9h-68L55.3,155.7z"/>
		<path id="Trazado_10637" class="st0" d="M403.4,195.9h-61.7v122.4h-55.3V0h111.9c36.7,0,65.1,8.2,85,24.7s30,40.3,30,71.6
			c0,21.3-5.1,39.1-15.4,53.5c-10.3,14.4-24.6,25.4-43,33.2l71.5,132.6v2.8h-59.2L403.4,195.9z M341.8,151.3h56.8
			c18.7,0,33.2-4.7,43.7-14.1S458,114.9,458,98.6c0-17.1-4.8-30.2-14.5-39.6c-9.7-9.3-24.2-14.1-43.4-14.4h-58.4L341.8,151.3z"/>
		<path id="Trazado_10638" class="st0" d="M757.2,176.2H626.4v97.9h152.8v44.2H571.1V0h206.6v44.6H626.4v87.9h130.7L757.2,176.2z"/>
		<path id="Trazado_10639" class="st0" d="M883,200.3v118.1h-55.3V0h121.8c35.6,0,63.8,9.3,84.7,27.8c20.9,18.5,31.4,43,31.4,73.5
			c0,31.2-10.2,55.5-30.7,72.9s-49.2,26-86,26L883,200.3z M883,155.7h66.5c19.7,0,34.7-4.6,45-13.9s15.5-22.6,15.5-40.1
			c0-17.2-5.2-30.9-15.7-41.2S969.4,44.9,951,44.6h-68V155.7z"/>
	</g>
	<circle id="Elipse_669" class="st0" cx="7295.2" cy="2446.6" r="19.8"/>
	<g id="Grupo_12065" transform="translate(6955.444 2405.803)">
		<path id="Trazado_10640" class="st0" d="M53.7,80.7H1.5v-7.3L29,42.8c3.2-3.4,6-7.2,8.4-11.3c1.5-2.8,2.3-5.8,2.3-9
			c0.1-3.8-1.2-7.4-3.8-10.2c-2.6-2.7-6.3-4.2-10.1-4c-5,0-8.9,1.4-11.7,4.3s-4.2,6.8-4.2,11.9H0c0-7.3,2.4-13.2,7.1-17.8
			C11.8,2.3,18.1,0,26,0c7.4,0,13.2,1.9,17.5,5.8s6.4,9,6.5,15.5c0,7.8-5,17.2-15,28L13.7,72.4h40V80.7z"/>
		<path id="Trazado_10641" class="st0" d="M115,46.7c0,11.8-2,20.6-6.1,26.4c-4,5.8-10.4,8.6-19,8.6c-8.5,0-14.8-2.8-18.9-8.4
			s-6.2-14-6.3-25.2V34.6c0-11.7,2-20.4,6.1-26.1c4-5.7,10.4-8.5,19-8.5s14.9,2.7,18.9,8.2s6.1,13.9,6.2,25.4L115,46.7z M104.9,32.9
			c0-8.6-1.2-14.8-3.6-18.7s-6.2-5.9-11.4-5.9c-5.2,0-8.9,1.9-11.3,5.8s-3.6,9.9-3.7,18v16.2c0,8.6,1.2,14.9,3.7,19
			s6.3,6.1,11.3,6.1s8.7-1.9,11.1-5.8s3.7-9.9,3.8-18.3L104.9,32.9z"/>
		<path id="Trazado_10642" class="st0" d="M182.3,80.7h-52.1v-7.3l27.5-30.6c3.2-3.4,6-7.2,8.4-11.3c1.5-2.8,2.3-5.8,2.3-9
			c0.1-3.8-1.2-7.4-3.8-10.2c-2.6-2.7-6.3-4.2-10.1-4c-5,0-8.9,1.4-11.7,4.3s-4.2,6.8-4.2,11.9h-10.1c0-7.3,2.4-13.2,7.1-17.8
			c4.7-4.5,11-6.8,18.9-6.8c7.4,0,13.2,1.9,17.5,5.8s6.5,9,6.4,15.5c0,7.8-5,17.2-15,28l-21.3,23.1h40L182.3,80.7z"/>
		<path id="Trazado_10643" class="st0" d="M225.7,80.7h-10.2V13.3l-20.4,7.5v-9.2l29-10.9h1.6L225.7,80.7z"/>
	</g>
	<g id="Grupo_12067" transform="translate(6441.947 2050.158)">
		<g id="Trazado_10646">
			<path class="st1" d="M217.7,3c1.4,0,2.8,0.6,3.8,1.5l140.2,140.3c-2.9,0.9-5.3,2.8-6.7,5.6c-13.6,26.2-29.6,51-47.3,73.7
				c-0.9,1.1-1.5,2.4-1.9,3.7l-14.6-14.6L273,195.1l-32.4-32.4c-0.3-0.4-0.5-0.6-0.7-0.7l0,0l0,0l-0.1-0.1c-2-1.7-4.6-2.7-7.3-2.7
				c-3.4,0-6.5,1.5-8.7,4.1c-9.2,11-18.6,21.4-28.9,31.7c-9.7,9.8-20.3,19.5-31.6,28.9l-0.5,0.4l-0.1,0.1c-0.1,0.1-0.1,0.1-0.2,0.2
				c-1.3,1.4-2.3,3-2.8,4.7l-15.8-15.8l-52.1-52.1l0,0l0,0c-1-1-2.2-1.8-3.5-2.3c51.9-42,93.8-93.4,124.7-153.1
				c0.3-0.5,0.6-0.9,0.9-1.3C214.9,3.6,216.3,3,217.7,3 M217.7,0c-2.1,0-4.2,0.8-5.9,2.4c-0.6,0.6-1.1,1.3-1.5,2.1
				c-31.9,61.5-76.7,115.4-131.4,158c1.5-1,3.2-1.5,4.8-1.5c2.2,0,4.3,0.8,5.9,2.4l52.1,52.1l16.4,16.4l6.5,6.5
				c-3.2-3.3-3.2-8.5,0-11.8c0.2-0.2,0.4-0.3,0.5-0.5c12.5-10.4,23.1-20.3,31.8-29.1c10.7-10.7,20.3-21.3,29.1-31.9c1.6-2,4-3,6.4-3
				c1.9,0,3.8,0.6,5.3,2c0.2,0.2,0.4,0.3,0.5,0.5l32.6,32.6l18.2,18.2l16.4,16.4l5.2,5.2c-3-3-3.2-7.7-0.6-11
				c18.1-23.2,34-48.1,47.6-74.2c1.5-2.9,4.3-4.4,7.3-4.4c1.3,0,2.6,0.3,3.9,0.9c0.7,0.4,1.4,0.9,2,1.5L223.6,2.4
				C222,0.8,219.8,0,217.7,0L217.7,0z M78.9,162.5c-0.1,0.1-0.2,0.1-0.3,0.2l-0.1,0.1C78.6,162.7,78.8,162.6,78.9,162.5L78.9,162.5z
				"/>
		</g>
		<g id="Trazado_10647">
			<path class="st1" d="M217.1,436c-1.8,0-3.6-0.6-5.2-1.6l-0.1-0.1c-0.1-0.1-0.2-0.1-0.4-0.3c-0.1-0.1-0.1-0.1-0.2-0.2
				c-0.1-0.1-0.3-0.2-0.4-0.3l-0.1-0.1l0-0.1c-0.1-0.1-0.2-0.2-0.2-0.2L1.8,224.5c-0.7-0.7-1.2-1.5-1.7-2.4
				c-2.3-4.6-0.5-10.2,4-12.5c3.1-1.5,6.4-3.3,10.5-5.6c0.4-0.2,0.8-0.5,1.2-0.7c0.4-0.2,0.8-0.4,1.2-0.7c1-0.6,2.1-1.2,3.1-1.7
				c1.5-0.9,3.1-1.8,4.6-2.7c0.5-0.3,0.9-0.5,1.3-0.8c0.5-0.3,0.9-0.6,1.4-0.8c1.1-0.7,2.3-1.4,3.5-2.1c1.2-0.7,2.4-1.4,3.5-2.1
				c0.3-0.2,0.6-0.4,0.9-0.6c0.5-0.4,1.1-0.7,1.7-1.1c2.8-1.6,4.9-3,6.8-4.3c0.3-0.2,0.7-0.5,1.1-0.8c0.4-0.2,0.7-0.5,1.1-0.7
				c2.1-1.3,4-2.6,5.9-3.9l1-0.7l1.8-1.2c1.5-1,3-2.1,4.4-3.1c0.9-0.6,1.7-1.2,2.6-1.8c0.5-0.3,0.9-0.6,1.3-0.9
				c1.9-1.4,3.8-2.8,5.6-4.1l1.5-1.1l0.8-0.6c1.1-0.8,2.2-1.7,3.2-2.5c1.4-1,2.7-2.1,4-3.1l0.1-0.1l0,0c1.6-1.3,3.6-2,5.7-2
				c2.5,0,4.8,1,6.5,2.8L307,379.4l-0.9,0.7c-17.5,14.1-36.2,27.2-55.8,38.8l-0.1,0.1l-2.4,1.4c-2.6,1.5-5.1,3-7.6,4.4l-0.1,0.1
				L240,425c-2.9,1.6-5.8,3.2-8.6,4.7c-0.6,0.4-1.1,0.7-1.7,1c-1,0.5-2,1-2.9,1.5c-1.9,1-3.6,1.9-5.4,2.8
				C220,435.7,218.6,436,217.1,436z"/>
			<path class="st2" d="M83.9,161c2.1,0,4.2,0.8,5.8,2.5l52.1,52.1l16.4,16.4l6.5,6.5l32.6,32.6l34.6,34.6l39.1,39.1l34.5,34.5
				c-17.7,14.3-36.3,27.2-55.8,38.8l-0.1,0.1c-3.4,2-6.7,4-10,5.8l-0.1,0.1c-2.9,1.6-5.8,3.2-8.6,4.7c-0.6,0.4-1.1,0.7-1.7,1
				c-2.9,1.5-5.6,3-8.3,4.3c-1.2,0.6-2.5,0.9-3.8,0.9c-1.6,0-3.2-0.5-4.6-1.4c-0.1-0.1-0.2-0.1-0.3-0.2c-0.2-0.2-0.4-0.3-0.6-0.5
				c-0.1-0.2-0.3-0.3-0.4-0.4l-30.4-30.4l-12-12L153.7,375l-12-12l-34.6-34.6l-12-12L80,301.3l-12-12L2.5,223.8
				c-0.6-0.6-1.1-1.3-1.5-2.1c-2.1-4.1-0.5-9.1,3.6-11.2c3.6-1.8,7.1-3.7,10.5-5.6c0.8-0.5,1.6-0.9,2.4-1.4c2.6-1.5,5.2-2.9,7.7-4.4
				c0.9-0.5,1.8-1.1,2.7-1.6c2.3-1.4,4.7-2.8,7-4.2c0.8-0.5,1.6-1.1,2.5-1.6c2.4-1.4,4.7-2.8,6.9-4.3c0.7-0.5,1.5-1,2.2-1.5
				c2.4-1.5,4.7-3.1,6.9-4.6c0.6-0.4,1.2-0.8,1.8-1.2c2.4-1.6,4.7-3.3,7-4.9c0.5-0.3,0.9-0.6,1.3-0.9c2.4-1.7,4.8-3.5,7.1-5.2
				l0.8-0.6c2.5-1.9,4.9-3.8,7.3-5.6l0.1-0.1C80.3,161.6,82.1,161,83.9,161 M83.9,159c-2.3,0-4.5,0.8-6.3,2.2l-0.1,0.1l-0.1,0.1
				c-1.3,1-2.7,2-4,3.1c-1.1,0.8-2.1,1.6-3.2,2.5l-0.8,0.6l-1.4,1.1c-1.8,1.4-3.7,2.8-5.6,4.1l0,0l0,0c-0.4,0.3-0.7,0.5-1.1,0.8
				l-0.1,0l-0.1,0c-0.9,0.6-1.7,1.2-2.6,1.8c-1.4,1-2.9,2.1-4.4,3.1l-1.8,1.2l-1.1,0.7c-1.9,1.3-3.8,2.6-5.8,3.8l-0.1,0l-0.1,0
				c-0.3,0.2-0.7,0.5-1,0.7c-0.4,0.3-0.8,0.5-1.2,0.8c-1.9,1.3-3.9,2.6-6.7,4.2c-0.6,0.3-1.2,0.7-1.7,1.1c-0.3,0.2-0.6,0.4-0.8,0.6
				c-1.1,0.7-2.3,1.4-3.5,2.1c-1.2,0.7-2.3,1.4-3.5,2.1c-0.5,0.3-0.9,0.5-1.4,0.8c-0.4,0.3-0.9,0.5-1.3,0.8l0,0l0,0
				c-1.5,0.9-3,1.7-4.6,2.6c-1,0.6-2,1.1-3.1,1.7l0,0l0,0c-0.4,0.2-0.7,0.4-1.1,0.7c-0.4,0.2-0.8,0.5-1.2,0.7c-4,2.2-7.3,4-10.4,5.5
				c-2.5,1.3-4.3,3.4-5.1,6c-0.8,2.6-0.6,5.4,0.6,7.9c0.5,1,1.1,1.9,1.9,2.6l65.5,65.5l12,12l15.1,15.1l12,12l34.6,34.6l12,12
				l15.1,15.1l12,12l30.4,30.4c0,0,0.1,0.1,0.2,0.1l0,0l0.2,0.2c0.2,0.2,0.4,0.3,0.5,0.4c0,0,0.1,0,0.1,0.1c0.2,0.2,0.4,0.3,0.5,0.4
				l0,0c1.7,1.2,3.7,1.8,5.7,1.8c1.6,0,3.2-0.4,4.7-1.1c1.8-0.9,3.5-1.8,5.4-2.8c1-0.5,1.9-1,2.9-1.5c0.6-0.3,1.1-0.6,1.8-1.1
				c2.8-1.5,5.7-3.1,8.5-4.7l0.2-0.1l0.1-0.1c2.5-1.4,4.9-2.8,7.5-4.3c0.8-0.5,1.5-0.9,2.3-1.4l0.2-0.1l0.1-0.1
				c19.6-11.7,38.3-24.7,55.8-38.8l1.7-1.4l-1.6-1.6l-34.5-34.5l-39.1-39.1l-34.6-34.6l-32.6-32.6l-6.5-6.5l-16.4-16.4l-52.1-52.1
				C89.2,160.1,86.6,159,83.9,159L83.9,159z"/>
		</g>
		<g id="Trazado_10648">
			<path class="st1" d="M378.7,306.3l-68.5-68.5c-3.3-3.4-3.6-8.7-0.7-12.3c17.8-22.8,33.8-47.7,47.5-74c0.2-0.3,0.4-0.6,0.5-0.9
				c0.3-0.4,0.5-0.9,0.8-1.3l0.1-0.1l0.1-0.1c1.7-1.8,4.1-2.8,6.6-2.8c2.5,0,4.8,1,6.6,2.8l61.4,61.4c2.9,2.8,3.6,7.1,1.8,10.8
				c-2.4,4.8-4.3,8.4-6.1,11.7c-0.2,0.4-0.5,0.9-0.7,1.3c-0.4,0.7-0.8,1.4-1.1,2.1c-1.4,2.7-2.9,5.4-4.4,7.9
				c-0.7,1.3-1.4,2.6-2.1,3.7c-1.3,2.3-2.8,4.8-4.4,7.4c-0.4,0.6-0.8,1.3-1.2,1.9c-0.3,0.4-0.5,0.9-0.8,1.3l-1.4,2.2
				c-1.2,2-2.4,3.8-3.6,5.7l-0.4,0.6c-0.3,0.6-0.7,1.1-1,1.6c-6.9,10.5-13.8,20.1-20.4,28.7l-0.8,1.1c-2,2.6-3.8,5-5.8,7.4v2.1
				L378.7,306.3z"/>
			<path class="st2" d="M365,147.2c2.1,0,4.2,0.8,5.9,2.5l31,31l30.4,30.4c2.6,2.5,3.2,6.4,1.6,9.6c-2,4-4,7.9-6.1,11.7
				c-0.6,1.1-1.3,2.2-1.9,3.4c-1.4,2.7-2.9,5.3-4.4,7.9c-0.7,1.3-1.4,2.5-2.1,3.7c-1.4,2.5-2.9,5-4.4,7.4c-0.7,1-1.3,2.1-2,3.2
				c-1.7,2.7-3.3,5.3-5,7.9c-0.5,0.8-0.9,1.5-1.4,2.2c-6.8,10.3-13.6,19.9-20.4,28.7c-2.3,3-4.5,5.9-6.8,8.7v0.1l-4.2-4.2L344.8,271
				l-33.9-33.9c-2.9-3-3.2-7.7-0.6-11c18.1-23.2,34-48.1,47.6-74.2c0.4-0.7,0.9-1.4,1.3-2.2C360.8,148,362.9,147.2,365,147.2
				 M365,145.2c-2.8,0-5.4,1.1-7.3,3.1l-0.2,0.2l-0.1,0.3c-0.2,0.4-0.5,0.8-0.7,1.2c-0.2,0.3-0.4,0.6-0.5,0.9l0,0l0,0
				c-13.7,26.2-29.6,51.1-47.4,73.9c-3.2,4-2.9,9.9,0.7,13.6l33.9,33.9l30.4,30.4l4.2,4.2l3.4,3.4v-4.2c1.9-2.3,3.7-4.7,5.6-7.1
				l0.8-1c6.6-8.6,13.5-18.3,20.5-28.8c0.4-0.6,0.7-1.1,1.1-1.6c0.1-0.2,0.3-0.4,0.4-0.6c1.2-1.9,2.4-3.7,3.6-5.7
				c0.5-0.7,0.9-1.4,1.4-2.2c0.3-0.4,0.5-0.9,0.8-1.3c0.4-0.6,0.8-1.3,1.2-1.8l0,0l0,0c1.7-2.6,3.1-5.2,4.4-7.5
				c0.7-1.2,1.4-2.4,2.1-3.7c1.5-2.6,3-5.2,4.4-8c0.4-0.7,0.7-1.4,1.1-2c0.3-0.4,0.5-0.9,0.8-1.3c1.8-3.3,3.7-6.9,6.1-11.8
				c2-4,1.2-8.8-2-11.9l-30.4-30.4l-31-31C370.4,146.3,367.8,145.2,365,145.2L365,145.2z"/>
		</g>
		<g id="Trazado_10649">
			<path class="st1" d="M164.1,239.2c-0.2-0.1-0.4-0.3-0.5-0.4c0,0-0.1-0.1-0.1-0.1c-1.6-2-2.4-4.4-2.1-6.9c0.2-2.5,1.4-4.7,3.3-6.3
				c11.1-9.3,21.8-19.1,31.7-29c10.7-10.8,20.5-21.5,29-31.8l0.1-0.2l0.1-0.1c0,0,0,0,0.1-0.1c0.1-0.1,0.2-0.2,0.3-0.3
				c1.7-1.8,4-2.7,6.5-2.7c2.5,0,4.8,1,6.6,2.7l32.6,32.6l18.3,18.2l85.9,85.9l4.9,5.1l-0.8,0.8c-6.7,8.3-13.1,15.6-17.9,21
				l-0.4,0.4l-3.4,3.7c-0.5,0.5-1.1,1.1-1.6,1.7c-0.9,1-1.8,2-2.8,3c-0.4,0.4-0.8,0.8-1.2,1.2c-0.4,0.4-0.8,0.9-1.2,1.3
				c-0.7,0.6-1.4,1.3-1.9,1.9l-4.5,4.5c-1,1-2.1,2-3.1,3c-2,2-4.1,4-6.2,6c-0.7,0.6-1.4,1.2-2.1,1.9c-0.9,0.8-1.7,1.6-2.5,2.3
				c-1.6,1.5-3.3,3.1-5,4.6c-0.3,0.3-0.6,0.5-0.8,0.7c-0.3,0.3-0.6,0.5-0.9,0.8c-1.1,0.9-2.2,1.9-3.3,2.8c-1.6,1.5-3.3,3-5,4.4
				c-0.3,0.2-0.4,0.3-0.6,0.5c-3.2,2.8-6.3,5.3-9.4,7.8l-0.7,0.6L164.1,239.2z"/>
			<path class="st2" d="M232.5,162.3c2.1,0,4.3,0.8,5.9,2.4l32.6,32.6l18.3,18.2l16.4,16.4l5.2,5.2l33.9,33.9l30.4,30.4l4.2,4.4
				l-0.1,0.1c-6.2,7.7-12.2,14.6-17.9,21c-0.1,0.1-0.3,0.3-0.4,0.4c-1.1,1.2-2.3,2.5-3.4,3.7c-0.5,0.5-1.1,1.1-1.6,1.7
				c-0.9,1-1.8,2-2.7,2.9c-0.8,0.8-1.6,1.7-2.4,2.5c-0.7,0.6-1.4,1.3-2,2c-1.5,1.5-3,3-4.4,4.4c-3.1,3-6.2,6.1-9.3,9
				c-0.7,0.6-1.4,1.2-2.1,1.9c-2.5,2.3-5,4.7-7.5,6.9c-0.6,0.5-1.1,1-1.7,1.5c-2.8,2.4-5.5,4.9-8.3,7.2c-0.3,0.2-0.5,0.4-0.7,0.6
				c-3.1,2.7-6.2,5.2-9.3,7.7L271,344.7l-39.1-39.1L197.3,271l-32.6-32.6c-0.2-0.1-0.3-0.3-0.5-0.5c-2.9-3.5-2.4-8.8,1.1-11.7
				c12.4-10.4,23-20.3,31.8-29.1c10.6-10.7,20.3-21.3,29.1-31.9c0.2-0.1,0.3-0.3,0.5-0.5C228.3,163.1,230.4,162.3,232.5,162.3
				 M232.5,160.3c-2.8,0-5.3,1.1-7.2,3c-0.1,0.1-0.1,0.1-0.2,0.2l-0.1,0.1l-0.3,0.3c-8.6,10.3-18.3,21-29,31.8
				c-9.9,9.9-20.6,19.7-31.7,29c-2.1,1.7-3.4,4.2-3.7,7c-0.3,2.8,0.6,5.4,2.3,7.5l0.1,0.1l0.1,0.1c0,0,0,0,0.1,0.1
				c0.1,0.1,0.3,0.4,0.6,0.6l32.5,32.5l34.6,34.6l39.1,39.1l34.6,34.6l1.3,1.3l1.4-1.1c3.1-2.5,6.2-5,9.4-7.7l0.1,0l0,0
				c0.2-0.2,0.3-0.3,0.4-0.3l0.1-0.1l0.1-0.1c1.7-1.4,3.4-2.9,5.1-4.4c1.1-1,2.2-1.9,3.3-2.9c0.3-0.3,0.6-0.5,0.9-0.8
				c0.3-0.2,0.5-0.5,0.8-0.7l0,0l0,0c1.7-1.5,3.4-3.1,5-4.6c0.8-0.8,1.7-1.5,2.5-2.3l0,0l0,0c0.6-0.6,1.3-1.2,2-1.8l0,0l0,0
				c2.1-1.9,4.2-4,6.2-6c1-1,2.1-2,3.1-3l4.4-4.4l0.1-0.1l0-0.1c0.5-0.6,1.2-1.3,1.8-1.8l0.1,0l0.1-0.1c0.4-0.4,0.8-0.9,1.2-1.3
				c0.4-0.4,0.8-0.8,1.2-1.2c0.9-0.9,1.9-2,2.8-3l0,0l0,0c0.4-0.5,1-1.1,1.5-1.6l0,0l0,0l1.7-1.8l1.7-1.8l0.4-0.4l0,0l0,0
				c4.8-5.4,11.2-12.7,17.9-21l0,0l1.4-1.4l-1.3-1.4l-4.2-4.4l-30.4-30.4l-33.9-33.9l-5.2-5.2l-16.4-16.4l-18.3-18.2l-32.6-32.6
				C237.9,161.3,235.3,160.3,232.5,160.3L232.5,160.3z"/>
		</g>
	</g>
</g>
<g>
	<path class="st0" d="M956.6,402.7c-8.8-2.5-15.2-5.6-19.2-9.3c-4-3.7-6-8.2-6-13.7c0-6.1,2.4-11.2,7.3-15.2c4.9-4,11.3-6,19.1-6
		c5.3,0,10.1,1,14.3,3.1s7.4,4.9,9.7,8.5s3.4,7.6,3.4,11.9H975c0-4.7-1.5-8.4-4.5-11.1s-7.2-4-12.7-4c-5.1,0-9,1.1-11.8,3.3
		c-2.8,2.2-4.2,5.3-4.2,9.3c0,3.2,1.3,5.9,4,8.1s7.3,4.2,13.7,6c6.5,1.8,11.5,3.8,15.2,6s6.4,4.7,8.1,7.7c1.8,2.9,2.6,6.4,2.6,10.3
		c0,6.3-2.5,11.4-7.4,15.1c-4.9,3.8-11.5,5.7-19.7,5.7c-5.3,0-10.3-1-15-3.1s-8.2-4.9-10.7-8.4c-2.5-3.6-3.8-7.6-3.8-12.1h10.3
		c0,4.7,1.7,8.4,5.2,11.1s8.1,4.1,13.9,4.1c5.4,0,9.6-1.1,12.4-3.3c2.9-2.2,4.3-5.2,4.3-9s-1.3-6.8-4-8.8
		C968.5,406.8,963.6,404.7,956.6,402.7z"/>
	<path class="st0" d="M1008.9,429h36.9v8.4h-47.2v-77.8h10.3V429z"/>
	<path class="st0" d="M1067.7,406.9v30.5h-10.3v-77.8h28.7c8.5,0,15.2,2.2,20,6.5s7.2,10.1,7.2,17.3c0,7.6-2.4,13.4-7.1,17.4
		c-4.7,4.1-11.5,6.1-20.3,6.1L1067.7,406.9L1067.7,406.9z M1067.7,398.5h18.4c5.5,0,9.7-1.3,12.6-3.9s4.4-6.3,4.4-11.2
		c0-4.6-1.5-8.3-4.4-11.1c-2.9-2.8-6.9-4.2-12-4.3h-19V398.5z"/>
</g>
</svg>
