<?xml version="1.0" encoding="utf-8"?>
<!-- Generator: Adobe Illustrator 25.0.1, SVG Export Plug-In . SVG Version: 6.00 Build 0)  -->
<svg version="1.1" id="Layer_1" xmlns="http://www.w3.org/2000/svg" xmlns:xlink="http://www.w3.org/1999/xlink" x="0px" y="0px"
	 viewBox="0 0 1581.9 438.6" style="enable-background:new 0 0 1581.9 438.6;" xml:space="preserve">
<style type="text/css">
	.st0{fill:#D3097F;}
	.st1{fill:#D8D8D8;}
	.st2{fill:#79134C;}
	.st3{fill:#D971A9;}
</style>
<g id="Grupo_12068" transform="translate(-6441.947 -2048.988)">
	<g id="Grupo_12064" transform="translate(6958.281 2048.988)">
		<path id="Trazado_10636" d="M55.3,200.3v118.1H0V0h121.8c35.6,0,63.8,9.3,84.7,27.8s31.4,43,31.4,73.5c0,31.2-10.2,55.5-30.7,72.9
			s-49.2,26-86,26L55.3,200.3z M55.3,155.7h66.5c19.7,0,34.7-4.6,45-13.9s15.5-22.6,15.5-40.1c0-17.2-5.2-30.9-15.7-41.2
			s-24.9-15.6-43.3-15.9h-68L55.3,155.7z"/>
		<path id="Trazado_10637" d="M403.4,195.9h-61.7v122.4h-55.3V0h111.9c36.7,0,65.1,8.2,85,24.7s30,40.3,30,71.6
			c0,21.3-5.1,39.1-15.4,53.5c-10.3,14.4-24.6,25.4-43,33.2l71.5,132.6v2.8h-59.2L403.4,195.9z M341.8,151.3h56.8
			c18.7,0,33.2-4.7,43.7-14.1c10.5-9.4,15.7-22.3,15.7-38.6c0-17.1-4.8-30.2-14.5-39.6c-9.7-9.3-24.2-14.1-43.4-14.4h-58.4
			L341.8,151.3z"/>
		<path id="Trazado_10638" class="st0" d="M757.2,176.2H626.4v97.9h152.8v44.2H571.1V0h206.6v44.6H626.4v87.9h130.7L757.2,176.2z"/>
		<path id="Trazado_10639" d="M883,200.3v118.1h-55.3V0h121.8c35.6,0,63.8,9.3,84.7,27.8s31.4,43,31.4,73.5
			c0,31.2-10.2,55.5-30.7,72.9s-49.2,26-86,26L883,200.3z M883,155.7h66.5c19.7,0,34.7-4.6,45-13.9s15.5-22.6,15.5-40.1
			c0-17.2-5.2-30.9-15.7-41.2c-10.5-10.3-24.9-15.6-43.3-15.9h-68L883,155.7z"/>
	</g>
	<circle id="Elipse_669" class="st0" cx="7295.2" cy="2446.6" r="19.8"/>
	<g id="Grupo_12065" transform="translate(6955.444 2405.803)">
		<path id="Trazado_10640" d="M53.7,80.7H1.5v-7.3l27.5-30.6c3.2-3.4,6-7.2,8.4-11.3c1.5-2.8,2.3-5.8,2.3-9
			c0.1-3.8-1.2-7.4-3.8-10.2c-2.6-2.7-6.3-4.2-10.1-4c-5,0-8.9,1.4-11.7,4.3c-2.8,2.9-4.2,6.8-4.2,11.9H0c0-7.3,2.4-13.2,7.1-17.8
			C11.8,2.3,18.1,0,26,0c7.4,0,13.2,1.9,17.5,5.8s6.4,9,6.5,15.5c0,7.8-5,17.2-15,28L13.7,72.4h40L53.7,80.7z"/>
		<path id="Trazado_10641" d="M115,46.7c0,11.8-2,20.6-6.1,26.4c-4,5.8-10.4,8.6-19,8.6c-8.5,0-14.8-2.8-18.9-8.4
			c-4.1-5.6-6.2-14-6.3-25.2V34.6c0-11.7,2-20.4,6.1-26.1c4-5.7,10.4-8.5,19-8.5c8.6,0,14.9,2.7,18.9,8.2c4,5.5,6.1,13.9,6.2,25.4
			L115,46.7z M104.9,32.9c0-8.6-1.2-14.8-3.6-18.7s-6.2-5.9-11.4-5.9c-5.2,0-8.9,1.9-11.3,5.8c-2.4,3.9-3.6,9.9-3.7,18v16.2
			c0,8.6,1.2,14.9,3.7,19s6.3,6.1,11.3,6.1c5,0,8.7-1.9,11.1-5.8c2.4-3.9,3.7-9.9,3.8-18.3L104.9,32.9z"/>
		<path id="Trazado_10642" d="M182.3,80.7h-52.1v-7.3l27.5-30.6c3.2-3.4,6-7.2,8.4-11.3c1.5-2.8,2.3-5.8,2.3-9
			c0.1-3.8-1.2-7.4-3.8-10.2c-2.6-2.7-6.3-4.2-10.1-4c-5,0-8.9,1.4-11.7,4.3s-4.2,6.8-4.2,11.9h-10.1c0-7.3,2.4-13.2,7.1-17.8
			c4.7-4.5,11-6.8,18.9-6.8c7.4,0,13.2,1.9,17.5,5.8s6.5,9,6.4,15.5c0,7.8-5,17.2-15,28l-21.3,23.1h40L182.3,80.7z"/>
		<path id="Trazado_10643" d="M225.7,80.7h-10.2V13.3l-20.4,7.5v-9.2l29-10.9h1.6L225.7,80.7z"/>
	</g>
	<g id="Grupo_12067" transform="translate(6441.947 2050.158)">
		<path id="Trazado_10646" class="st1" d="M89.7,163.4l52.1,52.1l16.4,16.4l6.5,6.5c-3.2-3.3-3.2-8.5,0-11.8
			c0.2-0.2,0.4-0.3,0.5-0.5c12.5-10.4,23.1-20.3,31.8-29.1c10.7-10.7,20.3-21.3,29.1-31.9c2.9-3.5,8.2-4,11.7-1
			c0.2,0.2,0.4,0.3,0.5,0.5l32.6,32.6l18.2,18.2l16.4,16.4l5.2,5.2c-3-3-3.2-7.7-0.6-11c18.1-23.2,34-48.1,47.6-74.2
			c2.1-4.1,7.1-5.6,11.2-3.5c0.7,0.4,1.4,0.9,2,1.5L223.6,2.4c-3.3-3.2-8.5-3.2-11.8,0c-0.6,0.6-1.1,1.3-1.5,2.1
			c-32,61.7-76.9,115.7-131.8,158.3l0.1-0.1C82,160.2,86.7,160.5,89.7,163.4z"/>
		<path id="Trazado_10647" class="st2" d="M230.9,428.8c2.8-1.5,5.7-3.1,8.6-4.7l0.1-0.1c3.3-1.8,6.6-3.8,10-5.8l0.1-0.1
			c19.5-11.6,38.1-24.5,55.8-38.8L271,344.8l-39.1-39.1l-34.6-34.6l-32.6-32.6l-6.5-6.5l-16.4-16.4l-52.1-52.1
			c-2.9-3-7.6-3.3-10.9-0.7l-0.1,0.1c-2.4,1.8-4.8,3.7-7.3,5.6l-0.8,0.6c-2.3,1.7-4.7,3.5-7.1,5.2c-0.4,0.3-0.8,0.6-1.3,0.9
			c-2.3,1.6-4.6,3.3-7,4.9c-0.6,0.4-1.2,0.8-1.8,1.2c-2.2,1.5-4.5,3.1-6.9,4.6c-0.7,0.5-1.5,1-2.2,1.5c-2.2,1.5-4.5,2.9-6.9,4.3
			c-0.9,0.5-1.7,1.1-2.5,1.6c-2.3,1.4-4.7,2.8-7,4.2c-0.9,0.5-1.8,1.1-2.7,1.6c-2.5,1.5-5.1,2.9-7.7,4.4c-0.8,0.5-1.6,0.9-2.4,1.4
			c-3.4,1.9-6.9,3.8-10.5,5.6c-4.1,2.1-5.7,7.1-3.6,11.2c0.4,0.8,0.9,1.5,1.5,2.1L68,289.3l12,12l15.1,15.1l12,12l34.6,34.6l12,12
			l15.1,15.1l12,12l30.4,30.4c0.1,0.1,0.3,0.2,0.4,0.4c0.2,0.2,0.4,0.3,0.6,0.5c0.1,0.1,0.2,0.1,0.3,0.2c2.5,1.7,5.7,1.9,8.4,0.5
			l0,0c2.7-1.3,5.4-2.8,8.3-4.3C229.8,429.5,230.3,429.2,230.9,428.8z"/>
		<path id="Trazado_10648" class="st3" d="M357.9,151.9c-13.6,26.1-29.5,51-47.6,74.2c-2.6,3.3-2.3,8,0.6,11l33.9,33.9l30.4,30.4
			l4.2,4.2l0-0.1c2.3-2.8,4.5-5.7,6.8-8.7l0,0c6.8-8.8,13.6-18.4,20.4-28.7c0.5-0.7,0.9-1.4,1.4-2.2c1.7-2.6,3.3-5.2,5-7.9
			c0.7-1.1,1.3-2.2,2-3.2c1.5-2.4,3-4.9,4.4-7.4c0.7-1.2,1.4-2.4,2.1-3.7c1.5-2.6,3-5.2,4.4-7.9c0.6-1.2,1.3-2.3,1.9-3.4
			c2.1-3.8,4.1-7.7,6.1-11.7c1.6-3.2,1-7.1-1.6-9.6l-30.4-30.4l-31-31l0,0c-3.2-3.3-8.5-3.3-11.7,0
			C358.8,150.5,358.3,151.2,357.9,151.9z"/>
		<path id="Trazado_10649" class="st0" d="M375.2,301.4l-30.4-30.4l-33.9-33.9l-5.2-5.2l-16.4-16.4L271,197.3l-32.6-32.6
			c-3.2-3.2-8.5-3.3-11.7,0c-0.2,0.2-0.3,0.4-0.5,0.5c-8.8,10.6-18.5,21.2-29.1,31.9c-8.8,8.8-19.4,18.7-31.8,29.1
			c-3.5,2.9-4,8.2-1.1,11.7c0.2,0.2,0.3,0.4,0.5,0.5l32.6,32.6l34.6,34.6l39.1,39.1l34.6,34.6c3.1-2.5,6.2-5,9.3-7.7
			c0.2-0.2,0.4-0.4,0.7-0.6c2.8-2.3,5.5-4.8,8.3-7.2c0.6-0.5,1.1-1,1.7-1.5c2.5-2.2,5-4.6,7.5-6.9c0.7-0.7,1.4-1.3,2.1-1.9
			c3.1-2.9,6.2-6,9.3-9c1.4-1.4,2.9-2.9,4.4-4.4c0.6-0.7,1.3-1.4,2-2c0.8-0.8,1.6-1.7,2.4-2.5c0.9-0.9,1.8-1.9,2.7-2.9
			c0.5-0.6,1.1-1.2,1.6-1.7c1.1-1.2,2.3-2.5,3.4-3.7c0.1-0.1,0.3-0.3,0.4-0.4c5.7-6.4,11.7-13.3,17.9-21c0,0,0.1-0.1,0.1-0.1l0,0
			L375.2,301.4z"/>
	</g>
</g>
<g>
	<path d="M956.6,402.7c-8.8-2.5-15.2-5.6-19.2-9.3c-4-3.7-6-8.2-6-13.7c0-6.1,2.4-11.2,7.3-15.2c4.9-4,11.3-6,19.1-6
		c5.3,0,10.1,1,14.3,3.1c4.2,2.1,7.4,4.9,9.7,8.5c2.3,3.6,3.4,7.6,3.4,11.9H975c0-4.7-1.5-8.4-4.5-11.1c-3-2.7-7.2-4-12.7-4
		c-5.1,0-9,1.1-11.8,3.3c-2.8,2.2-4.2,5.3-4.2,9.3c0,3.2,1.3,5.9,4,8.1c2.7,2.2,7.3,4.2,13.7,6c6.5,1.8,11.5,3.8,15.2,6
		s6.4,4.7,8.1,7.7c1.8,2.9,2.6,6.4,2.6,10.3c0,6.3-2.5,11.4-7.4,15.1c-4.9,3.8-11.5,5.7-19.7,5.7c-5.3,0-10.3-1-15-3.1
		s-8.2-4.9-10.7-8.4c-2.5-3.6-3.8-7.6-3.8-12.1h10.3c0,4.7,1.7,8.4,5.2,11.1c3.5,2.7,8.1,4.1,13.9,4.1c5.4,0,9.6-1.1,12.4-3.3
		c2.9-2.2,4.3-5.2,4.3-9c0-3.8-1.3-6.8-4-8.8C968.5,406.8,963.6,404.7,956.6,402.7z"/>
	<path d="M1008.9,429h36.9v8.4h-47.2v-77.8h10.3V429z"/>
	<path d="M1067.7,406.9v30.5h-10.3v-77.8h28.7c8.5,0,15.2,2.2,20,6.5c4.8,4.3,7.2,10.1,7.2,17.3c0,7.6-2.4,13.4-7.1,17.4
		c-4.7,4.1-11.5,6.1-20.3,6.1H1067.7z M1067.7,398.5h18.4c5.5,0,9.7-1.3,12.6-3.9c2.9-2.6,4.4-6.3,4.4-11.2c0-4.6-1.5-8.3-4.4-11.1
		c-2.9-2.8-6.9-4.2-12-4.3h-19V398.5z"/>
</g>
</svg>
