<svg id="Grupo_8071" data-name="Grupo 8071" xmlns="http://www.w3.org/2000/svg" width="1439.682" height="438.072" viewBox="0 0 1439.682 438.072">
  <rect id="Rectángulo_2" data-name="Rectángulo 2" width="98.42" height="253.928" transform="translate(517.316 57.344)" fill="#333"/>
  <path id="Trazado_1" data-name="Trazado 1" d="M692.791,70.59V23.971H356.013V277.909H692.791v-47.12H454.42V174.244H692.791V127.625H454.42V70.59Z" transform="translate(746.891 33.224)" fill="#333"/>
  <path id="Trazado_2" data-name="Trazado 2" d="M631.266,23.978V174.251L434.355,23.978H335.882V277.905h98.472V127.634L631.266,277.905h98.472V23.978Z" transform="translate(326.492 33.366)" fill="#333"/>
  <path id="Trazado_3" data-name="Trazado 3" d="M373.011,37.029h334.74l20.7,8.272H352.244Zm334.74-5.208H373.011l-67.4,21.773H775.105Z" transform="translate(-305.613 197.16)" fill="#333"/>
  <path id="Trazado_4" data-name="Trazado 4" d="M376.2,263.818H543.344A1073.959,1073.959,0,0,1,644.138,187.8a500.639,500.639,0,0,1-165.5-166.44A568.883,568.883,0,0,0,309.156,187.6,486.688,486.688,0,0,0,376.2,263.818" transform="translate(-231.626 -21.357)" fill="#d3057f"/>
  <path id="Trazado_5" data-name="Trazado 5" d="M312.913,33.052a481.316,481.316,0,0,0,78.821,54.62c18.447-18.885,37.725-37.113,57.573-54.62Z" transform="translate(-153.169 222.867)" fill="#d3057f"/>
  <rect id="Rectángulo_3" data-name="Rectángulo 3" width="21.307" height="68.81" transform="translate(0.475 368.105)" fill="#333"/>
  <path id="Trazado_6" data-name="Trazado 6" d="M307.245,40.067h17.791v8.1a25.846,25.846,0,0,1,8.1-7.046,20.939,20.939,0,0,1,9.957-2.123c5.252,0,9.366,1.51,12.364,4.661s4.463,8.009,4.463,14.6V89.938H340.747V62.519c0-3.151-.546-5.361-1.685-6.63a6.31,6.31,0,0,0-4.945-1.97,6.968,6.968,0,0,0-5.6,2.648c-1.423,1.729-2.167,4.924-2.167,9.431v23.94h-19.1Z" transform="translate(-271.533 346.973)" fill="#333"/>
  <path id="Trazado_7" data-name="Trazado 7" d="M310.02,76.15l18.907-1.816a9.3,9.3,0,0,0,3.349,4.814,10.077,10.077,0,0,0,5.579,1.466,9.2,9.2,0,0,0,5.973-1.685,3.561,3.561,0,0,0,1.664-3.041,3.514,3.514,0,0,0-2.144-3.129c-1.072-.547-3.764-1.182-8.251-1.948-6.63-1.182-11.224-2.254-13.807-3.261a14.776,14.776,0,0,1-6.5-4.945,12.857,12.857,0,0,1-2.692-8.053,13.266,13.266,0,0,1,2.933-8.512,16.871,16.871,0,0,1,7.812-5.274A41.814,41.814,0,0,1,336.3,38.993c5.975,0,10.373.5,13.195,1.379a17.342,17.342,0,0,1,7.068,4.224,21.939,21.939,0,0,1,4.749,7.768l-18.1,1.751a6.113,6.113,0,0,0-2.385-3.523A9.518,9.518,0,0,0,335.4,49.1c-2.122,0-3.741.35-4.7,1.138a3.4,3.4,0,0,0-1.51,2.8,2.938,2.938,0,0,0,1.882,2.735c1.249.591,3.983,1.2,8.184,1.663,6.347.744,11.095,1.729,14.159,3.064a15.188,15.188,0,0,1,7.111,5.449,13.475,13.475,0,0,1,2.429,7.834,15.228,15.228,0,0,1-2.559,8.381,17.976,17.976,0,0,1-8.229,6.5c-3.72,1.576-8.819,2.473-15.3,2.473-9.059,0-15.58-1.335-19.431-3.939A17.542,17.542,0,0,1,310.02,76.15" transform="translate(-213.583 346.932)" fill="#333"/>
  <path id="Trazado_8" data-name="Trazado 8" d="M338.883,38.179V57.108h10.57v14h-10.57V88.794a10.132,10.132,0,0,0,.613,4.158,3.566,3.566,0,0,0,3.3,1.62,20.66,20.66,0,0,0,5.93-1.225l1.4,13.13a57.951,57.951,0,0,1-13.24,1.663c-4.748,0-8.249-.656-10.481-1.882a11.453,11.453,0,0,1-5.034-5.558q-1.607-3.742-1.618-12.079V71.112h-7.046v-14h7.046V47.982Z" transform="translate(-157.366 329.933)" fill="#333"/>
  <path id="Trazado_9" data-name="Trazado 9" d="M314.838,57.108H333.92v49.871H314.838Zm0-18.929H333.92v13H314.838Z" transform="translate(-112.97 329.933)" fill="#333"/>
  <path id="Trazado_10" data-name="Trazado 10" d="M342.317,38.179V57.108h10.5v14h-10.5V88.794c0,2.1.155,3.479.612,4.158a3.425,3.425,0,0,0,3.261,1.62,20.143,20.143,0,0,0,5.91-1.225l1.421,13.13a57.377,57.377,0,0,1-13.261,1.663c-4.682,0-8.228-.656-10.46-1.882a11.552,11.552,0,0,1-5.032-5.558c-1.051-2.494-1.6-6.521-1.6-12.079V71.112h-7.045v-14h7.045V47.982Z" transform="translate(-86.115 329.933)" fill="#333"/>
  <path id="Trazado_11" data-name="Trazado 11" d="M370.9,88.915H353.045v-8.1a26.151,26.151,0,0,1-8.03,7.09,21.5,21.5,0,0,1-9.979,2.166c-5.23,0-9.365-1.663-12.364-4.792s-4.464-7.944-4.464-14.53V39.044h19.213V66.485c0,3.107.569,5.318,1.707,6.7a6.311,6.311,0,0,0,4.858,1.9,6.842,6.842,0,0,0,5.6-2.6c1.445-1.751,2.231-4.9,2.231-9.432V39.044H370.9Z" transform="translate(-42.596 347.997)" fill="#333"/>
  <path id="Trazado_12" data-name="Trazado 12" d="M347.194,38.179V57.108H357.72v14H347.194V88.794a9.867,9.867,0,0,0,.59,4.158,3.5,3.5,0,0,0,3.306,1.62A20.388,20.388,0,0,0,357,93.345l1.423,13.13a57.952,57.952,0,0,1-13.24,1.663c-4.77,0-8.294-.656-10.5-1.882a11.258,11.258,0,0,1-4.99-5.558c-1.138-2.494-1.619-6.521-1.619-12.079V71.112H321v-14h7.067V47.982Z" transform="translate(15.731 329.933)" fill="#333"/>
  <path id="Trazado_13" data-name="Trazado 13" d="M342.089,65.123c0,4.42.964,7.7,2.737,9.869a8.938,8.938,0,0,0,13.567.022c1.729-2.145,2.649-5.471,2.649-10.11,0-4.311-.92-7.506-2.649-9.672a8.771,8.771,0,0,0-13.522.11c-1.817,2.1-2.781,5.4-2.781,9.781m-19.1.022c0-7.593,2.539-13.874,7.7-18.819,5.1-4.88,12.058-7.331,20.767-7.331,10.022,0,17.528,2.867,22.606,8.666a25.186,25.186,0,0,1,6.192,17.2c0,7.659-2.582,13.961-7.66,18.863-5.053,4.858-12.078,7.375-21.05,7.375-8.052,0-14.531-2.079-19.432-6.171-6.127-4.989-9.125-11.62-9.125-19.782" transform="translate(57.203 346.973)" fill="#333"/>
  <path id="Trazado_14" data-name="Trazado 14" d="M327.551,38.179H347.4l25.9,38.039V38.179h20.045v68.811H373.3L347.575,69.2v37.792H327.551Z" transform="translate(152.518 329.927)" fill="#333"/>
  <path id="Trazado_15" data-name="Trazado 15" d="M367.3,66.283c-2.581.9-5.338,1.751-8.25,2.451-3.83,1.029-6.3,2.057-7.331,3.042a4.961,4.961,0,0,0-1.6,3.545A4.811,4.811,0,0,0,351.7,79a6.729,6.729,0,0,0,4.639,1.444,11.523,11.523,0,0,0,5.909-1.554,8.868,8.868,0,0,0,3.9-3.808,12.275,12.275,0,0,0,1.158-5.8ZM350.736,56.239l-18.23-1.969a20.624,20.624,0,0,1,2.953-7.506,15.967,15.967,0,0,1,5.6-4.727,22.4,22.4,0,0,1,7.244-2.3,63.93,63.93,0,0,1,9.934-.744,77.876,77.876,0,0,1,13.809.963,17.048,17.048,0,0,1,8.709,3.961,14.671,14.671,0,0,1,3.828,5.974,22.171,22.171,0,0,1,1.424,7.418V79.3a22.9,22.9,0,0,0,.438,5.493,22.762,22.762,0,0,0,1.947,5.142H370.473a15.75,15.75,0,0,1-1.444-3,20.859,20.859,0,0,1-.635-3.129,24.9,24.9,0,0,1-7.441,5.164A31.467,31.467,0,0,1,349.181,91.1c-6.018,0-10.482-1.379-13.568-4.2a12.919,12.919,0,0,1-4.573-10.153,13.265,13.265,0,0,1,3.3-9.344c2.231-2.429,6.323-4.245,12.253-5.492,7.222-1.422,11.817-2.429,13.985-2.976,2.1-.591,4.375-1.335,6.716-2.254,0-2.407-.482-4.026-1.489-4.967-.919-.919-2.625-1.357-5.1-1.357-3.108,0-5.45.438-7,1.466a8.314,8.314,0,0,0-2.974,4.42" transform="translate(225.372 346.973)" fill="#333"/>
  <path id="Trazado_16" data-name="Trazado 16" d="M373.422,70.375l18.185,2.079a24.735,24.735,0,0,1-4.924,9.781,22.177,22.177,0,0,1-8.773,6.477A34.126,34.126,0,0,1,364.386,91.1a48.323,48.323,0,0,1-13.2-1.554,23.955,23.955,0,0,1-9.1-4.748,26.081,26.081,0,0,1-6-7.747,28.246,28.246,0,0,1-2.123-11.839,28.206,28.206,0,0,1,2.625-12.8,25.305,25.305,0,0,1,12.168-11.138c3.7-1.532,8.446-2.276,14.223-2.276,8.163,0,14.355,1.422,18.622,4.333a23.225,23.225,0,0,1,9.016,12.758l-17.989,2.385a8.225,8.225,0,0,0-3.084-4.792,9.921,9.921,0,0,0-5.974-1.619,9.649,9.649,0,0,0-7.66,3.392c-1.969,2.254-2.909,5.689-2.909,10.307,0,4.07.939,7.156,2.909,9.322a9.589,9.589,0,0,0,7.376,3.2,10.5,10.5,0,0,0,6.367-1.97,11.39,11.39,0,0,0,3.763-5.93" transform="translate(286.516 346.973)" fill="#333"/>
  <path id="Trazado_17" data-name="Trazado 17" d="M337.035,57.108h19.1v49.871h-19.1Zm0-18.929h19.1v13h-19.1Z" transform="translate(350.564 329.933)" fill="#333"/>
  <path id="Trazado_18" data-name="Trazado 18" d="M357.528,65.123c0,4.42.918,7.7,2.691,9.869a8.939,8.939,0,0,0,13.568.022c1.751-2.145,2.648-5.471,2.648-10.11,0-4.311-.9-7.506-2.714-9.672a8.182,8.182,0,0,0-6.564-3.129,8.5,8.5,0,0,0-6.937,3.239c-1.772,2.1-2.691,5.4-2.691,9.781m-19.171.022c0-7.593,2.54-13.874,7.726-18.819,5.1-4.88,12.036-7.331,20.744-7.331,10,0,17.572,2.867,22.6,8.666,4.137,4.661,6.172,10.394,6.172,17.2,0,7.659-2.561,13.961-7.615,18.863-5.077,4.858-12.1,7.375-21.14,7.375-7.986,0-14.443-2.079-19.386-6.171a24.536,24.536,0,0,1-9.105-19.782" transform="translate(378.17 346.973)" fill="#333"/>
  <path id="Trazado_19" data-name="Trazado 19" d="M341.4,40.067h17.746v8.1a26.126,26.126,0,0,1,8.1-7.046,20.911,20.911,0,0,1,9.937-2.123c5.25,0,9.43,1.51,12.428,4.661,2.932,3.151,4.485,8.009,4.485,14.6V89.938H374.875V62.519c0-3.151-.591-5.361-1.75-6.63a6.233,6.233,0,0,0-4.879-1.97,6.977,6.977,0,0,0-5.624,2.648C361.2,58.3,360.454,61.491,360.454,66v23.94H341.4Z" transform="translate(441.612 346.973)" fill="#333"/>
  <path id="Trazado_20" data-name="Trazado 20" d="M380.583,66.283c-2.669.9-5.383,1.751-8.249,2.451-3.874,1.029-6.325,2.057-7.354,3.042a4.9,4.9,0,0,0-1.619,3.545A4.7,4.7,0,0,0,364.979,79a6.632,6.632,0,0,0,4.617,1.444,11.572,11.572,0,0,0,5.909-1.554,9.089,9.089,0,0,0,3.9-3.808,12.786,12.786,0,0,0,1.182-5.8ZM364.017,56.239l-18.294-1.969a20.947,20.947,0,0,1,2.975-7.506,15.839,15.839,0,0,1,5.624-4.727,21.9,21.9,0,0,1,7.223-2.3,64.005,64.005,0,0,1,9.956-.744,76.807,76.807,0,0,1,13.763.963,16.784,16.784,0,0,1,8.71,3.961,14.5,14.5,0,0,1,3.851,5.974,22.175,22.175,0,0,1,1.423,7.418V79.3a29.4,29.4,0,0,0,.393,5.493,30.467,30.467,0,0,0,1.992,5.142H383.712a18.7,18.7,0,0,1-1.423-3,23.031,23.031,0,0,1-.678-3.129,25.045,25.045,0,0,1-7.4,5.164A31.97,31.97,0,0,1,362.4,91.1c-5.932,0-10.482-1.379-13.547-4.2a13.2,13.2,0,0,1-4.638-10.153,13.389,13.389,0,0,1,3.347-9.344c2.232-2.429,6.324-4.245,12.256-5.492,7.2-1.422,11.86-2.429,13.981-2.976,2.1-.591,4.377-1.335,6.785-2.254,0-2.407-.546-4.026-1.466-4.967-.987-.919-2.669-1.357-5.122-1.357-3.128,0-5.492.438-7.024,1.466a7.841,7.841,0,0,0-2.955,4.42" transform="translate(500.48 346.973)" fill="#333"/>
  <rect id="Rectángulo_4" data-name="Rectángulo 4" width="19.167" height="68.81" transform="translate(911.794 368.105)" fill="#333"/>
  <path id="Trazado_21" data-name="Trazado 21" d="M350.234,38.179h56.983V52.871H371.466V63.812h33.121V77.841H371.466V91.336h36.711v15.653H350.234Z" transform="translate(626.204 329.927)" fill="#333"/>
  <rect id="Rectángulo_5" data-name="Rectángulo 5" width="19.125" height="68.81" transform="translate(1045.258 368.105)" fill="#333"/>
  <path id="Trazado_22" data-name="Trazado 22" d="M392.975,60.593c-.35-3.655-1.334-6.324-2.977-7.943a9.292,9.292,0,0,0-13.611,1.225c-1.16,1.466-1.881,3.72-2.231,6.718Zm19.41,9.125H374.134c.329,3.107,1.138,5.361,2.452,6.871a9.236,9.236,0,0,0,7.243,3.26,10.866,10.866,0,0,0,5.339-1.444,12.485,12.485,0,0,0,3.37-3.151l18.775,1.794q-4.332,7.418-10.395,10.744c-4.092,2.145-9.912,3.3-17.506,3.3-6.63,0-11.794-.963-15.58-2.867a23,23,0,0,1-9.411-8.841,26.629,26.629,0,0,1-3.72-14.268c0-7.812,2.5-14.158,7.461-18.907,5.012-4.88,11.883-7.221,20.679-7.221,7.135,0,12.8,1.029,16.85,3.195a21.594,21.594,0,0,1,9.431,9.388c2.189,4.092,3.261,9.388,3.261,15.974Z" transform="translate(719.498 346.973)" fill="#333"/>
  <path id="Trazado_23" data-name="Trazado 23" d="M397.111,70.375l18.205,2.079a26.592,26.592,0,0,1-4.946,9.781,22.728,22.728,0,0,1-8.8,6.477A34.11,34.11,0,0,1,388.1,91.1a48.953,48.953,0,0,1-13.262-1.554,23.715,23.715,0,0,1-9.081-4.748,25.313,25.313,0,0,1-5.975-7.747,28.2,28.2,0,0,1-2.144-11.839,28.158,28.158,0,0,1,2.626-12.8,24.72,24.72,0,0,1,12.122-11.138c3.742-1.532,8.491-2.276,14.288-2.276,8.141,0,14.313,1.422,18.645,4.333a23.124,23.124,0,0,1,8.929,12.758L396.3,58.471a8.105,8.105,0,0,0-3.063-4.792,9.906,9.906,0,0,0-6-1.619,9.559,9.559,0,0,0-7.66,3.392c-1.947,2.254-2.932,5.689-2.932,10.307,0,4.07.962,7.156,2.911,9.322a9.645,9.645,0,0,0,7.417,3.2,10.371,10.371,0,0,0,6.325-1.97,11.191,11.191,0,0,0,3.808-5.93" transform="translate(780.727 346.973)" fill="#333"/>
  <path id="Trazado_24" data-name="Trazado 24" d="M386.674,38.179V57.108h10.548v14H386.674V88.794a9.022,9.022,0,0,0,.635,4.158,3.507,3.507,0,0,0,3.283,1.62,20.01,20.01,0,0,0,5.886-1.225l1.444,13.13a58.118,58.118,0,0,1-13.261,1.663c-4.726,0-8.25-.656-10.5-1.882a11.574,11.574,0,0,1-4.989-5.558c-1.052-2.494-1.6-6.521-1.6-12.079V71.112h-7.045v-14h7.045V47.982Z" transform="translate(841.098 329.933)" fill="#333"/>
  <path id="Trazado_25" data-name="Trazado 25" d="M381.615,65.123c0,4.42.919,7.7,2.713,9.869a8.567,8.567,0,0,0,6.761,3.129,8.46,8.46,0,0,0,6.762-3.107c1.8-2.145,2.669-5.471,2.669-10.11,0-4.311-.873-7.506-2.69-9.672a8.316,8.316,0,0,0-6.588-3.129,8.46,8.46,0,0,0-6.915,3.239c-1.794,2.1-2.713,5.4-2.713,9.781m-19.1.022c0-7.593,2.5-13.874,7.7-18.819q7.645-7.32,20.743-7.331c10.021,0,17.506,2.867,22.6,8.666a25.147,25.147,0,0,1,6.149,17.2q0,11.489-7.614,18.863C407,88.582,400,91.1,390.981,91.1c-7.988,0-14.464-2.079-19.41-6.171-6.061-4.989-9.06-11.62-9.06-19.782" transform="translate(882.593 346.973)" fill="#333"/>
  <path id="Trazado_26" data-name="Trazado 26" d="M365.555,40.067h17.857v8.162c1.771-3.545,3.545-5.93,5.318-7.265a11.314,11.314,0,0,1,6.848-1.969,20.352,20.352,0,0,1,9.234,2.6l-5.907,13.589a15.683,15.683,0,0,0-5.385-1.4,6.587,6.587,0,0,0-5.8,3.086c-1.969,2.932-2.976,8.337-2.976,16.346V89.938H365.555Z" transform="translate(946.139 346.973)" fill="#333"/>
  <path id="Trazado_27" data-name="Trazado 27" d="M403.768,66.283c-2.647.9-5.382,1.751-8.2,2.451-3.894,1.029-6.345,2.057-7.375,3.042a4.905,4.905,0,0,0-1.62,3.545A4.811,4.811,0,0,0,388.145,79a6.846,6.846,0,0,0,4.64,1.444,11.657,11.657,0,0,0,5.93-1.554,9.148,9.148,0,0,0,3.917-3.808,12.548,12.548,0,0,0,1.136-5.8ZM387.2,56.239l-18.25-1.969a20.561,20.561,0,0,1,2.977-7.506,16.343,16.343,0,0,1,5.6-4.727,21.919,21.919,0,0,1,7.2-2.3,64.88,64.88,0,0,1,9.957-.744,76.6,76.6,0,0,1,13.786.963,17.034,17.034,0,0,1,8.732,3.961,14.465,14.465,0,0,1,3.828,5.974,22.086,22.086,0,0,1,1.38,7.418V79.3a23.777,23.777,0,0,0,.48,5.493,23.65,23.65,0,0,0,1.926,5.142H406.9a16.749,16.749,0,0,1-1.422-3,24.192,24.192,0,0,1-.635-3.129,24.9,24.9,0,0,1-7.44,5.164,31.766,31.766,0,0,1-11.8,2.123c-5.952,0-10.438-1.379-13.567-4.2a14.1,14.1,0,0,1-1.247-19.5c2.232-2.429,6.282-4.245,12.3-5.492,7.134-1.422,11.839-2.429,13.919-2.976a69.733,69.733,0,0,0,6.76-2.254c0-2.407-.48-4.026-1.421-4.967-.962-.919-2.714-1.357-5.165-1.357-3.107,0-5.491.438-7.023,1.466a8.179,8.179,0,0,0-2.954,4.42" transform="translate(986.004 346.973)" fill="#333"/>
  <rect id="Rectángulo_6" data-name="Rectángulo 6" width="19.169" height="68.81" transform="translate(1420.512 368.105)" fill="#333"/>
</svg>
