<?xml version="1.0" encoding="utf-8"?>
<!-- Generator: Adobe Illustrator 24.3.0, SVG Export Plug-In . SVG Version: 6.00 Build 0)  -->
<svg version="1.0" id="Capa_1" xmlns="http://www.w3.org/2000/svg" xmlns:xlink="http://www.w3.org/1999/xlink" x="0px" y="0px"
	 viewBox="0 0 22 21" style="enable-background:new 0 0 22 21;" xml:space="preserve">
<style type="text/css">
	.st0{fill:#D2127E;}
	.st1{fill:none;stroke:#FFFFFF;stroke-width:4;}
	.st2{fill:#83044C;}
	.st3{fill:#FFFFFF;}
	.st4{fill:#C4006E;}
	.st5{fill:#DDDDDD;}
	.st6{fill:none;stroke:#D2127E;stroke-width:4;}
	.st7{fill-rule:evenodd;clip-rule:evenodd;fill:#FFFFFF;}
	.st8{fill:none;stroke:#D2127E;}
	.st9{fill:#D8D8D8;}
	.st10{fill:#79134C;}
	.st11{fill:#D971A9;}
	.st12{fill:#D3097F;}
	.st13{fill:#FFF8F8;}
	.st14{fill:#34344E;}
	.st15{fill:none;stroke:#34344E;stroke-width:2;}
	.st16{fill:#333333;}
	.st17{fill:none;stroke:#707070;}
	.st18{fill:none;}
	.st19{fill:none;stroke:#000000;stroke-width:2;}
	.st20{fill:#D31480;}
	.st21{clip-path:url(#SVGID_2_);}
	.st22{fill:#1D1D1B;}
	.st23{fill:#E7987B;}
	.st24{fill:#EDECEC;}
	.st25{fill:#F5A979;}
	.st26{fill:#26595D;}
	.st27{fill:#444343;}
	.st28{fill:#DADADA;}
	.st29{fill:#DE8B72;}
	.st30{fill:#3F3F3E;}
	.st31{opacity:0.35;}
	.st32{clip-path:url(#SVGID_4_);}
	.st33{clip-path:url(#SVGID_6_);}
	.st34{fill:#5DA7AD;}
	.st35{fill:#2F6E74;}
	.st36{fill:#388389;}
	.st37{fill:#122C2E;}
	.st38{opacity:0.2;}
	.st39{clip-path:url(#SVGID_8_);}
	.st40{fill:#D1308A;}
	.st41{opacity:0.36;fill:#D2127E;enable-background:new    ;}
	.st42{opacity:0.6;fill:#D2127E;enable-background:new    ;}
	.st43{clip-path:url(#SVGID_10_);}
	.st44{fill:#79687B;}
	.st45{clip-path:url(#SVGID_12_);}
	.st46{fill:#B60F6E;}
	.st47{fill:#DFDFDF;}
	.st48{fill:none;stroke:#B32066;stroke-miterlimit:10;}
	.st49{fill:none;stroke:#ED841E;stroke-miterlimit:10;}
	.st50{clip-path:url(#SVGID_14_);}
	.st51{opacity:0.63;}
	.st52{opacity:0.53;fill:none;stroke:#FFFFFF;stroke-miterlimit:10;}
	.st53{opacity:0.53;fill:#FFFFFF;}
	.st54{opacity:0.5;}
	.st55{fill:url(#SVGID_17_);}
	.st56{fill:url(#SVGID_18_);}
	.st57{fill:url(#SVGID_19_);}
	.st58{fill:url(#SVGID_20_);}
	.st59{fill:url(#SVGID_21_);}
	.st60{fill:url(#SVGID_22_);}
	.st61{fill:url(#SVGID_23_);}
	.st62{fill:url(#SVGID_24_);}
	.st63{fill:url(#SVGID_25_);}
	.st64{fill:url(#SVGID_26_);}
	.st65{fill:url(#SVGID_27_);}
	.st66{fill:url(#SVGID_28_);}
	.st67{fill:url(#SVGID_29_);}
	.st68{fill:url(#SVGID_30_);}
	.st69{fill:url(#SVGID_31_);}
	.st70{fill:url(#SVGID_32_);}
	.st71{fill:url(#SVGID_33_);}
	.st72{fill:url(#SVGID_34_);}
	.st73{fill:url(#SVGID_35_);}
	.st74{fill:url(#SVGID_36_);}
	.st75{fill:url(#SVGID_37_);}
	.st76{fill:url(#SVGID_38_);}
	.st77{fill:url(#SVGID_39_);}
	.st78{fill:url(#SVGID_40_);}
	.st79{fill:#C6B6B0;}
	.st80{fill:#606060;}
	.st81{fill:#D5137F;}
	.st82{fill:#2C2C2C;}
	.st83{fill:none;stroke:#FFFFFF;}
</style>
<g id="Grupo_9092_2_" transform="translate(0 0)">
	<path id="Trazado_1767_2_" class="st81" d="M11.2,7.3c-1.7,0-3.1,1.4-3.1,3.1s1.4,3.1,3.1,3.1c1.7,0,3.1-1.4,3.1-3.1l0,0
		C14.2,8.6,12.9,7.3,11.2,7.3z M11.2,12.3c-1.1,0-2-0.9-2-2c0-1.1,0.9-2,2-2c1.1,0,2,0.9,2,2c0,0,0,0,0,0
		C13.1,11.4,12.3,12.3,11.2,12.3L11.2,12.3z"/>
	<path id="Trazado_1768_2_" class="st81" d="M14.7,7.5c0.1,0,0.3-0.1,0.4-0.2l1.7-1.7c0.2-0.2,0.2-0.6,0-0.8c-0.2-0.2-0.5-0.2-0.8,0
		l-1.7,1.7c-0.2,0.2-0.2,0.6,0,0.8C14.4,7.4,14.6,7.5,14.7,7.5L14.7,7.5z"/>
	<path id="Trazado_1769_2_" class="st81" d="M7.4,13.5L5.8,15c-0.2,0.2-0.2,0.6,0,0.8c0.2,0.2,0.6,0.2,0.8,0c0,0,0,0,0,0l1.5-1.5
		c0.2-0.2,0.2-0.6,0-0.8C7.9,13.3,7.6,13.3,7.4,13.5L7.4,13.5z"/>
	<path id="Trazado_1770_2_" class="st81" d="M15.1,13.4c-0.2-0.2-0.6-0.2-0.8,0c-0.2,0.2-0.2,0.5,0,0.7l1.7,1.7
		c0.2,0.2,0.6,0.2,0.8,0c0,0,0,0,0,0c0.2-0.2,0.2-0.6,0-0.8c0,0,0,0,0,0L15.1,13.4z"/>
	<path id="Trazado_1771_2_" class="st81" d="M7.4,7.2c0.1,0.1,0.2,0.2,0.4,0.2c0.3,0,0.6-0.2,0.6-0.5c0-0.1-0.1-0.3-0.2-0.4L6.6,4.9
		C6.4,4.7,6,4.7,5.8,4.9c-0.2,0.2-0.2,0.5,0,0.7L7.4,7.2z"/>
	<path id="Trazado_1772_2_" class="st81" d="M18.5,9.8h-2.4c-0.3,0-0.6,0.2-0.6,0.6c0,0.3,0.2,0.5,0.6,0.5h2.4
		c0.3,0,0.6-0.2,0.6-0.5C19.1,10,18.8,9.8,18.5,9.8L18.5,9.8z"/>
	<path id="Trazado_1773_2_" class="st81" d="M6.8,10.3c0-0.3-0.2-0.5-0.5-0.5H4.1c-0.3,0-0.5,0.2-0.5,0.5c0,0.3,0.2,0.6,0.5,0.6h2.1
		C6.6,10.9,6.8,10.6,6.8,10.3z"/>
	<path id="Trazado_1774_2_" class="st81" d="M11.3,6c0.3,0,0.5-0.2,0.5-0.5c0,0,0,0,0,0V3.1c0-0.3-0.2-0.5-0.5-0.6
		c-0.3,0-0.6,0.2-0.6,0.6l0,0v2.3C10.8,5.7,11,6,11.3,6C11.3,6,11.3,6,11.3,6z"/>
	<path id="Trazado_1775_2_" class="st81" d="M11.3,14.7c-0.3,0-0.5,0.2-0.5,0.5v0v2.3c0,0.3,0.2,0.5,0.6,0.5c0.3,0,0.5-0.2,0.5-0.5
		v-2.3C11.9,14.9,11.6,14.7,11.3,14.7C11.3,14.7,11.3,14.7,11.3,14.7z"/>
</g>
</svg>
