<?xml version="1.0" encoding="utf-8"?>
<!-- Generator: Adobe Illustrator 24.3.0, SVG Export Plug-In . SVG Version: 6.00 Build 0)  -->
<svg version="1.0" id="Capa_1" xmlns="http://www.w3.org/2000/svg" xmlns:xlink="http://www.w3.org/1999/xlink" x="0px" y="0px"
	 viewBox="0 0 22 21" style="enable-background:new 0 0 22 21;" xml:space="preserve">
<style type="text/css">
	.st0{fill:#D2127E;}
	.st1{fill:none;stroke:#FFFFFF;stroke-width:4;}
	.st2{fill:#83044C;}
	.st3{fill:#FFFFFF;}
	.st4{fill:#C4006E;}
	.st5{fill:#DDDDDD;}
	.st6{fill:none;stroke:#D2127E;stroke-width:4;}
	.st7{fill-rule:evenodd;clip-rule:evenodd;fill:#FFFFFF;}
	.st8{fill:none;stroke:#D2127E;}
	.st9{fill:#D8D8D8;}
	.st10{fill:#79134C;}
	.st11{fill:#D971A9;}
	.st12{fill:#D3097F;}
	.st13{fill:#FFF8F8;}
	.st14{fill:#34344E;}
	.st15{fill:none;stroke:#34344E;stroke-width:2;}
	.st16{fill:#333333;}
	.st17{fill:none;stroke:#707070;}
	.st18{fill:none;}
	.st19{fill:none;stroke:#000000;stroke-width:2;}
	.st20{fill:#D31480;}
	.st21{clip-path:url(#SVGID_2_);}
	.st22{fill:#1D1D1B;}
	.st23{fill:#E7987B;}
	.st24{fill:#EDECEC;}
	.st25{fill:#F5A979;}
	.st26{fill:#26595D;}
	.st27{fill:#444343;}
	.st28{fill:#DADADA;}
	.st29{fill:#DE8B72;}
	.st30{fill:#3F3F3E;}
	.st31{opacity:0.35;}
	.st32{clip-path:url(#SVGID_4_);}
	.st33{clip-path:url(#SVGID_6_);}
	.st34{fill:#5DA7AD;}
	.st35{fill:#2F6E74;}
	.st36{fill:#388389;}
	.st37{fill:#122C2E;}
	.st38{opacity:0.2;}
	.st39{clip-path:url(#SVGID_8_);}
	.st40{fill:#D1308A;}
	.st41{opacity:0.36;fill:#D2127E;enable-background:new    ;}
	.st42{opacity:0.6;fill:#D2127E;enable-background:new    ;}
	.st43{clip-path:url(#SVGID_10_);}
	.st44{fill:#79687B;}
	.st45{clip-path:url(#SVGID_12_);}
	.st46{fill:#B60F6E;}
	.st47{fill:#DFDFDF;}
	.st48{fill:none;stroke:#B32066;stroke-miterlimit:10;}
	.st49{fill:none;stroke:#ED841E;stroke-miterlimit:10;}
	.st50{clip-path:url(#SVGID_14_);}
	.st51{opacity:0.63;}
	.st52{opacity:0.53;fill:none;stroke:#FFFFFF;stroke-miterlimit:10;}
	.st53{opacity:0.53;fill:#FFFFFF;}
	.st54{opacity:0.5;}
	.st55{fill:url(#SVGID_17_);}
	.st56{fill:url(#SVGID_18_);}
	.st57{fill:url(#SVGID_19_);}
	.st58{fill:url(#SVGID_20_);}
	.st59{fill:url(#SVGID_21_);}
	.st60{fill:url(#SVGID_22_);}
	.st61{fill:url(#SVGID_23_);}
	.st62{fill:url(#SVGID_24_);}
	.st63{fill:url(#SVGID_25_);}
	.st64{fill:url(#SVGID_26_);}
	.st65{fill:url(#SVGID_27_);}
	.st66{fill:url(#SVGID_28_);}
	.st67{fill:url(#SVGID_29_);}
	.st68{fill:url(#SVGID_30_);}
	.st69{fill:url(#SVGID_31_);}
	.st70{fill:url(#SVGID_32_);}
	.st71{fill:url(#SVGID_33_);}
	.st72{fill:url(#SVGID_34_);}
	.st73{fill:url(#SVGID_35_);}
	.st74{fill:url(#SVGID_36_);}
	.st75{fill:url(#SVGID_37_);}
	.st76{fill:url(#SVGID_38_);}
	.st77{fill:url(#SVGID_39_);}
	.st78{fill:url(#SVGID_40_);}
	.st79{fill:#C6B6B0;}
	.st80{fill:#606060;}
	.st81{fill:#D5137F;}
	.st82{fill:#2C2C2C;}
	.st83{fill:none;stroke:#FFFFFF;}
</style>
<path id="Trazado_4251" class="st82" d="M18.4,11.6C18.4,11.6,18.4,11.6,18.4,11.6c0,0.1,0,0.1,0,0.2c-1,3.8-4.9,6-8.7,5
	c-3.8-1-6-4.9-5-8.7c0.7-2.4,2.6-4.3,5-5c0,0,0,0,0,0c0,0,0.1,0,0.1,0c0.3,0,0.5,0.2,0.5,0.5c0,0.1,0,0.2-0.1,0.2
	c-1.5,2.6-0.5,5.9,2.1,7.4c1.6,0.9,3.6,0.9,5.3,0c0,0,0,0,0,0c0,0,0.1,0,0.1,0c0.1,0,0.1,0,0.2,0C18.2,11.1,18.4,11.3,18.4,11.6z"/>
</svg>
