<?xml version="1.0" encoding="utf-8"?>
<!-- Generator: Adobe Illustrator 24.3.0, SVG Export Plug-In . SVG Version: 6.00 Build 0)  -->
<svg version="1.0" id="Capa_1" xmlns="http://www.w3.org/2000/svg" xmlns:xlink="http://www.w3.org/1999/xlink" x="0px" y="0px"
	 viewBox="0 0 135 60" style="enable-background:new 0 0 135 60;" xml:space="preserve">
<style type="text/css">
	.st0{fill:#D2127E;}
	.st1{fill:none;stroke:#FFFFFF;stroke-width:4;}
	.st2{fill:#83044C;}
	.st3{fill:#FFFFFF;}
	.st4{fill:#C4006E;}
	.st5{fill:#DDDDDD;}
	.st6{fill:none;stroke:#D2127E;stroke-width:4;}
	.st7{fill-rule:evenodd;clip-rule:evenodd;fill:#FFFFFF;}
	.st8{fill:none;stroke:#D2127E;}
	.st9{fill:#D8D8D8;}
	.st10{fill:#79134C;}
	.st11{fill:#D971A9;}
	.st12{fill:#D3097F;}
	.st13{fill:#FFF8F8;}
	.st14{fill:#34344E;}
	.st15{fill:none;stroke:#34344E;stroke-width:2;}
	.st16{fill:#333333;}
	.st17{fill:none;stroke:#707070;}
	.st18{fill:none;}
	.st19{fill:none;stroke:#000000;stroke-width:2;}
	.st20{fill:#D31480;}
	.st21{clip-path:url(#SVGID_2_);}
	.st22{fill:#1D1D1B;}
	.st23{fill:#E7987B;}
	.st24{fill:#EDECEC;}
	.st25{fill:#F5A979;}
	.st26{fill:#26595D;}
	.st27{fill:#444343;}
	.st28{fill:#DADADA;}
	.st29{fill:#DE8B72;}
	.st30{fill:#3F3F3E;}
	.st31{opacity:0.35;}
	.st32{clip-path:url(#SVGID_4_);}
	.st33{clip-path:url(#SVGID_6_);}
	.st34{fill:#5DA7AD;}
	.st35{fill:#2F6E74;}
	.st36{fill:#388389;}
	.st37{fill:#122C2E;}
	.st38{opacity:0.2;}
	.st39{clip-path:url(#SVGID_8_);}
	.st40{fill:#D1308A;}
	.st41{opacity:0.36;fill:#D2127E;enable-background:new    ;}
	.st42{opacity:0.6;fill:#D2127E;enable-background:new    ;}
	.st43{clip-path:url(#SVGID_10_);}
	.st44{fill:#79687B;}
	.st45{clip-path:url(#SVGID_12_);}
	.st46{fill:#B60F6E;}
	.st47{fill:#DFDFDF;}
	.st48{fill:none;stroke:#B32066;stroke-miterlimit:10;}
	.st49{fill:none;stroke:#ED841E;stroke-miterlimit:10;}
	.st50{clip-path:url(#SVGID_14_);}
	.st51{opacity:0.63;}
	.st52{opacity:0.53;fill:none;stroke:#FFFFFF;stroke-miterlimit:10;}
	.st53{opacity:0.53;fill:#FFFFFF;}
	.st54{opacity:0.5;}
	.st55{fill:url(#SVGID_17_);}
	.st56{fill:url(#SVGID_18_);}
	.st57{fill:url(#SVGID_19_);}
	.st58{fill:url(#SVGID_20_);}
	.st59{fill:url(#SVGID_21_);}
	.st60{fill:url(#SVGID_22_);}
	.st61{fill:url(#SVGID_23_);}
	.st62{fill:url(#SVGID_24_);}
	.st63{fill:url(#SVGID_25_);}
	.st64{fill:url(#SVGID_26_);}
	.st65{fill:url(#SVGID_27_);}
	.st66{fill:url(#SVGID_28_);}
	.st67{fill:url(#SVGID_29_);}
	.st68{fill:url(#SVGID_30_);}
	.st69{fill:url(#SVGID_31_);}
	.st70{fill:url(#SVGID_32_);}
	.st71{fill:url(#SVGID_33_);}
	.st72{fill:url(#SVGID_34_);}
	.st73{fill:url(#SVGID_35_);}
	.st74{fill:url(#SVGID_36_);}
	.st75{fill:url(#SVGID_37_);}
	.st76{fill:url(#SVGID_38_);}
	.st77{fill:url(#SVGID_39_);}
	.st78{fill:url(#SVGID_40_);}
	.st79{fill:#C6B6B0;}
	.st80{fill:#606060;}
</style>
<g id="Grupo_627_1_" transform="translate(434 -113.114)">
	<path id="Trazado_365_1_" class="st0" d="M-390.3,165h-2.9v-35.5c0-0.8-0.6-1.4-1.5-1.4l0,0h-10.9v-3.6c0-0.8-0.6-1.4-1.5-1.4l0,0
		H-417c-0.8,0-1.5,0.6-1.5,1.4v0v3.6h-1.2c-0.8,0-1.5,0.6-1.5,1.4v0V165h-2.9c-0.8,0-1.4,0.6-1.5,1.4c0,0.8,0.6,1.5,1.4,1.5
		c0,0,0,0,0.1,0h33.7c0.8,0,1.4-0.6,1.4-1.5c0,0,0,0,0-0.1C-388.9,165.6-389.5,165-390.3,165L-390.3,165z M-410.7,153h-1.6
		c-0.8,0-1.5-0.6-1.5-1.4c0,0,0,0,0,0c0-0.8,0.6-1.4,1.5-1.4l0,0h1.6c0.8,0,1.5,0.6,1.5,1.4c0,0,0,0,0,0
		C-409.2,152.3-409.9,153-410.7,153L-410.7,153z M-410.7,147.5h-1.6c-0.8,0-1.5-0.6-1.5-1.4c0,0,0,0,0,0c0-0.8,0.6-1.4,1.5-1.4l0,0
		h1.6c0.8,0,1.5,0.6,1.5,1.4c0,0,0,0,0,0C-409.2,146.9-409.9,147.5-410.7,147.5L-410.7,147.5z M-410.7,142.1h-1.6
		c-0.8,0-1.5-0.6-1.5-1.4c0,0,0,0,0,0c0-0.8,0.6-1.4,1.5-1.4l0,0h1.6c0.8,0,1.5,0.6,1.5,1.4c0,0,0,0,0,0
		C-409.2,141.4-409.9,142.1-410.7,142.1L-410.7,142.1z M-410.7,136.6h-1.6c-0.8,0-1.5-0.6-1.5-1.4l0,0c0-0.8,0.6-1.4,1.5-1.4l0,0
		h1.6c0.8,0,1.5,0.6,1.5,1.4v0C-409.2,136-409.9,136.6-410.7,136.6L-410.7,136.6z M-402.1,153h-1.6c-0.8,0-1.5-0.6-1.5-1.4
		c0,0,0,0,0,0c0-0.8,0.6-1.4,1.5-1.4l0,0h1.6c0.8,0,1.5,0.6,1.5,1.4c0,0,0,0,0,0C-400.6,152.3-401.3,153-402.1,153L-402.1,153z
		 M-402.1,147.5h-1.6c-0.8,0-1.5-0.6-1.5-1.4c0,0,0,0,0,0c0-0.8,0.6-1.4,1.5-1.4l0,0h1.6c0.8,0,1.5,0.6,1.5,1.4c0,0,0,0,0,0
		C-400.6,146.9-401.3,147.5-402.1,147.5L-402.1,147.5z M-402.1,142.1h-1.6c-0.8,0-1.5-0.6-1.5-1.4c0,0,0,0,0,0
		c0-0.8,0.6-1.4,1.5-1.4l0,0h1.6c0.8,0,1.5,0.6,1.5,1.4c0,0,0,0,0,0C-400.6,141.4-401.3,142.1-402.1,142.1L-402.1,142.1z
		 M-402.1,136.6h-1.6c-0.8,0-1.5-0.6-1.5-1.4l0,0c0-0.8,0.6-1.4,1.5-1.4l0,0h1.6c0.8,0,1.5,0.6,1.5,1.4v0
		C-400.6,136-401.3,136.6-402.1,136.6L-402.1,136.6z"/>
</g>
<g id="Grupo_630_1_" transform="translate(44 -1.811)">
	<path id="Trazado_369_1_" class="st0" d="M33.2,34.4L19.7,22c-0.6-0.5-1.5-0.5-2.1,0L4.1,34.4c-0.6,0.6-0.7,1.6-0.1,2.2
		C4.3,36.9,4.7,37,5.1,37h2.2v12.3c0,0.5,0.4,0.9,0.9,0.9h7.4c0.5,0,0.9-0.4,0.9-0.9v-7.5h4.4v7.5c0,0.5,0.4,0.9,0.9,0.9h7.4
		c0.5,0,0.9-0.4,0.9-0.9V37h2.2c0.9,0,1.5-0.7,1.5-1.5C33.7,35.1,33.5,34.6,33.2,34.4z"/>
	<path id="Trazado_370_1_" class="st0" d="M30.6,29.6v-5.3c0-0.5-0.4-0.9-0.9-0.9l0,0h-5.9L30.6,29.6z"/>
</g>
<g id="Grupo_6239_1_" transform="translate(-267.717 -178.763)">
	<g id="Grupo_3343_1_" transform="translate(350.717 202.576)">
		<path id="Trazado_5275_1_" class="st0" d="M5,23c-0.5,0-1-0.4-1-1v-5c0-0.5,0.4-1,1-1h4.2c0.2,0,0.3-0.1,0.4-0.3
			c0-0.1,0.1-0.2,0.2-0.4l4-5.5c0.3-0.4,0.7-0.6,1.2-0.6h13.5c0.5,0,0.9,0.2,1.2,0.6l3.9,5.5c0.1,0.1,0.1,0.2,0.2,0.3
			c0.1,0.2,0.2,0.3,0.4,0.3h0.4c6.1,0,8.9,1.8,8.9,6c0,0.5-0.4,1-1,1L5,23z"/>
		<path id="Trazado_5276_1_" class="st0" d="M28.4,9.8c0.3,0,0.6,0.2,0.8,0.4l3.9,5.5c0.1,0.1,0.1,0.2,0.1,0.2
			c0.1,0.3,0.4,0.5,0.8,0.6h0.4c2.1-0.1,4.2,0.3,6.2,1.2c1.6,0.9,2.4,2.6,2.3,4.4c0,0.3-0.2,0.5-0.5,0.5H5c-0.3,0-0.5-0.2-0.5-0.5
			v-5c0-0.3,0.2-0.5,0.5-0.5h4.2c0.4,0,0.7-0.2,0.8-0.6c0-0.1,0.1-0.2,0.1-0.2l4-5.5c0.2-0.3,0.5-0.4,0.8-0.4L28.4,9.8 M28.4,9H14.9
			c-0.6,0-1.2,0.3-1.5,0.8l-4,5.5c-0.1,0.1-0.2,0.3-0.2,0.5H4.9c-0.8,0-1.4,0.6-1.4,1.4c0,0,0,0,0,0v5c0,0.8,0.6,1.4,1.4,1.4l0,0
			h37.5c0.8,0,1.4-0.6,1.4-1.4c0,0,0,0,0,0l0,0c0-5.1-4.2-6.4-9.3-6.4h-0.4c-0.1-0.2-0.1-0.3-0.2-0.4l-3.9-5.5C29.6,9.2,29,9,28.4,9
			L28.4,9z"/>
	</g>
	<g id="Grupo_3344_1_" transform="translate(359.998 205.403)">
		<path id="Trazado_5277_1_" class="st3" d="M7.5,9.8H10 M10,9H7.5c-2.2,0-4,1.8-4,4c0,0.4,0.3,0.7,0.7,0.7l0,0h6.5
			c0.4,0,0.7-0.3,0.7-0.7v0v-2.5C11.4,9.6,10.8,9,10,9L10,9L10,9z"/>
	</g>
	<g id="Grupo_3345_1_" transform="translate(369.848 205.403)">
		<path id="Trazado_5278_1_" class="st3" d="M7.3,9H4.8c-0.7,0-1.2,0.5-1.2,1.2c0,0,0,0,0,0V13c0,0.3,0.3,0.6,0.6,0.6c0,0,0,0,0,0
			h6.7c0.3,0,0.6-0.3,0.6-0.6C11.4,10.8,9.6,9,7.3,9L7.3,9z"/>
	</g>
	<g id="Grupo_3346_1_" transform="translate(357.913 213.597)">
		<path id="Trazado_5279_1_" class="st4" d="M6.7,14.8c-1.5,0-2.7-1.2-2.7-2.7s1.2-2.7,2.7-2.7c1.5,0,2.7,1.2,2.7,2.7
			S8.2,14.8,6.7,14.8L6.7,14.8z"/>
		<path id="Trazado_5280_1_" class="st3" d="M6.7,9.8c1.3,0,2.3,1,2.3,2.3s-1,2.3-2.3,2.3c-1.3,0-2.3-1-2.3-2.3l0,0
			C4.4,10.8,5.4,9.8,6.7,9.8 M6.7,9C5,9,3.6,10.4,3.6,12.1s1.4,3.1,3.1,3.1c1.7,0,3.1-1.4,3.1-3.1S8.4,9,6.7,9L6.7,9z"/>
	</g>
	<g id="Grupo_3347_1_" transform="translate(377.455 213.597)">
		<path id="Trazado_5281_1_" class="st4" d="M6.7,14.8c-1.5,0-2.7-1.2-2.7-2.7s1.2-2.7,2.7-2.7c1.5,0,2.7,1.2,2.7,2.7
			S8.2,14.8,6.7,14.8L6.7,14.8z"/>
		<path id="Trazado_5282_1_" class="st3" d="M6.7,9.8c1.3,0,2.3,1,2.3,2.3s-1,2.3-2.3,2.3c-1.3,0-2.3-1-2.3-2.3l0,0
			C4.4,10.8,5.4,9.8,6.7,9.8 M6.7,9C5,9,3.6,10.4,3.6,12.1s1.4,3.1,3.1,3.1c1.7,0,3.1-1.4,3.1-3.1S8.4,9,6.7,9L6.7,9z"/>
	</g>
</g>
</svg>
