<?xml version="1.0" encoding="utf-8"?>
<!-- Generator: Adobe Illustrator 24.3.0, SVG Export Plug-In . SVG Version: 6.00 Build 0)  -->
<svg version="1.0" id="Capa_1" xmlns="http://www.w3.org/2000/svg" xmlns:xlink="http://www.w3.org/1999/xlink" x="0px" y="0px"
	 viewBox="0 0 135 60" style="enable-background:new 0 0 135 60;" xml:space="preserve">
<style type="text/css">
	.st0{fill:#D2127E;}
	.st1{fill:none;stroke:#FFFFFF;stroke-width:4;}
	.st2{fill:#83044C;}
	.st3{fill:#FFFFFF;}
	.st4{fill:#C4006E;}
	.st5{fill:#DDDDDD;}
	.st6{fill:none;stroke:#D2127E;stroke-width:4;}
	.st7{fill-rule:evenodd;clip-rule:evenodd;fill:#FFFFFF;}
	.st8{fill:none;stroke:#D2127E;}
	.st9{fill:#D8D8D8;}
	.st10{fill:#79134C;}
	.st11{fill:#D971A9;}
	.st12{fill:#D3097F;}
	.st13{fill:#FFF8F8;}
	.st14{fill:#34344E;}
	.st15{fill:none;stroke:#34344E;stroke-width:2;}
	.st16{fill:#333333;}
	.st17{fill:none;stroke:#707070;}
	.st18{fill:none;}
	.st19{fill:none;stroke:#000000;stroke-width:2;}
	.st20{fill:#D31480;}
	.st21{clip-path:url(#SVGID_2_);}
	.st22{fill:#1D1D1B;}
	.st23{fill:#E7987B;}
	.st24{fill:#EDECEC;}
	.st25{fill:#F5A979;}
	.st26{fill:#26595D;}
	.st27{fill:#444343;}
	.st28{fill:#DADADA;}
	.st29{fill:#DE8B72;}
	.st30{fill:#3F3F3E;}
	.st31{opacity:0.35;}
	.st32{clip-path:url(#SVGID_4_);}
	.st33{clip-path:url(#SVGID_6_);}
	.st34{fill:#5DA7AD;}
	.st35{fill:#2F6E74;}
	.st36{fill:#388389;}
	.st37{fill:#122C2E;}
	.st38{opacity:0.2;}
	.st39{clip-path:url(#SVGID_8_);}
	.st40{fill:#D1308A;}
	.st41{opacity:0.36;fill:#D2127E;enable-background:new    ;}
	.st42{opacity:0.6;fill:#D2127E;enable-background:new    ;}
	.st43{clip-path:url(#SVGID_10_);}
	.st44{fill:#79687B;}
	.st45{clip-path:url(#SVGID_12_);}
	.st46{fill:#B60F6E;}
	.st47{fill:#DFDFDF;}
	.st48{fill:none;stroke:#B32066;stroke-miterlimit:10;}
	.st49{fill:none;stroke:#ED841E;stroke-miterlimit:10;}
	.st50{clip-path:url(#SVGID_14_);}
	.st51{opacity:0.63;}
	.st52{opacity:0.53;fill:none;stroke:#FFFFFF;stroke-miterlimit:10;}
	.st53{opacity:0.53;fill:#FFFFFF;}
	.st54{opacity:0.5;}
	.st55{fill:url(#SVGID_17_);}
	.st56{fill:url(#SVGID_18_);}
	.st57{fill:url(#SVGID_19_);}
	.st58{fill:url(#SVGID_20_);}
	.st59{fill:url(#SVGID_21_);}
	.st60{fill:url(#SVGID_22_);}
	.st61{fill:url(#SVGID_23_);}
	.st62{fill:url(#SVGID_24_);}
	.st63{fill:url(#SVGID_25_);}
	.st64{fill:url(#SVGID_26_);}
	.st65{fill:url(#SVGID_27_);}
	.st66{fill:url(#SVGID_28_);}
	.st67{fill:url(#SVGID_29_);}
	.st68{fill:url(#SVGID_30_);}
	.st69{fill:url(#SVGID_31_);}
	.st70{fill:url(#SVGID_32_);}
	.st71{fill:url(#SVGID_33_);}
	.st72{fill:url(#SVGID_34_);}
	.st73{fill:url(#SVGID_35_);}
	.st74{fill:url(#SVGID_36_);}
	.st75{fill:url(#SVGID_37_);}
	.st76{fill:url(#SVGID_38_);}
	.st77{fill:url(#SVGID_39_);}
	.st78{fill:url(#SVGID_40_);}
	.st79{fill:#C6B6B0;}
	.st80{fill:#606060;}
</style>
<path id="Trazado_361_1_" class="st2" d="M93.7,21.8c0-2.9-2.3-5.2-5.2-5.3c-2.1-3.1-6.3-3.9-9.4-1.7c-0.7,0.5-1.3,1.1-1.7,1.7
	c-2.9,0.1-5.2,2.5-5.2,5.4c0,1.1,0.4,2.2,1,3c-1.5,3.4,0.1,7.4,3.6,8.9c0.8,0.4,1.7,0.5,2.6,0.5c0.3,0,0.6,0,0.9-0.1V50h5.2V34.4
	c0.3,0,0.6,0.1,0.9,0.1c3.7,0,6.8-3,6.8-6.8c0-0.9-0.2-1.8-0.5-2.6C93.3,24.1,93.7,23,93.7,21.8z"/>
<path id="Trazado_364_1_" class="st2" d="M119,26.3c1.1-0.8,1.7-2,1.7-3.3l-3.6-4.6c1.3-0.6,2.1-1.8,2.1-3.2l-8.4-10.5l-8.4,10.5
	c0,1.4,0.8,2.6,2.1,3.2l-3.6,4.6c0,1.3,0.6,2.5,1.7,3.3l-3.3,4.2c0,2.5,2,4.5,4.5,4.5c1.3,0,2.6-0.6,3.5-1.6
	c0.2,0.2,0.3,0.4,0.5,0.5v11.2h5.9V33.9c0.2-0.2,0.4-0.3,0.5-0.5c0.9,1,2.1,1.6,3.5,1.6c2.5,0,4.5-2,4.5-4.5L119,26.3z"/>
<path id="Trazado_366_1_" class="st2" d="M25.4,15.6l5.4-5.4c0.3-0.3,0.8-0.3,1.1,0l4.9,4.8l4.9-4.8c0.3-0.3,0.8-0.3,1.1,0l5.4,5.4
	c0.1,0.1,0.2,0.3,0.2,0.6v5.9h9.7c0.2,0,0.5,0.1,0.6,0.3l6.3,8.2c0,0,0,0,0,0.1c0.1,0.1,0.2,0.3,0.2,0.5v11.1c0,0.4-0.4,0.8-0.8,0.8
	H26c-0.4,0-0.8-0.4-0.8-0.8V16.2C25.2,16,25.3,15.8,25.4,15.6z M35.2,33.1l1.4,2.6l1.4-2.6H35.2z M62.9,30.4l-5.2-6.7H38.2l5.2,6.7
	L62.9,30.4z M38.5,35.4l-1,1.9l1,1.9V35.4z M36.8,41.5H38L36.6,39l-1.4,2.6H36.8z M34.7,39.2l1-1.9l-1-1.9V39.2z M26.8,18.5h2.6
	c0.4,0,0.8,0.4,0.8,0.8S29.8,20,29.3,20h-2.6v2.3h4.4c0.4,0,0.8,0.4,0.8,0.8c0,0.4-0.3,0.8-0.8,0.8c0,0,0,0,0,0h-4.4v17.7h2.7V31.2
	c0-0.2,0.1-0.3,0.2-0.5l6.4-8.2l0,0c0,0,0,0,0,0v-5.9l-4.6-4.6l-4.6,4.6L26.8,18.5z"/>
</svg>
