<?xml version="1.0" encoding="utf-8"?>
<!-- Generator: Adobe Illustrator 25.0.0, SVG Export Plug-In . SVG Version: 6.00 Build 0)  -->
<svg version="1.0" id="Capa_1" xmlns="http://www.w3.org/2000/svg" xmlns:xlink="http://www.w3.org/1999/xlink" x="0px" y="0px"
	 viewBox="0 0 39.94 39.94" style="enable-background:new 0 0 39.94 39.94;" xml:space="preserve">
<style type="text/css">
	.st0{fill:#34344E;}
	.st1{fill:#BC006D;}
	.st2{fill:#CFD0CF;}
	.st3{fill:#620B3C;}
	.st4{fill:#C95B9A;}
	.st5{fill:#C1006D;}
	.st6{fill:#333333;}
	.st7{fill:#D3057F;}
	.st8{fill:#FFFFFF;}
	.st9{fill:#F9F9F9;}
	.st10{fill:none;stroke:#181A2F;}
	.st11{fill:#181A2F;}
	.st12{fill:#D2127E;}
	.st13{fill:#83044C;}
	.st14{fill:none;stroke:#FFFFFF;stroke-width:4;}
	.st15{fill:#79144C;}
	.st16{fill:#C4006E;}
	.st17{fill:#E3E3E3;}
	.st18{fill:#E1DFDF;}
	.st19{fill:none;stroke:#E1DFDF;}
	.st20{opacity:0.4;}
	.st21{fill:none;stroke:#DEDEDE;}
	.st22{fill:url(#Rectángulo_17042-2_1_);}
	.st23{fill:#F8F8F8;}
	.st24{fill:none;stroke:#EDEDED;}
	.st25{fill:none;stroke:#23233E;}
	.st26{fill:#23233E;}
	.st27{fill:#E97EBD;}
	.st28{fill:#D2127E;stroke:#707070;stroke-width:0.5;}
	.st29{clip-path:url(#SVGID_2_);}
	.st30{fill:#E7987B;}
	.st31{fill:#DADADA;}
	.st32{fill:#EDECEC;}
	.st33{fill:#DE8B72;}
	.st34{fill:none;stroke:#D5007F;stroke-width:3;}
	.st35{fill:#D3097F;}
	.st36{fill:#D8D8D8;}
	.st37{fill:#79134C;}
	.st38{fill:#D971A9;}
	.st39{fill:none;stroke:#707070;}
	.st40{enable-background:new    ;}
	.st41{fill:#181A2F;stroke:#FFFFFF;stroke-miterlimit:10;}
</style>
<circle id="Elipse_1" class="st8" cx="19.66" cy="19.66" r="17.28"/>
<g id="Grupo_551">
	<path id="Trazado_263" class="st0" d="M21.67,19.41l5.71-5.71c0.52-0.52,0.52-1.38,0-1.9c-0.52-0.52-1.38-0.52-1.9,0l-5.71,5.71
		l-5.73-5.73c-0.52-0.52-1.38-0.52-1.9,0c-0.52,0.52-0.52,1.38,0,1.9l5.73,5.73l-5.76,5.76c-0.52,0.52-0.52,1.38,0,1.9
		c0.52,0.52,1.38,0.52,1.9,0l5.76-5.76l5.74,5.74c0.52,0.52,1.38,0.52,1.9,0c0.52-0.52,0.52-1.38,0-1.9L21.67,19.41z"/>
	<path id="Trazado_264" class="st0" d="M33.13,6.1c-7.39-7.39-19.37-7.39-26.75,0c-7.39,7.39-7.39,19.37,0,26.75
		c7.39,7.39,19.37,7.39,26.75,0c3.55-3.55,5.54-8.36,5.54-13.38C38.69,14.45,36.69,9.64,33.13,6.1z M31.23,30.95
		c-6.34,6.34-16.62,6.34-22.96,0S1.94,14.33,8.28,8c6.34-6.34,16.62-6.34,22.96,0c3.04,3.04,4.75,7.17,4.75,11.48
		C36,23.78,34.29,27.91,31.23,30.95L31.23,30.95z"/>
</g>
</svg>
