<?xml version="1.0" encoding="utf-8"?>
<!-- Generator: Adobe Illustrator 25.0.0, SVG Export Plug-In . SVG Version: 6.00 Build 0)  -->
<svg version="1.0" id="Capa_1" xmlns="http://www.w3.org/2000/svg" xmlns:xlink="http://www.w3.org/1999/xlink" x="0px" y="0px"
	 viewBox="0 0 42 41" style="enable-background:new 0 0 42 41;" xml:space="preserve">
<style type="text/css">
	.st0{fill:#34344E;}
	.st1{fill:#BC006D;}
	.st2{fill:#CFD0CF;}
	.st3{fill:#620B3C;}
	.st4{fill:#C95B9A;}
	.st5{fill:#C1006D;}
	.st6{fill:#333333;}
	.st7{fill:#D3057F;}
	.st8{fill:#FFFFFF;}
	.st9{fill:#F9F9F9;}
	.st10{fill:none;stroke:#181A2F;}
	.st11{fill:#181A2F;}
	.st12{fill:#D2127E;}
	.st13{fill:#83044C;}
	.st14{fill:none;stroke:#FFFFFF;stroke-width:4;}
	.st15{fill:#79144C;}
	.st16{fill:#C4006E;}
	.st17{fill:#E3E3E3;}
	.st18{fill:#E1DFDF;}
	.st19{fill:none;stroke:#E1DFDF;}
	.st20{opacity:0.4;}
	.st21{fill:none;stroke:#DEDEDE;}
	.st22{fill:url(#Rect치ngulo_17042-2_1_);}
	.st23{fill:#F8F8F8;}
	.st24{fill:none;stroke:#EDEDED;}
	.st25{fill:none;stroke:#23233E;}
	.st26{fill:#23233E;}
	.st27{fill:#E97EBD;}
	.st28{fill:#D2127E;stroke:#707070;stroke-width:0.5;}
	.st29{clip-path:url(#SVGID_2_);}
	.st30{fill:#E7987B;}
	.st31{fill:#DADADA;}
	.st32{fill:#EDECEC;}
	.st33{fill:#DE8B72;}
	.st34{fill:none;stroke:#D5007F;stroke-width:3;}
	.st35{fill:#D3097F;}
	.st36{fill:#D8D8D8;}
	.st37{fill:#79134C;}
	.st38{fill:#D971A9;}
	.st39{fill:none;stroke:#707070;}
	.st40{enable-background:new    ;}
</style>
<g id="Grupo_8074_4_" transform="translate(31 33.051)">
	<g id="Grupo_6158_3_" transform="translate(0 0)">
		<g id="Grupo_5431_3_" transform="translate(0 0)">
			<g id="Rect치ngulo_12505-3_3_">
				<path id="Rect치ngulo_17012_3_" class="st9" d="M-19.95-30.4H0.31c4.42,0,8,3.58,8,8v20.27c0,4.42-3.58,8-8,8h-20.27
					c-4.42,0-8-3.58-8-8V-22.4C-27.95-26.82-24.37-30.4-19.95-30.4z"/>
				<path id="Rect치ngulo_17013_3_" class="st10" d="M-20.15-30.1H0.51c4.14,0,7.5,3.36,7.5,7.5v20.66c0,4.14-3.36,7.5-7.5,7.5
					h-20.66c-4.14,0-7.5-3.36-7.5-7.5V-22.6C-27.65-26.74-24.29-30.1-20.15-30.1z"/>
			</g>
		</g>
	</g>
</g>
<g class="st40">
	<path class="st26" d="M33.83,28.48c0.15,0.15,0.22,0.33,0.22,0.56v0.78c0,0.23-0.07,0.42-0.22,0.56s-0.33,0.22-0.56,0.22H10.61
		c-0.42,0-0.79-0.15-1.1-0.46c-0.31-0.31-0.46-0.67-0.46-1.1V12.63c0-0.23,0.07-0.42,0.22-0.56s0.33-0.22,0.56-0.22h0.78
		c0.23,0,0.42,0.07,0.56,0.22s0.22,0.33,0.22,0.56v15.62h21.88C33.49,28.26,33.68,28.33,33.83,28.48z M13.93,25.72
		c-0.13-0.13-0.2-0.28-0.2-0.44v-3.42c0-0.16,0.06-0.31,0.2-0.44c0.13-0.13,0.28-0.2,0.44-0.2h1.07c0.16,0,0.31,0.07,0.44,0.2
		c0.13,0.13,0.2,0.28,0.2,0.44v3.42c0,0.16-0.07,0.31-0.2,0.44c-0.13,0.13-0.28,0.2-0.44,0.2h-1.07
		C14.21,25.92,14.06,25.85,13.93,25.72z M18.62,25.72c-0.13-0.13-0.2-0.28-0.2-0.44v-9.67c0-0.16,0.06-0.31,0.2-0.44
		c0.13-0.13,0.28-0.2,0.44-0.2h1.07c0.16,0,0.31,0.07,0.44,0.2c0.13,0.13,0.2,0.28,0.2,0.44v9.67c0,0.16-0.07,0.31-0.2,0.44
		c-0.13,0.13-0.28,0.2-0.44,0.2h-1.07C18.89,25.92,18.75,25.85,18.62,25.72z M23.31,25.72c-0.13-0.13-0.2-0.28-0.2-0.44v-6.54
		c0-0.16,0.06-0.31,0.2-0.44c0.13-0.13,0.28-0.2,0.44-0.2h1.07c0.16,0,0.31,0.07,0.44,0.2c0.13,0.13,0.2,0.28,0.2,0.44v6.54
		c0,0.16-0.07,0.31-0.2,0.44c-0.13,0.13-0.28,0.2-0.44,0.2h-1.07C23.58,25.92,23.44,25.85,23.31,25.72z M27.99,25.72
		c-0.13-0.13-0.2-0.28-0.2-0.44V14.05c0-0.16,0.06-0.31,0.2-0.44c0.13-0.13,0.28-0.2,0.44-0.2h1.07c0.16,0,0.31,0.07,0.44,0.2
		c0.13,0.13,0.2,0.28,0.2,0.44v11.23c0,0.16-0.07,0.31-0.2,0.44c-0.13,0.13-0.28,0.2-0.44,0.2h-1.07
		C28.27,25.92,28.12,25.85,27.99,25.72z"/>
</g>
</svg>
