<svg id="Capa_1" data-name="Capa 1" xmlns="http://www.w3.org/2000/svg" viewBox="0 0 42 41"><defs><style>.cls-1{fill:#181a2f;stroke:#fff;stroke-miterlimit:10;}.cls-2{isolation:isolate;}.cls-3{fill:#fff;}</style></defs><g id="Grupo_8074" data-name="Grupo 8074"><g id="Grupo_6158" data-name="Grupo 6158"><g id="Grupo_5431" data-name="Grupo 5431"><g id="Rectángulo_12505-3" data-name="Rectángulo 12505-3"><rect id="Rectángulo_17012" data-name="Rectángulo 17012" class="cls-1" x="2.8" y="2.27" width="36.27" height="36.27" rx="8"/><rect id="Rectángulo_17013" data-name="Rectángulo 17013" class="cls-1" x="3.11" y="2.57" width="35.66" height="35.66" rx="7.5"/></g></g></g></g><g id="_" data-name=" " class="cls-2"><g class="cls-2"><path class="cls-3" d="M33.58,28.1a.73.73,0,0,1,.22.56v.78a.75.75,0,0,1-.22.56.73.73,0,0,1-.56.22H10.37a1.49,1.49,0,0,1-1.1-.46,1.51,1.51,0,0,1-.47-1.1V12.25A.79.79,0,0,1,9,11.69a.76.76,0,0,1,.56-.22h.79a.76.76,0,0,1,.56.22.79.79,0,0,1,.22.56V27.88H33A.73.73,0,0,1,33.58,28.1ZM13.69,25.34a.62.62,0,0,1-.2-.44V21.48a.62.62,0,0,1,.2-.44.59.59,0,0,1,.43-.19H15.2a.65.65,0,0,1,.63.63V24.9a.65.65,0,0,1-.63.63H14.12A.59.59,0,0,1,13.69,25.34Zm4.68,0a.61.61,0,0,1-.19-.44V15.23a.65.65,0,0,1,.63-.63h1.08a.65.65,0,0,1,.63.63V24.9a.65.65,0,0,1-.63.63H18.81A.61.61,0,0,1,18.37,25.34Zm4.69,0a.61.61,0,0,1-.19-.44V18.36a.59.59,0,0,1,.19-.44.62.62,0,0,1,.44-.2h1.07a.69.69,0,0,1,.64.64V24.9a.62.62,0,0,1-.2.44.59.59,0,0,1-.44.19H23.5A.61.61,0,0,1,23.06,25.34Zm4.69,0a.62.62,0,0,1-.2-.44V13.67a.69.69,0,0,1,.64-.64h1.07a.69.69,0,0,1,.64.64V24.9a.62.62,0,0,1-.2.44.61.61,0,0,1-.44.19H28.19A.61.61,0,0,1,27.75,25.34Z"/></g></g></svg>