<svg id="Capa_1" data-name="Capa 1" xmlns="http://www.w3.org/2000/svg" viewBox="0 0 42.66 41.66"><g id="Grupo_8055" data-name="Grupo 8055"><g id="Grupo_6158" data-name="Grupo 6158"><g id="Grupo_5431" data-name="Grupo 5431"><g id="Rectángulo_12505-3" data-name="Rectángulo 12505-3"><rect id="Rectángulo_17012" data-name="Rectángulo 17012" x="3.2" y="2.2" width="36.27" height="36.27" rx="8" style="fill:#f9f9f9"/><rect id="Rectángulo_17013" data-name="Rectángulo 17013" x="3.5" y="2.5" width="35.66" height="35.66" rx="7.5" style="fill:none;stroke:#181a2f"/></g></g></g><g id="Grupo_8039" data-name="Grupo 8039"><g id="Grupo_8069" data-name="Grupo 8069"><path id="Trazado_5899" data-name="Trazado 5899" d="M15.63,7.05V31.8L9.51,35a1.35,1.35,0,0,1-1.82-.57,1.32,1.32,0,0,1-.15-.62V12.36a1.35,1.35,0,0,1,.69-1.18Z" style="fill:#181a2f"/><path id="Trazado_5900" data-name="Trazado 5900" d="M27.36,35.18V10.43l6.12-3.22a1.34,1.34,0,0,1,1.82.56,1.4,1.4,0,0,1,.16.63V29.88a1.34,1.34,0,0,1-.69,1.17Z" style="fill:#181a2f"/><path id="Trazado_5901" data-name="Trazado 5901" d="M17.72,7.05l7.56,3.6V35.19l-7.56-3.64Z" style="fill:#181a2f"/></g></g></g></svg>