<?xml version="1.0" encoding="utf-8"?>
<!-- Generator: Adobe Illustrator 25.0.0, SVG Export Plug-In . SVG Version: 6.00 Build 0)  -->
<svg version="1.0" id="Capa_1" xmlns="http://www.w3.org/2000/svg" xmlns:xlink="http://www.w3.org/1999/xlink" x="0px" y="0px"
	 viewBox="0 0 42 41" style="enable-background:new 0 0 42 41;" xml:space="preserve">
<style type="text/css">
	.st0{fill:#34344E;}
	.st1{fill:#BC006D;}
	.st2{fill:#CFD0CF;}
	.st3{fill:#620B3C;}
	.st4{fill:#C95B9A;}
	.st5{fill:#C1006D;}
	.st6{fill:#333333;}
	.st7{fill:#D3057F;}
	.st8{fill:#FFFFFF;}
	.st9{fill:#F9F9F9;}
	.st10{fill:none;stroke:#181A2F;}
	.st11{fill:#181A2F;}
	.st12{fill:#D2127E;}
	.st13{fill:#83044C;}
	.st14{fill:none;stroke:#FFFFFF;stroke-width:4;}
	.st15{fill:#79144C;}
	.st16{fill:#C4006E;}
	.st17{fill:#E3E3E3;}
	.st18{fill:#E1DFDF;}
	.st19{fill:none;stroke:#E1DFDF;}
	.st20{opacity:0.4;}
	.st21{fill:none;stroke:#DEDEDE;}
	.st22{fill:url(#Rect치ngulo_17042-2_1_);}
	.st23{fill:#F8F8F8;}
	.st24{fill:none;stroke:#EDEDED;}
	.st25{fill:none;stroke:#23233E;}
	.st26{fill:#23233E;}
	.st27{fill:#E97EBD;}
	.st28{fill:#D2127E;stroke:#707070;stroke-width:0.5;}
	.st29{clip-path:url(#SVGID_2_);}
	.st30{fill:#E7987B;}
	.st31{fill:#DADADA;}
	.st32{fill:#EDECEC;}
	.st33{fill:#DE8B72;}
	.st34{fill:none;stroke:#D5007F;stroke-width:3;}
	.st35{fill:#D3097F;}
	.st36{fill:#D8D8D8;}
	.st37{fill:#79134C;}
	.st38{fill:#D971A9;}
	.st39{fill:none;stroke:#707070;}
	.st40{enable-background:new    ;}
	.st41{fill:#181A2F;stroke:#FFFFFF;stroke-miterlimit:10;}
</style>
<g id="Grupo_8055_1_" transform="translate(1790 493.051)">
	<g id="Grupo_6158_9_" transform="translate(0 0)">
		<g id="Grupo_5431_9_" transform="translate(0 0)">
			<g id="Rect치ngulo_12505-3_9_">
				<path id="Rect치ngulo_17012_9_" class="st41" d="M-1779.38-490.87l20.27,0.19c4.42,0.04,7.97,3.66,7.93,8.07l-0.19,20.27
					c-0.04,4.42-3.66,7.97-8.07,7.93l-20.27-0.19c-4.42-0.04-7.97-3.66-7.93-8.07l0.19-20.27
					C-1787.41-487.36-1783.8-490.91-1779.38-490.87z"/>
				<path id="Rect치ngulo_17013_9_" class="st41" d="M-1779.58-490.57l20.66,0.19c4.14,0.04,7.47,3.43,7.43,7.57l-0.19,20.66
					c-0.04,4.14-3.43,7.47-7.57,7.43l-20.66-0.19c-4.14-0.04-7.47-3.43-7.43-7.57l0.19-20.66
					C-1787.11-487.28-1783.72-490.61-1779.58-490.57z"/>
			</g>
		</g>
	</g>
	<g id="Grupo_8039_1_" transform="translate(4.339 4.854)">
		<g id="Grupo_8069_1_" transform="translate(0 0)">
			<path id="Trazado_5899_1_" class="st9" d="M-1779.33-490.83l-0.23,24.75l-6.15,3.17c-0.66,0.34-1.47,0.08-1.81-0.58
				c-0.1-0.19-0.15-0.41-0.15-0.63l0.2-21.48c0-0.49,0.27-0.93,0.7-1.17L-1779.33-490.83z"/>
			<path id="Trazado_5900_1_" class="st9" d="M-1767.86-462.59l0.23-24.75l6.15-3.17c0.66-0.34,1.47-0.08,1.81,0.58
				c0.1,0.19,0.15,0.41,0.15,0.63l-0.2,21.48c0,0.49-0.27,0.93-0.7,1.17L-1767.86-462.59z"/>
			<path id="Trazado_5901_1_" class="st9" d="M-1777.24-490.81l7.53,3.67l-0.23,24.53l-7.53-3.71L-1777.24-490.81z"/>
		</g>
	</g>
</g>
</svg>
