<?xml version="1.0" encoding="utf-8"?>
<!-- Generator: Adobe Illustrator 25.0.0, SVG Export Plug-In . SVG Version: 6.00 Build 0)  -->
<svg version="1.0" id="Capa_1" xmlns="http://www.w3.org/2000/svg" xmlns:xlink="http://www.w3.org/1999/xlink" x="0px" y="0px"
	 viewBox="0 0 42 41" style="enable-background:new 0 0 42 41;" xml:space="preserve">
<style type="text/css">
	.st0{fill:#34344E;}
	.st1{fill:#BC006D;}
	.st2{fill:#CFD0CF;}
	.st3{fill:#620B3C;}
	.st4{fill:#C95B9A;}
	.st5{fill:#C1006D;}
	.st6{fill:#333333;}
	.st7{fill:#D3057F;}
	.st8{fill:#FFFFFF;}
	.st9{fill:#F9F9F9;}
	.st10{fill:none;stroke:#181A2F;}
	.st11{fill:#181A2F;}
	.st12{fill:#D2127E;}
	.st13{fill:#83044C;}
	.st14{fill:none;stroke:#FFFFFF;stroke-width:4;}
	.st15{fill:#79144C;}
	.st16{fill:#C4006E;}
	.st17{fill:#E3E3E3;}
	.st18{fill:#E1DFDF;}
	.st19{fill:none;stroke:#E1DFDF;}
	.st20{opacity:0.4;}
	.st21{fill:none;stroke:#DEDEDE;}
	.st22{fill:url(#Rect치ngulo_17042-2_1_);}
	.st23{fill:#F8F8F8;}
	.st24{fill:none;stroke:#EDEDED;}
	.st25{fill:none;stroke:#23233E;}
	.st26{fill:#23233E;}
	.st27{fill:#E97EBD;}
	.st28{fill:#D2127E;stroke:#707070;stroke-width:0.5;}
	.st29{clip-path:url(#SVGID_2_);}
	.st30{fill:#E7987B;}
	.st31{fill:#DADADA;}
	.st32{fill:#EDECEC;}
	.st33{fill:#DE8B72;}
	.st34{fill:none;stroke:#D5007F;stroke-width:3;}
	.st35{fill:#D3097F;}
	.st36{fill:#D8D8D8;}
	.st37{fill:#79134C;}
	.st38{fill:#D971A9;}
	.st39{fill:none;stroke:#707070;}
	.st40{enable-background:new    ;}
</style>
<g id="Grupo_8074_1_" transform="translate(31 33.051)">
	<g id="Grupo_6158_2_" transform="translate(0 0)">
		<g id="Grupo_5431_2_" transform="translate(0 0)">
			<g id="Rect치ngulo_12505-3_2_">
				<path id="Rect치ngulo_17012_2_" class="st11" d="M-20.1-31.27H0.16c4.42,0,8,3.58,8,8v20.27c0,4.42-3.58,8-8,8H-20.1
					c-4.42,0-8-3.58-8-8v-20.27C-28.1-27.69-24.52-31.27-20.1-31.27z"/>
				<path id="Rect치ngulo_17013_2_" class="st11" d="M-20.3-30.97H0.36c4.14,0,7.5,3.36,7.5,7.5v20.66c0,4.14-3.36,7.5-7.5,7.5
					H-20.3c-4.14,0-7.5-3.36-7.5-7.5v-20.66C-27.8-27.61-24.44-30.97-20.3-30.97z"/>
			</g>
		</g>
	</g>
</g>
<g class="st40">
	<path class="st8" d="M33.68,27.6c0.15,0.15,0.22,0.33,0.22,0.56v0.78c0,0.23-0.07,0.42-0.22,0.56s-0.33,0.22-0.56,0.22H10.46
		c-0.42,0-0.79-0.15-1.1-0.46c-0.31-0.31-0.46-0.67-0.46-1.1V11.76c0-0.23,0.07-0.42,0.22-0.56s0.33-0.22,0.56-0.22h0.78
		c0.23,0,0.41,0.07,0.56,0.22s0.22,0.33,0.22,0.56v15.62h21.88C33.34,27.38,33.53,27.46,33.68,27.6z M13.78,24.84
		c-0.13-0.13-0.2-0.28-0.2-0.44v-3.42c0-0.16,0.06-0.31,0.2-0.44c0.13-0.13,0.28-0.2,0.44-0.2h1.07c0.16,0,0.31,0.07,0.44,0.2
		c0.13,0.13,0.2,0.28,0.2,0.44v3.42c0,0.16-0.07,0.31-0.2,0.44c-0.13,0.13-0.28,0.2-0.44,0.2h-1.07
		C14.06,25.04,13.91,24.97,13.78,24.84z M18.47,24.84c-0.13-0.13-0.2-0.28-0.2-0.44v-9.67c0-0.16,0.06-0.31,0.2-0.44
		c0.13-0.13,0.28-0.2,0.44-0.2h1.07c0.16,0,0.31,0.07,0.44,0.2c0.13,0.13,0.2,0.28,0.2,0.44v9.67c0,0.16-0.07,0.31-0.2,0.44
		c-0.13,0.13-0.28,0.2-0.44,0.2h-1.07C18.74,25.04,18.6,24.97,18.47,24.84z M23.16,24.84c-0.13-0.13-0.2-0.28-0.2-0.44v-6.54
		c0-0.16,0.06-0.31,0.2-0.44c0.13-0.13,0.28-0.2,0.44-0.2h1.07c0.16,0,0.31,0.07,0.44,0.2c0.13,0.13,0.2,0.28,0.2,0.44v6.54
		c0,0.16-0.07,0.31-0.2,0.44c-0.13,0.13-0.28,0.2-0.44,0.2H23.6C23.43,25.04,23.29,24.97,23.16,24.84z M27.84,24.84
		c-0.13-0.13-0.2-0.28-0.2-0.44V13.17c0-0.16,0.06-0.31,0.2-0.44c0.13-0.13,0.28-0.2,0.44-0.2h1.07c0.16,0,0.31,0.07,0.44,0.2
		c0.13,0.13,0.2,0.28,0.2,0.44V24.4c0,0.16-0.07,0.31-0.2,0.44c-0.13,0.13-0.28,0.2-0.44,0.2h-1.07
		C28.12,25.04,27.97,24.97,27.84,24.84z"/>
</g>
</svg>
