<?xml version="1.0" encoding="utf-8"?>
<!-- Generator: Adobe Illustrator 25.0.0, SVG Export Plug-In . SVG Version: 6.00 Build 0)  -->
<svg version="1.0" id="Capa_1" xmlns="http://www.w3.org/2000/svg" xmlns:xlink="http://www.w3.org/1999/xlink" x="0px" y="0px"
	 viewBox="0 0 42 41" style="enable-background:new 0 0 42 41;" xml:space="preserve">
<style type="text/css">
	.st0{fill:#34344E;}
	.st1{fill:#BC006D;}
	.st2{fill:#CFD0CF;}
	.st3{fill:#620B3C;}
	.st4{fill:#C95B9A;}
	.st5{fill:#C1006D;}
	.st6{fill:#333333;}
	.st7{fill:#D3057F;}
	.st8{fill:#FFFFFF;}
	.st9{fill:#F9F9F9;}
	.st10{fill:none;stroke:#181A2F;}
	.st11{fill:#181A2F;}
	.st12{fill:#D2127E;}
	.st13{fill:#83044C;}
	.st14{fill:none;stroke:#FFFFFF;stroke-width:4;}
	.st15{fill:#79144C;}
	.st16{fill:#C4006E;}
	.st17{fill:#E3E3E3;}
	.st18{fill:#E1DFDF;}
	.st19{fill:none;stroke:#E1DFDF;}
	.st20{opacity:0.4;}
	.st21{fill:none;stroke:#DEDEDE;}
	.st22{fill:url(#Rectángulo_17042-2_1_);}
	.st23{fill:#F8F8F8;}
	.st24{fill:none;stroke:#EDEDED;}
	.st25{fill:none;stroke:#23233E;}
	.st26{fill:#23233E;}
	.st27{fill:#E97EBD;}
	.st28{fill:#D2127E;stroke:#707070;stroke-width:0.5;}
	.st29{clip-path:url(#SVGID_2_);}
	.st30{fill:#E7987B;}
	.st31{fill:#DADADA;}
	.st32{fill:#EDECEC;}
	.st33{fill:#DE8B72;}
	.st34{fill:none;stroke:#D5007F;stroke-width:3;}
	.st35{fill:#D3097F;}
	.st36{fill:#D8D8D8;}
	.st37{fill:#79134C;}
	.st38{fill:#D971A9;}
	.st39{fill:none;stroke:#707070;}
	.st40{enable-background:new    ;}
	.st41{fill:#181A2F;stroke:#FFFFFF;stroke-miterlimit:10;}
</style>
<g>
	<g id="Grupo_8036_1_" transform="translate(0 0)">
		<path id="Rectángulo_12505-2_1_" class="st41" d="M10.46,2.14h20.53c4.42,0,8,3.58,8,8v20.53c0,4.42-3.58,8-8,8H10.46
			c-4.42,0-8-3.58-8-8V10.14C2.46,5.72,6.04,2.14,10.46,2.14z"/>
	</g>
	<g id="Grupo_622_1_" transform="translate(9.8 10.08)">
		<path id="Trazado_302_1_" class="st8" d="M2.46,2.14h6.91v6.91H2.46V2.14z"/>
		<path id="Trazado_319_1_" class="st8" d="M2.46,11.72h6.91v6.91H2.46V11.72z"/>
		<path id="Trazado_317_1_" class="st8" d="M12.04,2.14h6.91v6.91h-6.91V2.14z"/>
		<path id="Trazado_318_1_" class="st8" d="M12.04,11.72h6.91v6.91h-6.91V11.72z"/>
	</g>
</g>
</svg>
