<?xml version="1.0" encoding="utf-8"?>
<!-- Generator: Adobe Illustrator 25.0.1, SVG Export Plug-In . SVG Version: 6.00 Build 0)  -->
<svg version="1.1" id="Capa_1" xmlns="http://www.w3.org/2000/svg" xmlns:xlink="http://www.w3.org/1999/xlink" x="0px" y="0px"
	 viewBox="0 0 31.4 31.4" style="enable-background:new 0 0 31.4 31.4;" xml:space="preserve">
<style type="text/css">
	.st0{fill:#181819;}
</style>
<g>
	<g>
		<path class="st0" d="M27.1,8.1l-0.4,0.1l-2.2,0.2l-0.6,1l-0.4-0.1l-1.7-1.6l-0.3-0.8L21.1,6L20,5l-1.3-0.3l0,0.6L20,6.6l0.6,0.7
			l-0.7,0.4l-0.6-0.2l-0.8-0.4l0-0.7L17.4,6L17,7.6l-1.1,0.3L16,8.8L17.5,9l0.3-1.4l1.2,0.2l0.6,0.3h0.9L21,9.3l1.6,1.7l-0.1,0.6
			l-1.3-0.2l-2.3,1.1l-1.6,2l-0.2,0.9h-0.6L15.4,15l-1.1,0.5l0.3,1.1l0.5-0.5l0.8,0l-0.1,1l0.7,0.2l0.7,0.8l1.1-0.3l1.3,0.2l1.5,0.4
			l0.7,0.1l1.2,1.4l2.4,1.4l-1.5,2.9l-1.6,0.8l-0.6,1.7l-2.4,1.6L18.9,29c6-1.5,10.5-6.9,10.5-13.3C29.4,12.9,28.6,10.3,27.1,8.1z"
			/>
		<path class="st0" d="M17.3,22.9l-1-1.9l0.9-1.9l-0.9-0.3l-1-1L13,17.3l-0.8-1.6v0.9h-0.3l-2-2.7v-2.2L8.5,9.4L6.2,9.9H4.6L3.9,9.3
			l1-0.8l-1,0.2c-1.2,2-1.9,4.4-1.9,6.9c0,7.6,6.1,13.7,13.7,13.7c0.6,0,1.2-0.1,1.7-0.1l-0.1-1.7c0,0,0.6-2.5,0.6-2.6
			C17.9,25,17.3,22.9,17.3,22.9z"/>
		<path class="st0" d="M7.1,6.4l2.4-0.3l1.1-0.6l1.3,0.4l2-0.1l0.7-1.1l1,0.2l2.5-0.2l0.7-0.7l1-0.6l1.3,0.2l0.5-0.1
			C19.8,2.5,17.8,2,15.7,2C11.4,2,7.6,3.9,5.1,7h0L7.1,6.4z M16.3,3.3l1.4-0.8l0.9,0.5l-1.3,1L16,4.2l-0.6-0.4L16.3,3.3z M12.1,3.5
			l0.6,0.3l0.8-0.3L14,4.2l-1.9,0.5l-0.9-0.5C11.2,4.2,12.1,3.6,12.1,3.5z"/>
	</g>
</g>
<g>
	<path class="st0" d="M15.6,2.3C23,2.3,29,8.4,29,15.8s-6,13.4-13.4,13.4s-13.4-6-13.4-13.4S8.2,2.3,15.6,2.3 M15.6,0.3
		C7.1,0.3,0.2,7.2,0.2,15.8s6.9,15.4,15.4,15.4S31,24.3,31,15.8S24.1,0.3,15.6,0.3L15.6,0.3z"/>
</g>
</svg>
